<?xml version="1.0" encoding="utf-8"?>
<!-- Generator: Adobe Illustrator 16.0.0, SVG Export Plug-In . SVG Version: 6.00 Build 0)  -->
<!DOCTYPE svg PUBLIC "-//W3C//DTD SVG 1.1//EN" "http://www.w3.org/Graphics/SVG/1.1/DTD/svg11.dtd">
<svg version="1.1" id="Layer_1" xmlns="http://www.w3.org/2000/svg" xmlns:xlink="http://www.w3.org/1999/xlink" x="0px" y="0px"
	 width="950.4px" height="792px" viewBox="849.8 0 950.4 792" enable-background="new 849.8 0 950.4 792" xml:space="preserve">
<path fill="#FFFFFF" d="M1427.188,353.455c2.837,14.992,4.861,29.984,4.861,49.432C1432.05,572.661,1318.192,693,1146.8,693
	c-164.099,0-297-132.899-297-297c0-164.1,132.901-297,297-297c80.228,0,147.082,29.172,198.945,77.795l-80.632,77.39
	c-21.881-21.07-60.372-45.786-118.313-45.786c-101.296,0-183.954,83.874-183.954,187.601c0,103.728,82.658,187.601,183.954,187.601
	c117.503,0,161.669-84.684,168.556-128.04H1146.8V353.453h280.389V353.455z M1713.988,363.412V277.2h-86.627v86.212h-86.212v86.626
	h86.212v86.213h86.627v-86.213h86.212v-86.626H1713.988L1713.988,363.412z"/>
</svg>
