<?xml version="1.0" encoding="utf-8"?>
<!-- Generator: Adobe Illustrator 16.0.0, SVG Export Plug-In . SVG Version: 6.00 Build 0)  -->
<!DOCTYPE svg PUBLIC "-//W3C//DTD SVG 1.1//EN" "http://www.w3.org/Graphics/SVG/1.1/DTD/svg11.dtd">
<svg version="1.1" id="Layer_1" xmlns="http://www.w3.org/2000/svg" xmlns:xlink="http://www.w3.org/1999/xlink" x="0px" y="0px"
	 width="693.386px" height="792px" viewBox="978.384 0 693.386 792" enable-background="new 978.384 0 693.386 792"
	 xml:space="preserve">
<path fill="#FFFFFF" d="M1325.154,218.109c-98.381,0-177.735,79.354-177.735,177.736c0,98.381,79.354,177.735,177.735,177.735
	c98.382,0,177.736-79.354,177.736-177.735C1502.891,297.464,1423.536,218.109,1325.154,218.109z M1325.154,511.396
	c-63.576,0-115.551-51.82-115.551-115.551c0-63.731,51.82-115.552,115.551-115.552c63.731,0,115.552,51.82,115.552,115.552
	C1440.706,459.576,1388.731,511.396,1325.154,511.396z M1551.617,210.839c0,23.049-18.563,41.457-41.456,41.457
	c-23.049,0-41.456-18.563-41.456-41.457c0-22.894,18.563-41.456,41.456-41.456S1551.617,187.945,1551.617,210.839z
	 M1669.334,252.914c-2.629-55.533-15.313-104.724-55.996-145.251c-40.528-40.528-89.719-53.212-145.252-55.997
	c-57.234-3.249-228.783-3.249-286.018,0c-55.378,2.63-104.568,15.314-145.251,55.842s-53.213,89.719-55.997,145.251
	c-3.248,57.235-3.248,228.783,0,286.017c2.63,55.533,15.314,104.724,55.997,145.252s89.719,53.212,145.251,55.997
	c57.234,3.248,228.783,3.248,286.018,0c55.533-2.63,104.724-15.314,145.252-55.997c40.527-40.528,53.212-89.719,55.996-145.252
	C1672.583,481.542,1672.583,310.148,1669.334,252.914L1669.334,252.914z M1595.394,600.188
	c-12.065,30.318-35.423,53.677-65.896,65.896c-45.633,18.099-153.914,13.922-204.343,13.922c-50.428,0-158.863,4.022-204.342-13.922
	c-30.318-12.065-53.677-35.423-65.896-65.896c-18.099-45.633-13.922-153.914-13.922-204.342c0-50.429-4.022-158.864,13.922-204.343
	c12.065-30.318,35.423-53.676,65.896-65.896c45.633-18.099,153.914-13.922,204.342-13.922c50.429,0,158.864-4.022,204.343,13.922
	c30.318,12.065,53.677,35.423,65.896,65.896c18.099,45.633,13.922,153.914,13.922,204.343
	C1609.315,446.273,1613.492,554.709,1595.394,600.188z"/>
</svg>
