<?xml version="1.0" encoding="utf-8"?>
<!-- Generator: Adobe Illustrator 16.0.0, SVG Export Plug-In . SVG Version: 6.00 Build 0)  -->
<!DOCTYPE svg PUBLIC "-//W3C//DTD SVG 1.1//EN" "http://www.w3.org/Graphics/SVG/1.1/DTD/svg11.dtd">
<svg version="1.1" id="Layer_1" xmlns="http://www.w3.org/2000/svg" xmlns:xlink="http://www.w3.org/1999/xlink" x="0px" y="0px"
	 width="767.25px" height="792px" viewBox="941.375 0 767.25 792" enable-background="new 941.375 0 767.25 792"
	 xml:space="preserve">
<path fill="#FFFFFF" d="M1708.625,396c0,211.922-171.703,383.625-383.625,383.625c-39.6,0-77.653-6.033-113.541-17.17
	c15.624-25.523,38.981-67.289,47.645-100.547c4.641-17.944,23.821-91.266,23.821-91.266c12.53,23.821,49.036,44.086,87.862,44.086
	c115.707,0,199.083-106.426,199.083-238.684c0-126.688-103.485-221.512-236.517-221.512c-165.516,0-253.533,111.066-253.533,232.186
	c0,56.307,30.01,126.38,77.808,148.654c7.271,3.403,11.138,1.856,12.839-5.104c1.238-5.259,7.734-31.401,10.674-43.467
	c0.928-3.867,0.464-7.271-2.63-10.983c-15.623-19.336-28.308-54.604-28.308-87.553c0-84.614,64.041-166.444,173.25-166.444
	c94.205,0,160.256,64.195,160.256,156.08c0,103.796-52.438,175.726-120.656,175.726c-37.589,0-65.896-31.093-56.77-69.301
	c10.828-45.633,31.711-94.823,31.711-127.771c0-29.391-15.778-53.986-48.572-53.986c-38.518,0-69.455,39.754-69.455,93.122
	c0,34.031,11.447,56.925,11.447,56.925s-37.898,160.566-44.859,190.575c-7.734,33.104-4.641,79.819-1.393,110.138
	C1042.541,697.486,941.375,558.576,941.375,396c0-211.922,171.703-383.625,383.625-383.625S1708.625,184.078,1708.625,396z"/>
</svg>
