<?xml version="1.0" encoding="utf-8"?>
<!-- Generator: Adobe Illustrator 16.0.0, SVG Export Plug-In . SVG Version: 6.00 Build 0)  -->
<!DOCTYPE svg PUBLIC "-//W3C//DTD SVG 1.1//EN" "http://www.w3.org/Graphics/SVG/1.1/DTD/svg11.dtd">
<svg version="1.1" id="Layer_1" xmlns="http://www.w3.org/2000/svg" xmlns:xlink="http://www.w3.org/1999/xlink" x="0px" y="0px"
	 width="791.997px" height="792px" viewBox="929 0 791.997 792" enable-background="new 929 0 791.997 792" xml:space="preserve">
<path fill="#FFFFFF" d="M1639.588,234.686c0.503,7.035,0.503,14.072,0.503,21.107c0,214.582-163.323,461.832-461.832,461.832
	c-91.965,0-177.396-26.636-249.259-72.867c13.066,1.507,25.629,2.009,39.197,2.009c75.883,0,145.736-25.628,201.518-69.349
	c-71.359-1.509-131.162-48.244-151.767-112.569c10.052,1.507,20.102,2.512,30.656,2.512c14.573,0,29.147-2.011,42.716-5.527
	c-74.376-15.077-130.159-80.406-130.159-159.305v-2.009c21.608,12.061,46.737,19.599,73.37,20.603
	c-43.721-29.148-72.365-78.898-72.365-135.183c0-30.152,8.04-57.791,22.111-81.913c79.904,98.497,200.012,162.821,334.689,169.858
	c-2.512-12.061-4.02-24.624-4.02-37.187c0-89.453,72.365-162.32,162.319-162.32c46.735,0,88.948,19.599,118.599,51.259
	c36.685-7.035,71.861-20.604,103.021-39.198c-12.063,37.691-37.691,69.351-71.36,89.451c32.665-3.516,64.325-12.564,93.472-25.126
	C1698.889,182.924,1671.248,211.568,1639.588,234.686L1639.588,234.686z"/>
</svg>
