<?xml version="1.0" standalone="no"?>
<!DOCTYPE svg PUBLIC "-//W3C//DTD SVG 1.1//EN" "http://www.w3.org/Graphics/SVG/1.1/DTD/svg11.dtd" >
<svg>
<metadata>
Created by FontForge 20090914 at Tue Jun  5 04:10:34 2018
 By www-data
Copyright (c) 2007 by Process Type Foundry. All rights reserved.
</metadata>
<defs>
<font id="Seravek" horiz-adv-x="552" >
  <font-face 
    font-family="Seravek"
    font-weight="400"
    font-stretch="normal"
    units-per-em="1000"
    panose-1="2 11 5 3 4 0 0 2 0 4"
    ascent="800"
    descent="-200"
    x-height="480"
    cap-height="666"
    bbox="-851 -436 1295 1107"
    underline-thickness="49"
    underline-position="-225"
    unicode-range="U+0020-U+FE48"
  />
<missing-glyph horiz-adv-x="676" 
d="M105 666h466v-666h-466v666zM182 616l340 -527v527h-340zM154 49h339l-339 527v-527z" />
    <glyph glyph-name="f_f" unicode="ff" horiz-adv-x="658" 
d="M413 0l0.000976562 407.002h-212v-407h-90v407h-81v73h81v25c0 72 16.667 125.167 50 159.5s78.666 51.5 135.999 51.5c12.667 0 25.5 -0.833008 38.5 -2.5s24.167 -4.16699 33.5 -7.5l-7 -70c-7.33301 2 -15.333 3.66699 -24 5s-19 2 -31 2c-40 0 -67.667 -12 -83 -36
s-23 -56.667 -23 -98v-29h212v20c0 73.333 17.167 127.666 51.5 162.999s79.833 53 136.5 53c15.333 0 30 -0.833008 44 -2.5s26.667 -4.83398 38 -9.50098l-8 -69c-19.333 5.33301 -40.333 8 -63 8c-38 0 -65.667 -11.333 -83 -34s-26 -57 -26 -103v-26h140v-73h-140v-407
h-90z" />
    <glyph glyph-name="fi" unicode="fi" horiz-adv-x="562" 
d="M111 0l-0.000976562 406.999h-81v73h81v22c0 72.667 17.833 126.5 53.5 161.5s86.834 52.5 153.501 52.5c24 0 46.833 -2 68.5 -6s41.167 -9.66699 58.5 -17l-11 -69c-16 6 -33.667 10.667 -53 14s-39 5 -59 5c-43.333 0 -74.333 -11.167 -93 -33.5
s-28 -57.166 -28 -104.499v-25h286v-480h-90v407h-196v-407h-90z" />
    <glyph glyph-name="fl" unicode="fl" horiz-adv-x="625" 
d="M413 633c-12 3.33301 -25.6689 5.83203 -41.002 7.49902s-31.666 2.5 -48.999 2.5c-42.667 0 -73.667 -11 -93 -33s-29 -56.667 -29 -104v-26h137v-73h-137v-407h-90v407h-81v73h81v24c0 72 18.167 125.333 54.5 160s86.833 52 151.5 52c35.333 0 67.333 -3.33301 96 -10
h90v-582c0 -19.333 3.83301 -34.166 11.5 -44.499s20.834 -15.5 39.501 -15.5c14.667 0 29.667 2 45 6l4 -67c-22 -7.33301 -46.333 -11 -73 -11c-42 0 -72 12.333 -90 37s-27 55 -27 91v513v0z" />
    <glyph glyph-name="f_f_i" unicode="ffi" horiz-adv-x="864" 
d="M413 502c0 72.667 17.833 126.499 53.5 161.499s86.834 52.5 153.501 52.5c24 0 46.833 -2 68.5 -6s41.167 -9.66699 58.5 -17l-11 -69c-16 6 -33.667 10.667 -53 14s-39 5 -59 5c-43.333 0 -74.333 -11.167 -93 -33.5s-28 -57.166 -28 -104.499v-25h286v-480h-90v407
h-196v-407h-90v407h-212v-407h-90v407h-81v73h81v25c0 72 16.667 125.167 50 159.5s78.666 51.5 135.999 51.5c12.667 0 25.5 -0.833008 38.5 -2.5s24.167 -4.16699 33.5 -7.5l-7 -70c-7.33301 2 -15.333 3.66699 -24 5s-19 2 -31 2c-40 0 -67.667 -12 -83 -36
s-23 -56.667 -23 -98v-29h212v22z" />
    <glyph glyph-name="f_f_l" unicode="ffl" horiz-adv-x="927" 
d="M715 633c-12 3.33301 -25.668 5.83203 -41.001 7.49902s-31.666 2.5 -48.999 2.5c-42.667 0 -73.667 -11 -93 -33s-29 -56.667 -29 -104v-26h137v-73h-137v-407h-90v407h-212v-407h-90v407h-81v73h81v25c0 72 16.667 125.167 50 159.5s78.666 51.5 135.999 51.5
c12.667 0 25.5 -0.833008 38.5 -2.5s24.167 -4.16699 33.5 -7.5l-7 -70c-7.33301 2 -15.333 3.66699 -24 5s-19 2 -31 2c-40 0 -67.667 -12 -83 -36s-23 -56.667 -23 -98v-29h212v24c0 72 18.167 125.333 54.5 160s86.833 52 151.5 52c35.333 0 67.333 -3.33301 96 -10h90
v-582c0 -19.333 3.83301 -34.166 11.5 -44.499s20.834 -15.5 39.501 -15.5c14.667 0 29.667 2 45 6l4 -67c-22 -7.33301 -46.333 -11 -73 -11c-42 0 -72 12.333 -90 37s-27 55 -27 91v513v0z" />
    <glyph glyph-name="f_b" unicode="fb" horiz-adv-x="880" 
d="M413 633c-12 3.33301 -25.6709 5.83398 -41.0039 7.50098s-31.666 2.5 -48.999 2.5c-42.667 0 -73.667 -11 -93 -33s-29 -56.667 -29 -104v-26h137v-73h-137v-407h-90v407h-81v73h81v24c0 72 18.167 125.333 54.5 160s86.833 52 151.5 52
c35.333 0 67.333 -3.33301 96 -10h90v-270c14.667 15.333 33.5 28.166 56.5 38.499s49.833 15.5 80.5 15.5s58.334 -6.16699 83.001 -18.5s45.834 -29.5 63.501 -51.5s31.334 -48 41.001 -78s14.5 -62.667 14.5 -98s-5.5 -68.333 -16.5 -99s-27.167 -57.5 -48.5 -80.5
s-47.833 -41.167 -79.5 -54.5s-68.167 -20 -109.5 -20c-32 0 -62.833 3 -92.5 9s-57.167 14.667 -82.5 26v608zM617.996 418.001c-25.333 0 -47.5 -4.33203 -66.5 -12.999s-35.167 -19.334 -48.5 -32.001v-297c12 -4.66699 24.5 -8.16699 37.5 -10.5s28.833 -3.5 47.5 -3.5
c54.667 0 95.667 16.667 123 50s41 77 41 131c0 24 -2.66699 46.667 -8 68s-13.5 40 -24.5 56s-25 28.5 -42 37.5s-36.833 13.5 -59.5 13.5z" />
    <glyph glyph-name="f_f_b" unicode="ffb" horiz-adv-x="1182" 
d="M715 633c-12 3.33301 -25.6699 5.83398 -41.0029 7.50098s-31.666 2.5 -48.999 2.5c-42.667 0 -73.667 -11 -93 -33s-29 -56.667 -29 -104v-26h137v-73h-137v-407h-90v407h-212v-407h-90v407h-81v73h81v25c0 72 16.667 125.167 50 159.5s78.666 51.5 135.999 51.5
c12.667 0 25.5 -0.833008 38.5 -2.5s24.167 -4.16699 33.5 -7.5l-7 -70c-7.33301 2 -15.333 3.66699 -24 5s-19 2 -31 2c-40 0 -67.667 -12 -83 -36s-23 -56.667 -23 -98v-29h212v24c0 72 18.167 125.333 54.5 160s86.833 52 151.5 52c35.333 0 67.333 -3.33301 96 -10h90
v-270c14.667 15.333 33.5 28.166 56.5 38.499s49.833 15.5 80.5 15.5s58.334 -6.16699 83.001 -18.5s45.834 -29.5 63.501 -51.5s31.334 -48 41.001 -78s14.5 -62.667 14.5 -98s-5.5 -68.333 -16.5 -99s-27.167 -57.5 -48.5 -80.5s-47.833 -41.167 -79.5 -54.5
s-68.167 -20 -109.5 -20c-32 0 -62.833 3 -92.5 9s-57.167 14.667 -82.5 26v608zM919.997 418.001c-25.333 0 -47.5 -4.33203 -66.5 -12.999s-35.167 -19.334 -48.5 -32.001v-297c12 -4.66699 24.5 -8.16699 37.5 -10.5s28.833 -3.5 47.5 -3.5
c54.667 0 95.667 16.667 123 50s41 77 41 131c0 24 -2.66699 46.667 -8 68s-13.5 40 -24.5 56s-25 28.5 -42 37.5s-36.833 13.5 -59.5 13.5z" />
    <glyph glyph-name="f_h" unicode="fh" horiz-adv-x="892" 
d="M413 0l-0.000976562 633.002c-12 3.33301 -25.667 5.83301 -41 7.5s-31.666 2.5 -48.999 2.5c-42.667 0 -73.667 -11 -93 -33s-29 -56.667 -29 -104v-26h137v-73h-137v-407h-90v407h-81v73h81v24c0 72 18.167 125.333 54.5 160s86.833 52 151.5 52
c35.333 0 67.333 -3.33301 96 -10h90v-287c19.333 23.333 41 41 65 53s52 18 84 18c30 0 55.667 -6.33301 77 -19s39 -29.834 53 -51.501s24.167 -46.834 30.5 -75.501s9.5 -59 9.5 -91v-253h-90v250c0 24.667 -2 47.167 -6 67.5s-10.333 37.833 -19 52.5
s-20 26.167 -34 34.5s-31 12.5 -51 12.5c-26.667 0 -50.167 -7 -70.5 -21s-36.5 -28.667 -48.5 -44v-352h-90z" />
    <glyph glyph-name="f_f_h" unicode="ffh" horiz-adv-x="1194" 
d="M715 0v633.002c-12 3.33301 -25.667 5.83301 -41 7.5s-31.666 2.5 -48.999 2.5c-42.667 0 -73.667 -11 -93 -33s-29 -56.667 -29 -104v-26h137v-73h-137v-407h-90v407h-212v-407h-90v407h-81v73h81v25c0 72 16.667 125.167 50 159.5s78.666 51.5 135.999 51.5
c12.667 0 25.5 -0.833008 38.5 -2.5s24.167 -4.16699 33.5 -7.5l-7 -70c-7.33301 2 -15.333 3.66699 -24 5s-19 2 -31 2c-40 0 -67.667 -12 -83 -36s-23 -56.667 -23 -98v-29h212v24c0 72 18.167 125.333 54.5 160s86.833 52 151.5 52c35.333 0 67.333 -3.33301 96 -10h90
v-287c19.333 23.333 41 41 65 53s52 18 84 18c30 0 55.667 -6.33301 77 -19s39 -29.834 53 -51.501s24.167 -46.834 30.5 -75.501s9.5 -59 9.5 -91v-253h-90v250c0 24.667 -2 47.167 -6 67.5s-10.333 37.833 -19 52.5s-20 26.167 -34 34.5s-31 12.5 -51 12.5
c-26.667 0 -50.167 -7 -70.5 -21s-36.5 -28.667 -48.5 -44v-352h-90z" />
    <glyph glyph-name="f_j" unicode="fj" horiz-adv-x="557" 
d="M111 0l-0.000976562 407h-81v73h81v22c0 72.667 17.833 126.5 53.5 161.5s86.834 52.5 153.501 52.5c24 0 46.833 -2 68.5 -6s41.167 -9.66699 58.5 -17l-11 -69c-16 6 -33.667 10.667 -53 14s-39 5 -59 5c-43.333 0 -74.333 -11.167 -93 -33.5s-28 -57.166 -28 -104.499
v-25h286v-362c0 -31.333 -2 -61.333 -6 -90s-10.833 -56.834 -20.5 -84.501s-23 -54.667 -40 -81s-38.5 -52.5 -64.5 -78.5l-62 49c37.333 40.667 63.833 82.667 79.5 126s23.5 91 23.5 143v305h-196v-407h-90z" />
    <glyph glyph-name="f_f_j" unicode="ffj" horiz-adv-x="859" 
d="M413 0v407h-212v-407h-90v407h-81v73h81v25c0 72 16.667 125.167 50 159.5s78.666 51.5 135.999 51.5c12.667 0 25.5 -0.833008 38.5 -2.5s24.167 -4.16699 33.5 -7.5l-7 -70c-7.33301 2 -15.333 3.66699 -24 5s-19 2 -31 2c-40 0 -67.667 -12 -83 -36
s-23 -56.667 -23 -98v-29h212v22c0 72.667 17.833 126.5 53.5 161.5s86.834 52.5 153.501 52.5c24 0 46.833 -2 68.5 -6s41.167 -9.66699 58.5 -17l-11 -69c-16 6 -33.667 10.667 -53 14s-39 5 -59 5c-43.333 0 -74.333 -11.167 -93 -33.5s-28 -57.166 -28 -104.499v-25h286
v-362c0 -31.333 -2 -61.333 -6 -90s-10.833 -56.834 -20.5 -84.501s-23 -54.667 -40 -81s-38.5 -52.5 -64.5 -78.5l-62 49c37.333 40.667 63.833 82.667 79.5 126s23.5 91 23.5 143v305h-196v-407h-90z" />
    <glyph glyph-name="f_k" unicode="fk" horiz-adv-x="834" 
d="M413 0l-0.000976562 633c-12 3.33301 -25.667 5.83301 -41 7.5s-31.666 2.5 -48.999 2.5c-42.667 0 -73.667 -11 -93 -33s-29 -56.667 -29 -104v-26h137v-73h-137v-407h-90v407h-81v73h81v24c0 72 18.167 125.333 54.5 160s86.833 52 151.5 52
c35.333 0 67.333 -3.33301 96 -10h90v-453l192 227h104l-203 -236l220 -244h-109l-204 238v-238h-90z" />
    <glyph glyph-name="f_f_k" unicode="ffk" horiz-adv-x="1136" 
d="M715 0v633c-12 3.33301 -25.667 5.83301 -41 7.5s-31.666 2.5 -48.999 2.5c-42.667 0 -73.667 -11 -93 -33s-29 -56.667 -29 -104v-26h137v-73h-137v-407h-90v407h-212v-407h-90v407h-81v73h81v25c0 72 16.667 125.167 50 159.5s78.666 51.5 135.999 51.5
c12.667 0 25.5 -0.833008 38.5 -2.5s24.167 -4.16699 33.5 -7.5l-7 -70c-7.33301 2 -15.333 3.66699 -24 5s-19 2 -31 2c-40 0 -67.667 -12 -83 -36s-23 -56.667 -23 -98v-29h212v24c0 72 18.167 125.333 54.5 160s86.833 52 151.5 52c35.333 0 67.333 -3.33301 96 -10h90
v-453l192 227h104l-203 -236l220 -244h-109l-204 238v-238h-90z" />
    <glyph glyph-name=".notdef" horiz-adv-x="676" 
d="M105 666h466v-666h-466v666zM182 616l340 -527v527h-340zM154 49h339l-339 527v-527z" />
    <glyph glyph-name="space" unicode=" " horiz-adv-x="215" 
 />
    <glyph glyph-name="exclam" unicode="!" horiz-adv-x="296" 
d="M175 179h-52l-22 281v206h94v-206zM206 51c0 -16 -5.33301 -29.667 -16 -41s-24.667 -17 -42 -17s-31.333 5.66699 -42 17s-16 25 -16 41s5.33301 29.667 16 41s24.667 17 42 17s31.333 -5.66699 42 -17s16 -25 16 -41z" />
    <glyph glyph-name="quotedbl" unicode="&#x22;" horiz-adv-x="417" 
d="M87 429l-12 237h92l-12 -237h-68zM262 429l-12 237h92l-12 -237h-68z" />
    <glyph glyph-name="numbersign" unicode="#" horiz-adv-x="672" 
d="M422 177h-196l-19 -177h-73l19 177h-108v62h114l21 196h-115v62h122l18 169h73l-18 -169h196l18 169h73l-18 -169h103v-62h-110l-20 -196h107v-62h-114l-19 -177h-73zM232 239h197l20 196h-196z" />
    <glyph glyph-name="dollar" unicode="$" horiz-adv-x="495" 
d="M201 -120l0.00488281 121.001c-25.333 2.66699 -50.333 7.5 -75 14.5s-46.667 15.167 -66 24.5l17 70c25.333 -11.333 50.333 -20.5 75 -27.5s50.667 -10.5 78 -10.5c39.333 0 69.5 8.83301 90.5 26.5s31.5 42.834 31.5 75.501c0 16 -3.33301 30.667 -10 44
s-15.834 25.5 -27.501 36.5s-25.167 21.167 -40.5 30.5s-31.333 18.333 -48 27c-19.333 10 -38.333 21.167 -57 33.5s-35.334 26.166 -50.001 41.499s-26.334 32.5 -35.001 51.5s-13 40.167 -13 63.5c0 46 13.667 82.167 41 108.5s61.333 43.166 102 50.499v125h81v-122
c19.333 -1.33301 40.166 -4.5 62.499 -9.5s41.166 -12.167 56.499 -21.5l-17 -70c-44.667 20.667 -89 31 -133 31c-34 0 -60 -7.5 -78 -22.5s-27 -37.167 -27 -66.5c0 -14.667 2.83301 -27.5 8.5 -38.5s13.5 -21 23.5 -30s21.5 -17.667 34.5 -26l41.5 -25.5l51 -30.5
c20 -11.667 39 -25.667 57 -42s33.333 -35.5 46 -57.5s19 -47.667 19 -77c0 -46 -14.333 -83.833 -43 -113.5s-67 -49.5 -115 -59.5v-125h-81z" />
    <glyph glyph-name="percent" unicode="%" horiz-adv-x="911" 
d="M580 678l66 -31l-315 -659l-65 32zM391 483c0 -25.333 -3.66699 -49.666 -11 -72.999s-18 -44 -32 -62s-31.5 -32.333 -52.5 -43s-45.167 -16 -72.5 -16s-51.5 5.33301 -72.5 16s-38.5 25 -52.5 43s-24.667 38.667 -32 62s-11 47.666 -11 72.999
c0 24.667 3.66699 48.834 11 72.501s18 44.5 32 62.5s31.5 32.5 52.5 43.5s45.167 16.5 72.5 16.5s51.5 -5.5 72.5 -16.5s38.5 -25.5 52.5 -43.5s24.667 -38.833 32 -62.5s11 -47.834 11 -72.501zM132 483c0 -17.333 1.66699 -33.833 5 -49.5s8.66602 -29.5 15.999 -41.5
s16.833 -21.5 28.5 -28.5s25.5 -10.5 41.5 -10.5s29.833 3.5 41.5 10.5s21.167 16.5 28.5 28.5s12.666 25.833 15.999 41.5s5 32.167 5 49.5c0 16.667 -1.83301 33 -5.5 49s-9.16699 30 -16.5 42s-16.666 21.667 -27.999 29s-25 11 -41 11s-29.667 -3.66699 -41 -11
s-20.666 -17 -27.999 -29s-12.833 -26 -16.5 -42s-5.5 -32.333 -5.5 -49zM856 182c0 -25.333 -3.66699 -49.666 -11 -72.999s-18 -44 -32 -62s-31.5 -32.333 -52.5 -43s-45.167 -16 -72.5 -16s-51.5 5.33301 -72.5 16s-38.5 25 -52.5 43s-24.667 38.667 -32 62
s-11 47.666 -11 72.999c0 24.667 3.66699 48.834 11 72.501s18 44.5 32 62.5s31.5 32.5 52.5 43.5s45.167 16.5 72.5 16.5s51.5 -5.5 72.5 -16.5s38.5 -25.5 52.5 -43.5s24.667 -38.833 32 -62.5s11 -47.834 11 -72.501zM597 182c0 -17.333 1.66699 -33.833 5 -49.5
s8.66602 -29.5 15.999 -41.5s16.833 -21.5 28.5 -28.5s25.5 -10.5 41.5 -10.5s29.833 3.5 41.5 10.5s21.167 16.5 28.5 28.5s12.666 25.833 15.999 41.5s5 32.167 5 49.5c0 16.667 -1.83301 33 -5.5 49s-9.16699 30 -16.5 42s-16.666 21.667 -27.999 29s-25 11 -41 11
s-29.667 -3.66699 -41 -11s-20.666 -17 -27.999 -29s-12.833 -26 -16.5 -42s-5.5 -32.333 -5.5 -49z" />
    <glyph glyph-name="ampersand" unicode="&#x26;" horiz-adv-x="740" 
d="M653 359l-24.9951 -53.4971c-8.66699 -18.333 -17.834 -36.333 -27.501 -54s-19.5 -34.334 -29.5 -50.001s-20 -29.5 -30 -41.5l86.5 -53.5l87.5 -52.5l-40 -66c-28 16 -57.333 33.833 -88 53.5l-92 61.5c-32 -34 -68.167 -61.667 -108.5 -83s-85.833 -32 -136.5 -32
c-60.667 0 -108.334 14 -143.001 42s-52 64.667 -52 110c0 22.667 4.16699 43.5 12.5 62.5s19 36.167 32 51.5s27.167 29.166 42.5 41.499s30.333 23.5 45 33.5c-27.333 24 -50.833 51.167 -70.5 81.5s-29.5 63.5 -29.5 99.5c0 51.333 16.167 92.166 48.5 122.499
s77.166 45.5 134.499 45.5c23.333 0 45.166 -3.33301 65.499 -10s38 -16.167 53 -28.5s26.667 -27 35 -44s12.5 -35.833 12.5 -56.5c0 -23.333 -4.5 -45 -13.5 -65s-20.333 -38.5 -34 -55.5s-28.834 -32.5 -45.501 -46.5s-32.667 -26.667 -48 -38l85.5 -66
c29 -21.333 63.167 -44.333 102.5 -69c21.333 28 39.833 57.5 55.5 88.5s32.167 65.5 49.5 103.5zM249.005 53.0029c38 0 72.501 8.16992 103.501 24.5029s59.167 38.166 84.5 65.499c-34 21.333 -68.833 44.666 -104.5 69.999s-66.834 49.666 -93.501 72.999l-36 -29
c-12 -10 -22.833 -20.833 -32.5 -32.5s-17.5 -24 -23.5 -37s-9 -27.5 -9 -43.5c0 -28.667 9.5 -51 28.5 -67s46.5 -24 82.5 -24zM164.006 510.006c0 -28.667 8 -54.168 24 -76.501s34.667 -42.5 56 -60.5l41 31.5c14 11 26.5 23.167 37.5 36.5s20 27.833 27 43.5
s10.5 32.5 10.5 50.5c0 25.333 -9 45 -27 59s-40.333 21 -67 21c-32 0 -57 -9.16699 -75 -27.5s-27 -44.166 -27 -77.499z" />
    <glyph glyph-name="quotesingle" unicode="'" horiz-adv-x="242" 
d="M87 429l-12 237h92l-12 -237h-68z" />
    <glyph glyph-name="parenleft" unicode="(" horiz-adv-x="337" 
d="M165 280c0 -34.667 2 -69 6 -103s10.667 -68.667 20 -104s21.5 -71.5 36.5 -108.5s33.167 -75.5 54.5 -115.5l-66 -35c-45.333 73.333 -80.166 148 -104.499 224s-36.5 156.667 -36.5 242s12.167 166 36.5 242s59.166 150.667 104.499 224l66 -35
c-21.333 -40 -39.5 -78.5 -54.5 -115.5s-27.167 -73.167 -36.5 -108.5s-16 -70 -20 -104s-6 -68.333 -6 -103z" />
    <glyph glyph-name="parenright" unicode=")" horiz-adv-x="337" 
d="M172 280c0 34.667 -2 69 -6 103s-10.667 68.667 -20 104s-21.5 71.5 -36.5 108.5s-33.167 75.5 -54.5 115.5l66 35c45.333 -73.333 80.166 -148 104.499 -224s36.5 -156.667 36.5 -242s-12.167 -166 -36.5 -242s-59.166 -150.667 -104.499 -224l-66 35
c21.333 40 39.5 78.5 54.5 115.5s27.167 73.167 36.5 108.5s16 70 20 104s6 68.333 6 103z" />
    <glyph glyph-name="asterisk" unicode="*" horiz-adv-x="408" 
d="M226 509v-121h-44v121l-105 -60l-22 38l105 60l-105 60l22 38l105 -61v122h44v-122l105 61l22 -38l-105 -60l105 -60l-22 -38z" />
    <glyph glyph-name="plus" unicode="+" horiz-adv-x="606" 
d="M342 289v-204h-78v204h-192v68h192v204h78v-204h192v-68h-192z" />
    <glyph glyph-name="comma" unicode="," horiz-adv-x="260" 
d="M40 -129c19.333 38 34.333 76.167 45 114.5s16.667 78.833 18 121.5l87 -9c-2 -44 -10.833 -88.5 -26.5 -133.5s-37.167 -86.833 -64.5 -125.5z" />
    <glyph glyph-name="hyphen" unicode="-" horiz-adv-x="355" 
d="M55 220v75h245v-75h-245z" />
    <glyph glyph-name="period" unicode="." horiz-adv-x="256" 
d="M186 51c0 -16 -5.33301 -29.667 -16 -41s-24.667 -17 -42 -17s-31.333 5.66699 -42 17s-16 25 -16 41s5.33301 29.667 16 41s24.667 17 42 17s31.333 -5.66699 42 -17s16 -25 16 -41z" />
    <glyph glyph-name="slash" unicode="/" horiz-adv-x="418" 
d="M298 692l75 -26l-252 -766l-76 24z" />
    <glyph glyph-name="zero" unicode="0" horiz-adv-x="592" 
d="M540 333c0 -49.333 -4.83301 -95 -14.5 -137s-24.5 -78.333 -44.5 -109s-45.333 -54.834 -76 -72.501s-67 -26.5 -109 -26.5s-78.333 8.83301 -109 26.5s-56 41.834 -76 72.501s-34.833 67 -44.5 109s-14.5 87.667 -14.5 137c0 48.667 4.83301 94.167 14.5 136.5
s24.5 78.833 44.5 109.5s45.333 54.834 76 72.501s67 26.5 109 26.5s78.333 -8.83301 109 -26.5s56 -41.834 76 -72.501s34.833 -67.167 44.5 -109.5s14.5 -87.833 14.5 -136.5zM296 62c28 0 51.667 6.66699 71 20s35 32 47 56s20.833 52.667 26.5 86
s8.5 69.666 8.5 108.999s-2.83301 75.666 -8.5 108.999s-14.5 62 -26.5 86s-27.667 42.667 -47 56s-43 20 -71 20s-51.667 -6.66699 -71 -20s-35 -32 -47 -56s-20.833 -52.667 -26.5 -86s-8.5 -69.666 -8.5 -108.999s2.83301 -75.666 8.5 -108.999s14.5 -62 26.5 -86
s27.667 -42.667 47 -56s43 -20 71 -20z" />
    <glyph glyph-name="one" unicode="1" horiz-adv-x="351" 
d="M175 0v570l-129 -53l-26 71l187 78h59v-666h-91z" />
    <glyph glyph-name="two" unicode="2" horiz-adv-x="475" 
d="M62 639c21.333 13.333 45.168 23.165 71.501 29.498s53.5 9.5 81.5 9.5c30.667 0 58.667 -4.66699 84 -14s47 -22.666 65 -39.999s31.833 -38.166 41.5 -62.499s14.5 -51.5 14.5 -81.5c0 -28 -3.5 -54 -10.5 -78s-17 -47.167 -30 -69.5s-28.833 -44.5 -47.5 -66.5
s-39.334 -44.667 -62.001 -68l-35 -35.5l-31 -30l-30.5 -28.5l-33.5 -30h290v-74h-393l-11 55l103 105.5l88 94.5c34 37.333 61.167 73.333 81.5 108s30.5 72.334 30.5 113.001c0 40 -11 71.167 -33 93.5s-52 33.5 -90 33.5c-21.333 0 -42.333 -2.83301 -63 -8.5
s-40.667 -13.834 -60 -24.501z" />
    <glyph glyph-name="three" unicode="3" horiz-adv-x="486" 
d="M428 176c0 -28.667 -5.50195 -54.6699 -16.502 -78.0029s-26.333 -43.166 -46 -59.499s-43 -28.833 -70 -37.5s-56.5 -13 -88.5 -13c-13.333 0 -27.166 0.833008 -41.499 2.5s-28.5 4 -42.5 7s-27.667 6.5 -41 10.5s-25.333 8.33301 -36 13l18 73
c22 -10 44.5 -17.833 67.5 -23.5s46.167 -8.5 69.5 -8.5c45.333 0 79.333 10.333 102 31s34 47 34 79c0 24 -5 44.333 -15 61s-23.5 30.167 -40.5 40.5s-36.667 18 -59 23s-45.833 7.5 -70.5 7.5h-39v74h36c24 0 46.667 3 68 9s39.833 14.5 55.5 25.5s28.167 24.5 37.5 40.5
s14 34 14 54c0 32 -10.167 56.167 -30.5 72.5s-47.5 24.5 -81.5 24.5c-21.333 0 -41.666 -2.16699 -60.999 -6.5s-40.666 -11.833 -63.999 -22.5l-18 69c23.333 12.667 47.666 21.5 72.999 26.5s52.333 7.5 81 7.5c28 0 53.667 -3.83301 77 -11.5s43.5 -18.5 60.5 -32.5
s30.333 -30.667 40 -50s14.5 -41 14.5 -65c0 -40.667 -12 -75.334 -36 -104.001s-57 -51.667 -99 -69c20.667 -5.33301 40 -13.166 58 -23.499s33.667 -22.666 47 -36.999s23.833 -30.666 31.5 -48.999s11.5 -38.5 11.5 -60.5z" />
    <glyph glyph-name="four" unicode="4" horiz-adv-x="536" 
d="M411 192v-192h-87v192h-277l-12 70l276 404h100v-401h90v-73h-90zM324 566l-200 -301h200v301z" />
    <glyph glyph-name="five" unicode="5" horiz-adv-x="509" 
d="M459 188c0 -30 -6 -57.332 -18 -81.999s-28.667 -45.667 -50 -63s-46.5 -30.833 -75.5 -40.5s-60.5 -14.5 -94.5 -14.5c-27.333 0 -56.166 2.66699 -86.499 8s-55.166 12 -74.499 20l15 72c21.333 -8.66699 44.333 -15.334 69 -20.001s49.667 -7 75 -7
c22 0 42.167 2.66699 60.5 8s34.166 13.166 47.499 23.499s23.666 22.833 30.999 37.5s11 31.667 11 51c0 22 -4.66699 41.333 -14 58s-22.166 30.334 -38.499 41.001s-36 18.667 -59 24s-47.833 8 -74.5 8h-98v354h345v-74h-254v-207h32c32 0 63.167 -4 93.5 -12
s57.166 -20 80.499 -36s42 -36.333 56 -61s21 -54 21 -88z" />
    <glyph glyph-name="six" unicode="6" horiz-adv-x="547" 
d="M414 614c-34 -17.333 -65.833 -35.332 -95.5 -53.999s-56.167 -39.667 -79.5 -63s-43.166 -49.5 -59.499 -78.5s-28.166 -62.5 -35.499 -100.5c19.333 23.333 42 41.166 68 53.499s56.333 18.5 91 18.5c29.333 0 56 -4.83301 80 -14.5s44.667 -23.167 62 -40.5
s30.666 -37.833 39.999 -61.5s14 -49.5 14 -77.5c0 -31.333 -5.83301 -59.833 -17.5 -85.5s-27.334 -47.5 -47.001 -65.5s-42.667 -32 -69 -42s-54.166 -15 -83.499 -15c-38 0 -71.333 7.83301 -100 23.5s-52.334 35.834 -71.001 60.501s-32.667 52.334 -42 83.001
s-14 61.334 -14 92.001c0 51.333 7.83301 98.666 23.5 141.999s37.667 82.666 66 117.999s62.5 67.166 102.5 95.499s84.333 53.5 133 75.5zM411 197.001c0 38.667 -10.833 68.166 -32.5 88.499s-51.834 30.5 -90.501 30.5c-29.333 0 -56.833 -6.83301 -82.5 -20.5
s-46.5 -29.834 -62.5 -48.501c-1.33301 -23.333 0.666992 -46.166 6 -68.499s13.833 -42.166 25.5 -59.499s26.334 -31.5 44.001 -42.5s38.5 -16.5 62.5 -16.5c41.333 0 73.333 13.167 96 39.5s34 58.833 34 97.5z" />
    <glyph glyph-name="seven" unicode="7" horiz-adv-x="454" 
d="M418 593l-264 -593h-91l269 592h-300v74h373z" />
    <glyph glyph-name="eight" unicode="8" horiz-adv-x="542" 
d="M271 678c26 0 50.835 -3.33691 74.502 -10.0039s44.167 -16.5 61.5 -29.5s31.166 -29 41.499 -48s15.5 -40.5 15.5 -64.5c0 -19.333 -3.66699 -37.166 -11 -53.499s-17 -31.5 -29 -45.5s-25.833 -27.333 -41.5 -40s-31.834 -24.334 -48.501 -35.001
c20.667 -12 40.167 -24.667 58.5 -38s34 -27.666 47 -42.999s23.333 -32.166 31 -50.499s11.5 -38.5 11.5 -60.5c0 -25.333 -5.66699 -48.666 -17 -69.999s-26.833 -39.5 -46.5 -54.5s-42.167 -26.667 -67.5 -35s-52 -12.5 -80 -12.5c-30 0 -57.833 3.83301 -83.5 11.5
s-48 18.667 -67 33s-33.833 32 -44.5 53s-16 44.833 -16 71.5c0 22 4.5 42.5 13.5 61.5s20.5 36.333 34.5 52s29.833 30 47.5 43s35.167 24.5 52.5 34.5c-18 10.667 -34.833 22 -50.5 34s-29.5 25.333 -41.5 40s-21.333 30.334 -28 47.001s-10 34.667 -10 54
c0 24 5 45.5 15 64.5s23.833 35.333 41.5 49s38.167 24 61.5 31s48.333 10.5 75 10.5zM395.002 158.996c0 16.667 -2.83496 31.499 -8.50195 44.499s-13.667 25.167 -24 36.5s-23.166 22.333 -38.499 33s-33 22 -53 34l-48.5 -34c-15 -10.667 -28.167 -21.834 -39.5 -33.501
s-20.166 -24.167 -26.499 -37.5s-9.5 -28.666 -9.5 -45.999c0 -31.333 11.167 -55.666 33.5 -72.999s52.5 -26 90.5 -26c36.667 0 66.5 9.5 89.5 28.5s34.5 43.5 34.5 73.5zM164 523.995c0 -29.333 9 -53.332 27 -71.999s44.667 -38.334 80 -59.001
c30.667 20.667 56.167 41 76.5 61s30.5 43.333 30.5 70c0 24.667 -9.33301 45 -28 61s-45 24 -79 24s-60.333 -8.16699 -79 -24.5s-28 -36.5 -28 -60.5z" />
    <glyph glyph-name="nine" unicode="9" horiz-adv-x="547" 
d="M131 52c34 16.667 65.6699 34.5 95.0029 53.5s55.833 40.167 79.5 63.5s43.667 49.5 60 78.5s28.166 62.5 35.499 100.5c-18 -22 -40.333 -39.5 -67 -52.5s-57.334 -19.5 -92.001 -19.5c-29.333 0 -56 4.83301 -80 14.5s-44.667 23.167 -62 40.5
s-30.666 37.833 -39.999 61.5s-14 49.5 -14 77.5c0 31.333 5.5 59.833 16.5 85.5s26.333 47.5 46 65.5s42.667 32 69 42s54.833 15 85.5 15c38 0 71.333 -7.83301 100 -23.5s52.334 -35.834 71.001 -60.501s32.667 -52.334 42 -83.001s14 -61.334 14 -92.001
c0 -51.333 -7.83301 -98.666 -23.5 -141.999s-37.834 -82.666 -66.501 -117.999s-62.834 -67.166 -102.501 -95.499s-83.834 -53.5 -132.501 -75.5zM134.003 469c0 -38.667 10.833 -68.167 32.5 -88.5s51.834 -30.5 90.501 -30.5c29.333 0 56.5 6.66699 81.5 20
s46.167 29.666 63.5 48.999c0.666992 22.667 -1.5 45.334 -6.5 68.001s-13.333 42.667 -25 60s-26.334 31.5 -44.001 42.5s-38.5 16.5 -62.5 16.5c-42.667 0 -75 -13.167 -97 -39.5s-33 -58.833 -33 -97.5z" />
    <glyph glyph-name="colon" unicode=":" horiz-adv-x="256" 
d="M186 51c0 -16 -5.33301 -29.667 -16 -41s-24.667 -17 -42 -17s-31.333 5.66699 -42 17s-16 25 -16 41s5.33301 29.667 16 41s24.667 17 42 17s31.333 -5.66699 42 -17s16 -25 16 -41zM186 364c0 -16 -5.33301 -29.667 -16 -41s-24.667 -17 -42 -17
s-31.333 5.66699 -42 17s-16 25 -16 41s5.33301 29.667 16 41s24.667 17 42 17s31.333 -5.66699 42 -17s16 -25 16 -41z" />
    <glyph glyph-name="semicolon" unicode=";" horiz-adv-x="254" 
d="M194 364c0 -16 -5.33301 -29.667 -16 -41s-24.667 -17 -42 -17s-31.333 5.66699 -42 17s-16 25 -16 41s5.33301 29.667 16 41s24.667 17 42 17s31.333 -5.66699 42 -17s16 -25 16 -41zM28 -129c19.333 38 34.333 76.167 45 114.5s16.667 78.833 18 121.5l87 -9
c-2 -44 -10.833 -88.5 -26.5 -133.5s-37.167 -86.833 -64.5 -125.5z" />
    <glyph glyph-name="less" unicode="&#x3c;" horiz-adv-x="587" 
d="M496 571l31 -64l-385 -184l385 -184l-31 -64l-431 215v66z" />
    <glyph glyph-name="equal" unicode="=" horiz-adv-x="616" 
d="M82 463h452v-68h-452v68zM82 252h452v-68h-452v68z" />
    <glyph glyph-name="greater" unicode="&#x3e;" horiz-adv-x="587" 
d="M522 356v-66l-431 -215l-31 64l385 184l-385 184l31 64z" />
    <glyph glyph-name="question" unicode="?" horiz-adv-x="457" 
d="M402 503c0 -33.333 -7.16797 -63.501 -21.501 -90.501s-33.166 -52.333 -56.499 -76s-50 -46.167 -80 -67.5l-92 -65l-44 60l79 57.5c24.667 18.333 46.167 36.833 64.5 55.5s33 38 44 58s16.5 41.667 16.5 65c0 33.333 -10.333 58.833 -31 76.5s-47 26.5 -79 26.5
c-24 0 -46.667 -3.16699 -68 -9.5s-41.333 -15.166 -60 -26.499l-24 70c25.333 15.333 51.333 26 78 32s54.334 9 83.001 9c26 0 50.5 -3.66699 73.5 -11s43.167 -18.333 60.5 -33s31.166 -33 41.499 -55s15.5 -47.333 15.5 -76zM221.999 50.999
c0 -16 -5.33301 -29.667 -16 -41s-24.667 -17 -42 -17s-31.333 5.66699 -42 17s-16 25 -16 41s5.33301 29.667 16 41s24.667 17 42 17s31.333 -5.66699 42 -17s16 -25 16 -41z" />
    <glyph glyph-name="at" unicode="@" horiz-adv-x="813" 
d="M445 398c19.333 0 38.6602 -2.50098 57.9932 -7.50098s36.333 -11.5 51 -19.5l-26 -149c-2 -10 -3 -19.333 -3 -28c0 -19.333 4.33301 -34.666 13 -45.999s22.667 -17 42 -17c16 0 31.333 4.5 46 13.5s27.334 21.5 38.001 37.5s19.167 34.667 25.5 56s9.5 44.333 9.5 69
c0 34 -6.5 64.833 -19.5 92.5s-31 51 -54 70s-50.333 33.667 -82 44s-66.5 15.5 -104.5 15.5c-45.333 0 -87.166 -7.5 -125.499 -22.5s-71.5 -36.333 -99.5 -64s-50 -61.167 -66 -100.5s-24 -83.333 -24 -132c0 -86.667 25.167 -154.167 75.5 -202.5
s121.5 -72.5 213.5 -72.5c46 0 88.333 5.16699 127 15.5s78 24.833 118 43.5l18 -51c-18.667 -10 -39 -18.833 -61 -26.5s-44.667 -14.167 -68 -19.5s-46.666 -9.33301 -69.999 -12s-45.666 -4 -66.999 -4c-56 0 -105.667 8.16699 -149 24.5s-79.833 39 -109.5 68
s-52.334 63.5 -68.001 103.5s-23.5 83.667 -23.5 131c0 56 9.66699 107.167 29 153.5s46 85.833 80 118.5s74.333 58 121 76s97.334 27 152.001 27c48.667 0 92.834 -7.16699 132.501 -21.5s73.167 -33.833 100.5 -58.5s48.5 -53.667 63.5 -87s22.5 -69 22.5 -107
c0 -32 -4.66699 -61.833 -14 -89.5s-22.166 -51.667 -38.499 -72s-36 -36.5 -59 -48.5s-48.167 -18 -75.5 -18c-34 0 -60.167 9.33301 -78.5 28s-28.166 40.667 -29.499 66c-14 -26 -31.333 -47.167 -52 -63.5s-42.667 -24.5 -66 -24.5c-14.667 0 -27.167 3 -37.5 9
s-18.666 14 -24.999 24s-11 21.5 -14 34.5s-4.5 26.5 -4.5 40.5c0 26 3.66699 51.167 11 75.5s18.5 46 33.5 65s33.667 34.167 56 45.5s48.166 17 77.499 17zM440.994 342.999c-18 0 -33.668 -4.33496 -47.001 -13.002s-24.5 -20 -33.5 -34s-15.667 -29.667 -20 -47
s-6.5 -34.666 -6.5 -51.999c0 -15.333 2.5 -28.333 7.5 -39s13.5 -16 25.5 -16c8.66699 0 17.334 2.83301 26.001 8.5s17.167 13.334 25.5 23.001s16.333 20.5 24 32.5s14.5 24.333 20.5 37l17 95c-12 3.33301 -25 5 -39 5z" />
    <glyph glyph-name="A" unicode="A" horiz-adv-x="676" 
d="M648 0h-94l-61 161h-311l-60 -161h-94l265 666h90zM210 235h256l-128 347z" />
    <glyph glyph-name="B" unicode="B" horiz-adv-x="569" 
d="M526 186c0 -27.333 -6.16504 -52.501 -18.498 -75.501s-29.833 -42.667 -52.5 -59s-49.834 -29 -81.501 -38s-66.834 -13.5 -105.501 -13.5h-188v666h206c32 0 61.333 -3.83301 88 -11.5s49.5 -18.667 68.5 -33s33.667 -31.5 44 -51.5s15.5 -42 15.5 -66
c0 -38.667 -12.833 -71.167 -38.5 -97.5s-58.5 -46.166 -98.5 -59.499c49.333 -9.33301 88.5 -27.5 117.5 -54.5s43.5 -62.5 43.5 -106.5zM438.002 188.999c0 20 -4.66699 37.498 -14 52.498s-22 27.333 -38 37s-34.667 16.834 -56 21.501s-44 7 -68 7h-94v-235h106
c50 0 89.833 9.83301 119.5 29.5s44.5 48.834 44.5 87.501zM253.002 378.997c22.667 0 43.833 2.66699 63.5 8s36.667 13 51 23s25.5 22 33.5 36s12 30 12 48c0 33.333 -12.5 58.333 -37.5 75s-57.5 25 -97.5 25h-110v-215h85z" />
    <glyph glyph-name="C" unicode="C" horiz-adv-x="610" 
d="M389 678c30 0 61.333 -2.83105 94 -8.49805s60 -13.167 82 -22.5l-15 -71c-22.667 8 -47 14.5 -73 19.5s-51.667 7.5 -77 7.5c-83.333 0 -148.333 -23.333 -195 -70s-70 -113.334 -70 -200.001s23.333 -153.334 70 -200.001s111.667 -70 195 -70c25.333 0 51 2.5 77 7.5
s50.333 11.5 73 19.5l15 -71c-22 -9.33301 -49.333 -16.833 -82 -22.5s-64 -8.5 -94 -8.5c-54.667 0 -103.5 8.66699 -146.5 26s-79.167 41.333 -108.5 72s-51.833 67 -67.5 109s-23.5 88 -23.5 138s7.83301 96 23.5 138s38.167 78.333 67.5 109s65.5 54.667 108.5 72
s91.833 26 146.5 26z" />
    <glyph glyph-name="D" unicode="D" horiz-adv-x="683" 
d="M80 666l185 0.00390625c57.333 0 109.333 -8.33301 156 -25s86.667 -39.834 120 -69.501s59 -64.834 77 -105.501s27 -85 27 -133s-9 -92.333 -27 -133s-43.667 -75.834 -77 -105.501s-73.333 -52.834 -120 -69.501s-98.667 -25 -156 -25h-185v666zM265 74.0039
c40 0 77.5 5.83301 112.5 17.5s65.5 28.5 91.5 50.5s46.5 49 61.5 81s22.5 68.667 22.5 110c0 40.667 -7.5 77.167 -22.5 109.5s-35.5 59.5 -61.5 81.5s-56.5 38.833 -91.5 50.5s-72.5 17.5 -112.5 17.5h-93v-518h93z" />
    <glyph glyph-name="E" unicode="E" horiz-adv-x="510" 
d="M80 666h371v-75h-279v-213h267v-75h-267v-228h282v-75h-374v666z" />
    <glyph glyph-name="F" unicode="F" horiz-adv-x="495" 
d="M80 0v666h375v-75h-283v-228h271v-75h-271v-288h-92z" />
    <glyph glyph-name="G" unicode="G" horiz-adv-x="677" 
d="M400 678c37.333 0 72.998 -3.16797 106.998 -9.50098s64.667 -16.166 92 -29.499l-15 -73c-28.667 11.333 -58.5 20.333 -89.5 27s-62.167 10 -93.5 10c-82.667 0 -147.667 -24.167 -195 -72.5s-71 -116.833 -71 -205.5c0 -85.333 22.333 -150.833 67 -196.5
s111.667 -68.5 201 -68.5c21.333 0 42.833 1.5 64.5 4.5s40.167 6.83301 55.5 11.5v217h84v-268c-25.333 -10.667 -57.666 -19.5 -96.999 -26.5s-78.666 -10.5 -117.999 -10.5c-54.667 0 -103.667 8.16699 -147 24.5s-80 39.333 -110 69s-52.833 65.167 -68.5 106.5
s-23.5 87 -23.5 137c0 52 8.16699 99.667 24.5 143s39.833 80.5 70.5 111.5s68 55.167 112 72.5s94 26 150 26z" />
    <glyph glyph-name="H" unicode="H" horiz-adv-x="685" 
d="M513 0v299h-341v-299h-92v666h92v-289h341v289h92v-666h-92z" />
    <glyph glyph-name="I" unicode="I" horiz-adv-x="262" 
d="M177 0h-92v666h92v-666z" />
    <glyph glyph-name="J" unicode="J" horiz-adv-x="250" 
d="M175 152c-0.666992 -28.667 -2.5 -55.832 -5.5 -81.499s-9 -51 -18 -76s-21.333 -50 -37 -75s-36.167 -50.833 -61.5 -77.5l-64 51c34.667 39.333 59 78.166 73 116.499s21 80.833 21 127.5v529h92v-514v0z" />
    <glyph glyph-name="K" unicode="K" horiz-adv-x="585" 
d="M80 0v666h92v-323l278 323h111l-287 -330l306 -336h-116l-292 330v-330h-92z" />
    <glyph glyph-name="L" unicode="L" horiz-adv-x="472" 
d="M172 666v-591h278v-75h-370v666h92z" />
    <glyph glyph-name="M" unicode="M" horiz-adv-x="846" 
d="M651 666h83l48 -666h-88l-32 519l-192 -399h-94l-192 399l-32 -519h-88l48 666h83l228 -471z" />
    <glyph glyph-name="N" unicode="N" horiz-adv-x="709" 
d="M541 0l-373 523v-523h-88v666h88l373 -523v523h88v-666h-88z" />
    <glyph glyph-name="O" unicode="O" horiz-adv-x="740" 
d="M370 -12c-52 0 -98.333 9.33301 -139 28s-74.667 43.667 -102 75s-48.166 68 -62.499 110s-21.5 86 -21.5 132s7.16699 90 21.5 132s35.166 78.667 62.499 110s61.333 56.333 102 75s87 28 139 28s98.333 -9.33301 139 -28s74.667 -43.667 102 -75
s48.166 -68 62.499 -110s21.5 -86 21.5 -132s-7.16699 -90 -21.5 -132s-35.166 -78.667 -62.499 -110s-61.333 -56.333 -102 -75s-87 -28 -139 -28zM370 62c38 0 71.667 7 101 21s53.666 33.333 72.999 58s34 53.5 44 86.5s15 68.167 15 105.5s-5 72.5 -15 105.5
s-24.667 61.667 -44 86s-43.666 43.666 -72.999 57.999s-63 21.5 -101 21.5s-71.667 -7.16699 -101 -21.5s-53.666 -33.666 -72.999 -57.999s-34 -53 -44 -86s-15 -68.167 -15 -105.5s5 -72.5 15 -105.5s24.667 -61.833 44 -86.5s43.666 -44 72.999 -58s63 -21 101 -21z" />
    <glyph glyph-name="P" unicode="P" horiz-adv-x="508" 
d="M496 471c0 -32 -7 -60.834 -21 -86.501s-33.5 -47.5 -58.5 -65.5s-54.5 -31.833 -88.5 -41.5s-70.667 -14.5 -110 -14.5h-46v-263h-92v666h161c36 0 69.5 -4 100.5 -12s58 -20.167 81 -36.5s41 -36.666 54 -60.999s19.5 -52.833 19.5 -85.5zM404 471.999
c0 22 -4.33203 40.499 -12.999 55.499s-20.5 27.333 -35.5 37s-32.667 16.667 -53 21s-41.833 6.5 -64.5 6.5h-66v-255h49c26.667 0 51.167 3 73.5 9s41.666 14.833 57.999 26.5s29 25.834 38 42.501s13.5 35.667 13.5 57z" />
    <glyph glyph-name="Q" unicode="Q" horiz-adv-x="740" 
d="M370 -12c-52 0 -98.333 9.33203 -139 27.999s-74.667 43.667 -102 75s-48.166 68 -62.499 110s-21.5 86 -21.5 132s7.16699 90 21.5 132s35.166 78.667 62.499 110s61.333 56.333 102 75s87 28 139 28s98.333 -9.33301 139 -28s74.667 -43.667 102 -75
s48.166 -68 62.499 -110s21.5 -86 21.5 -132c0 -33.333 -3.66699 -65.666 -11 -96.999s-18.333 -60.5 -33 -87.5s-32.667 -51.333 -54 -73s-46 -39.5 -74 -53.5l165 -104l-43 -68l-220 142c-8.66699 -1.33301 -17.667 -2.33301 -27 -3s-18.666 -1 -27.999 -1zM370 61.999
c38 0 71.667 7 101 21s53.666 33.333 72.999 58s34 53.5 44 86.5s15 68.167 15 105.5s-5 72.5 -15 105.5s-24.667 61.667 -44 86s-43.666 43.666 -72.999 57.999s-63 21.5 -101 21.5s-71.667 -7.16699 -101 -21.5s-53.666 -33.666 -72.999 -57.999s-34 -53 -44 -86
s-15 -68.167 -15 -105.5s5 -72.5 15 -105.5s24.667 -61.833 44 -86.5s43.666 -44 72.999 -58s63 -21 101 -21z" />
    <glyph glyph-name="R" unicode="R" horiz-adv-x="584" 
d="M172 0l-91.999 0.00195312v666h173c36 0 69.5 -4 100.5 -12s58.167 -19.833 81.5 -35.5s41.666 -35.334 54.999 -59.001s20 -50.834 20 -81.501c0 -46 -14.833 -86 -44.5 -120s-71.167 -58.667 -124.5 -74l235 -284h-113l-217 268
c-3.33301 0 -8.33301 -0.166992 -15 -0.5s-13.667 -0.5 -21 -0.5h-21.5h-16.5v-267zM418.001 476.002c0 20.667 -4.5 38.5 -13.5 53.5s-21.167 27 -36.5 36s-33 15.667 -53 20s-41 6.5 -63 6.5h-80v-251h46c28 0 54.167 2.66699 78.5 8s45.5 13.5 63.5 24.5
s32.167 25 42.5 42s15.5 37.167 15.5 60.5z" />
    <glyph glyph-name="S" unicode="S" horiz-adv-x="501" 
d="M464 173c0 -28.667 -6.16895 -54.334 -18.502 -77.001s-29 -42 -50 -58s-45.667 -28.333 -74 -37s-58.833 -13 -91.5 -13c-32 0 -64.833 3.33301 -98.5 10s-64.5 16.667 -92.5 30l18 73c24.667 -11.333 51.834 -20.666 81.501 -27.999s59.5 -11 89.5 -11
c43.333 0 78.333 9.16699 105 27.5s40 44.833 40 79.5c0 19.333 -3.83301 35.833 -11.5 49.5s-18.167 26 -31.5 37s-28.833 20.833 -46.5 29.5l-56.5 27c-22.667 10.667 -44.5 21.834 -65.5 33.501s-39.5 25 -55.5 40s-28.833 32 -38.5 51s-14.5 41.167 -14.5 66.5
c0 28.667 5.16699 54 15.5 76s24.833 40.333 43.5 55s41 25.667 67 33s54.667 11 86 11c32 0 63.167 -3.66699 93.5 -11s56.833 -17 79.5 -29l-17 -73c-21.333 11.333 -45.666 20.666 -72.999 27.999s-55 11 -83 11c-80.667 0 -121 -31.333 -121 -94
c0 -14 2 -26.167 6 -36.5s10.5 -20 19.5 -29s21 -17.667 36 -26s33.167 -17.833 54.5 -28.5l68 -34.5c24 -12.333 46 -27 66 -44s36.667 -36.833 50 -59.5s20 -49 20 -79z" />
    <glyph glyph-name="T" unicode="T" horiz-adv-x="528" 
d="M506 666v-75h-196v-591h-92v591h-196v75h484z" />
    <glyph glyph-name="U" unicode="U" horiz-adv-x="674" 
d="M506 666h92v-430c0 -34.667 -5.66699 -67.167 -17 -97.5s-28 -56.666 -50 -78.999s-49.167 -39.833 -81.5 -52.5s-69.833 -19 -112.5 -19s-80.167 6.33301 -112.5 19s-59.5 30.167 -81.5 52.5s-38.667 48.666 -50 78.999s-17 62.833 -17 97.5v430h92v-434
c0 -50 14.167 -90.667 42.5 -122s70.5 -47 126.5 -47s98.167 15.667 126.5 47s42.5 72 42.5 122v434z" />
    <glyph glyph-name="V" unicode="V" horiz-adv-x="594" 
d="M492 666h92l-239 -666h-96l-239 666h92l195 -557z" />
    <glyph glyph-name="W" unicode="W" horiz-adv-x="944" 
d="M684 121l147 545h89l-190 -666h-91l-167 578l-167 -578h-91l-190 666h89l147 -545l160 545h104z" />
    <glyph glyph-name="X" unicode="X" horiz-adv-x="596" 
d="M298 263l-173 -263h-97l222 335l-219 331h97l170 -258l170 258h97l-219 -331l222 -335h-97z" />
    <glyph glyph-name="Y" unicode="Y" horiz-adv-x="540" 
d="M437 666h98l-219 -403v-263h-92v263l-219 403h98l167 -318z" />
    <glyph glyph-name="Z" unicode="Z" horiz-adv-x="540" 
d="M63 666h430v-74l-345 -518h352v-74h-450v74l345 518h-332v74z" />
    <glyph glyph-name="bracketleft" unicode="[" horiz-adv-x="358" 
d="M100 -176v912h198v-73h-108v-766h108v-73h-198z" />
    <glyph glyph-name="backslash" unicode="\" horiz-adv-x="419" 
d="M374 -76l-77 -24l-252 766l76 26z" />
    <glyph glyph-name="bracketright" unicode="]" horiz-adv-x="358" 
d="M60 -176v73h108v766h-108v73h198v-912h-198z" />
    <glyph glyph-name="asciicircum" unicode="^" horiz-adv-x="510" 
d="M450 348l-69 -32l-126 277l-126 -277l-69 32l155 318h80z" />
    <glyph glyph-name="underscore" unicode="_" horiz-adv-x="415" 
d="M-3 -250v49h421v-49h-421z" />
    <glyph glyph-name="grave" unicode="`" horiz-adv-x="404" 
d="M213 555l-98 160h100l74 -160h-76z" />
    <glyph glyph-name="a" unicode="a" horiz-adv-x="501" 
d="M345 60c-7.33301 -8.66699 -16.3311 -17.165 -26.998 -25.498s-22.834 -15.833 -36.501 -22.5s-28.667 -12 -45 -16s-33.5 -6 -51.5 -6c-20 0 -38.333 3.16699 -55 9.5s-31 15.166 -43 26.499s-21.5 25.333 -28.5 42s-10.5 35 -10.5 55c0 44 15.5 77.333 46.5 100
s72.5 35.667 124.5 39c21.333 1.33301 42.5 2.33301 63.5 3s41.167 1 60.5 1v21c0 40.667 -8.66699 72.5 -26 95.5s-46 34.5 -86 34.5c-23.333 0 -45.5 -3 -66.5 -9s-41.167 -14.333 -60.5 -25l-21 66c25.333 15.333 51.166 26 77.499 32s55.166 9 86.499 9
c56.667 0 101.834 -17.333 135.501 -52s50.5 -84.334 50.5 -149.001v-289h-88v60zM211.002 56.002c26 0 50.3311 5.83105 72.998 17.498s42.334 26.5 59.001 44.5v89c-20 -1.33301 -38.667 -2.66602 -56 -3.99902s-34.666 -3 -51.999 -5
c-14 -1.33301 -27.167 -3.66602 -39.5 -6.99902s-23 -7.83301 -32 -13.5s-16 -13 -21 -22s-7.5 -19.833 -7.5 -32.5c0 -22.667 6.66699 -39.5 20 -50.5s32 -16.5 56 -16.5z" />
    <glyph glyph-name="b" unicode="b" horiz-adv-x="541" 
d="M74 706l89.9971 0.000976562v-270c14.667 15.333 33.5 28.166 56.5 38.499s49.833 15.5 80.5 15.5s58.334 -6.16699 83.001 -18.5s45.834 -29.5 63.501 -51.5s31.334 -48 41.001 -78s14.5 -62.667 14.5 -98s-5.5 -68.333 -16.5 -99s-27.167 -57.5 -48.5 -80.5
s-47.833 -41.167 -79.5 -54.5s-68.167 -20 -109.5 -20c-32 0 -62.833 3 -92.5 9s-57.167 14.667 -82.5 26v681zM278.997 418.001c-25.333 0 -47.5 -4.33203 -66.5 -12.999s-35.167 -19.334 -48.5 -32.001v-297c12 -4.66699 24.5 -8.16699 37.5 -10.5s28.833 -3.5 47.5 -3.5
c54.667 0 95.667 16.667 123 50s41 77 41 131c0 24 -2.66699 46.667 -8 68s-13.5 40 -24.5 56s-25 28.5 -42 37.5s-36.833 13.5 -59.5 13.5z" />
    <glyph glyph-name="c" unicode="c" horiz-adv-x="446" 
d="M276 490c26.667 0 51.667 -2.33105 75 -6.99805s43.333 -11 60 -19l-13 -69c-17.333 7.33301 -35.833 13 -55.5 17s-39.167 6 -58.5 6c-54 0 -93.833 -16.5 -119.5 -49.5s-38.5 -75.833 -38.5 -128.5s12.833 -95.5 38.5 -128.5s65.5 -49.5 119.5 -49.5
c19.333 0 38.833 2 58.5 6s38.167 9.66699 55.5 17l13 -69c-16.667 -8 -37.667 -14.333 -63 -19s-49.333 -7 -72 -7c-40 0 -75 6.66699 -105 20s-55 31.5 -75 54.5s-35 49.667 -45 80s-15 62.166 -15 95.499s5 65.166 15 95.499s25 57 45 80s45 41.167 75 54.5s65 20 105 20
z" />
    <glyph glyph-name="d" unicode="d" horiz-adv-x="544" 
d="M469 0l-85 -0.000976562v66c-18 -21.333 -39.667 -39.333 -65 -54s-56 -22 -92 -22c-28 0 -53.333 6 -76 18s-42.334 29 -59.001 51s-29.5 48 -38.5 78s-13.5 63 -13.5 99c0 40 6.16699 75.833 18.5 107.5s29.5 58.334 51.5 80.001s47.833 38.167 77.5 49.5
s61.834 17 96.501 17c19.333 0 36.5 -1.16699 51.5 -3.5s29.5 -5.5 43.5 -9.5v229h90v-706zM252 61.999c28.667 0 53.668 7.00098 75.001 21.001s38.666 29 51.999 45v277c-11.333 4.66699 -24.333 8 -39 10s-30 3 -46 3c-50 0 -89.833 -15.667 -119.5 -47
s-44.5 -76.333 -44.5 -135c0 -52.667 9.83301 -94.834 29.5 -126.501s50.5 -47.5 92.5 -47.5z" />
    <glyph glyph-name="e" unicode="e" horiz-adv-x="484" 
d="M260 490c30.667 0 57.498 -5 80.498 -15s42.333 -23.667 58 -41s27.334 -37.833 35.001 -61.5s11.5 -49.167 11.5 -76.5s-3.33301 -54.333 -10 -81h-303c0.666992 -23.333 4 -44.333 10 -63s15.167 -34.834 27.5 -48.501s28.333 -24.167 48 -31.5s43.5 -11 71.5 -11
c26 0 50.5 2.66699 73.5 8s44.167 12 63.5 20l12 -67c-21.333 -10 -46.166 -17.833 -74.499 -23.5s-57.5 -8.5 -87.5 -8.5c-40 0 -74.833 6.5 -104.5 19.5s-54.167 30.667 -73.5 53s-33.833 48.5 -43.5 78.5s-14.5 62.333 -14.5 97s5 67.334 15 98.001s24.5 57.5 43.5 80.5
s42.167 41 69.5 54s58 19.5 92 19.5zM256.998 423c-19.333 0 -36.332 -3.66699 -50.999 -11s-27.334 -17.333 -38.001 -30s-19 -27.5 -25 -44.5s-9.66699 -34.833 -11 -53.5h226c2 18.667 1.66699 36.5 -1 53.5s-8 31.833 -16 44.5s-19 22.667 -33 30s-31 11 -51 11z" />
    <glyph glyph-name="f" unicode="f" horiz-adv-x="356" 
d="M111 0v407.002h-81v73h81v20c0 73.333 17.167 127.666 51.5 162.999s79.833 53 136.5 53c15.333 0 30 -0.833008 44 -2.5s26.667 -4.83398 38 -9.50098l-8 -69c-19.333 5.33301 -40.333 8 -63 8c-38 0 -65.667 -11.333 -83 -34s-26 -57 -26 -103v-26h140v-73h-140v-407
h-90z" />
    <glyph glyph-name="g" unicode="g" horiz-adv-x="513" 
d="M243 161c-13.333 0 -26.002 1.00195 -38.002 3.00195c-10 -13.333 -15 -26.666 -15 -39.999c0 -12 4.16699 -20.833 12.5 -26.5s22.166 -9.16699 41.499 -10.5l99 -8c22.667 -2 43.667 -5.5 63 -10.5s35.833 -12.167 49.5 -21.5s24.334 -21.5 32.001 -36.5
s11.5 -32.833 11.5 -53.5c0 -26 -7.5 -49.667 -22.5 -71s-35 -39.5 -60 -54.5s-53.667 -26.667 -86 -35s-65.833 -12.5 -100.5 -12.5c-29.333 0 -56.666 2.5 -81.999 7.5s-47.5 12.667 -66.5 23s-34 23.333 -45 39s-16.5 34.167 -16.5 55.5c0 18 4.16699 33.667 12.5 47
s19 24.833 32 34.5s27.5 17.834 43.5 24.501s31.667 12 47 16c-13.333 6.66699 -24.5 15.667 -33.5 27s-13.5 25.666 -13.5 42.999c0 19.333 5.33301 34.666 16 45.999s23 20.666 37 27.999c-32.667 12 -59 30.833 -79 56.5s-30 56.5 -30 92.5c0 24 5 46 15 66
s23.5 37.5 40.5 52.5s37.167 26.667 60.5 35s48.333 12.5 75 12.5c12 0 23.5 -0.833008 34.5 -2.5s21.833 -4.16699 32.5 -7.5h179v-67h-84c9.33301 -13.333 16.5 -27.333 21.5 -42s7.5 -30.334 7.5 -47.001c0 -24 -4.83301 -46 -14.5 -66s-23.167 -37.167 -40.5 -51.5
s-37.666 -25.5 -60.999 -33.5s-48.333 -12 -75 -12zM207.998 17.002c-11.333 -5.33301 -23 -11.167 -35 -17.5s-22.833 -13.333 -32.5 -21s-17.667 -16.334 -24 -26.001s-9.5 -20.834 -9.5 -33.501c0 -25.333 11.333 -43.666 34 -54.999s53.667 -17 93 -17
c20.667 0 41.667 2 63 6s40.5 10.167 57.5 18.5s31 18.833 42 31.5s16.5 27.334 16.5 44.001c0 12 -3 21.667 -9 29s-14 13.333 -24 18s-21.333 8 -34 10s-26 3.66699 -40 5zM242.998 225.001c31.333 0 57.668 8.83301 79.001 26.5s32 42.167 32 73.5
s-10.5 55.833 -31.5 73.5s-47.5 26.5 -79.5 26.5s-58.5 -8.5 -79.5 -25.5s-31.5 -41.833 -31.5 -74.5s10.667 -57.5 32 -74.5s47.666 -25.5 78.999 -25.5z" />
    <glyph glyph-name="h" unicode="h" horiz-adv-x="554" 
d="M75 0v706.002h90v-287c19.333 23.333 41 41 65 53s52 18 84 18c30 0 55.667 -6.33301 77 -19s39 -29.834 53 -51.501s24.167 -46.834 30.5 -75.501s9.5 -59 9.5 -91v-253h-90v250c0 24.667 -2 47.167 -6 67.5s-10.333 37.833 -19 52.5s-20 26.167 -34 34.5
s-31 12.5 -51 12.5c-26.667 0 -50.167 -7 -70.5 -21s-36.5 -28.667 -48.5 -44v-352h-90z" />
    <glyph glyph-name="i" unicode="i" horiz-adv-x="240" 
d="M75 0v480h90v-480h-90zM63 622c0 15.333 5.16699 28.666 15.5 39.999s24.166 17 41.499 17s31.166 -5.66699 41.499 -17s15.5 -24.666 15.5 -39.999s-5.16699 -28.666 -15.5 -39.999s-24.166 -17 -41.499 -17s-31.166 5.66699 -41.499 17s-15.5 24.666 -15.5 39.999z" />
    <glyph glyph-name="j" unicode="j" horiz-adv-x="235" 
d="M165 118c0 -31.333 -2 -61.332 -6 -89.999s-10.833 -56.834 -20.5 -84.501s-23 -54.667 -40 -81s-38.5 -52.5 -64.5 -78.5l-62 49c37.333 40.667 63.833 82.667 79.5 126s23.5 91 23.5 143v378h90v-362zM63 622.001c0 15.333 5.16699 28.666 15.5 39.999
s24.166 17 41.499 17s31.166 -5.66699 41.499 -17s15.5 -24.666 15.5 -39.999s-5.16699 -28.666 -15.5 -39.999s-24.166 -17 -41.499 -17s-31.166 5.66699 -41.499 17s-15.5 24.666 -15.5 39.999z" />
    <glyph glyph-name="k" unicode="k" horiz-adv-x="490" 
d="M75 0v706h90v-453l192 227h104l-203 -236l220 -244h-109l-204 238v-238h-90z" />
    <glyph glyph-name="l" unicode="l" horiz-adv-x="276" 
d="M160 124c0 -19.333 3.83203 -34.167 11.499 -44.5s20.834 -15.5 39.501 -15.5c14.667 0 29.667 2 45 6l4 -67c-22 -7.33301 -46.333 -11 -73 -11c-42 0 -72 12.333 -90 37s-27 55 -27 91v586h90v-582z" />
    <glyph glyph-name="m" unicode="m" horiz-adv-x="861" 
d="M597 417c-25.333 0 -48.8291 -7.33203 -70.4961 -21.999s-40.834 -32.667 -57.501 -54c6 -27.333 9 -56.666 9 -87.999v-253h-90v250c0 24.667 -1.66699 47.167 -5 67.5s-9 37.833 -17 52.5s-18.667 26.167 -32 34.5s-30 12.5 -50 12.5c-26.667 0 -50.167 -7 -70.5 -21
s-36.5 -28.667 -48.5 -44v-352h-90v480h86v-70c18 25.333 39.667 45 65 59s54.666 21 87.999 21c34 0 62.167 -8.33301 84.5 -25s39.833 -39.667 52.5 -69c20 30 43.833 53.167 71.5 69.5s61.167 24.5 100.5 24.5c30 0 55.667 -6.33301 77 -19
s38.666 -29.834 51.999 -51.501s23.166 -46.834 29.499 -75.501s9.5 -59 9.5 -91v-253h-90v250c0 24.667 -1.66699 47.167 -5 67.5s-9 37.833 -17 52.5s-18.667 26.167 -32 34.5s-30 12.5 -50 12.5z" />
    <glyph glyph-name="n" unicode="n" horiz-adv-x="554" 
d="M75 0l0.000976562 480.002h86v-70c18 25.333 39.667 45 65 59s54.666 21 87.999 21c30 0 55.667 -6.33301 77 -19s39 -29.834 53 -51.501s24.167 -46.834 30.5 -75.501s9.5 -59 9.5 -91v-253h-90v250c0 24.667 -2 47.167 -6 67.5s-10.333 37.833 -19 52.5
s-20 26.167 -34 34.5s-31 12.5 -51 12.5c-26.667 0 -50.167 -7 -70.5 -21s-36.5 -28.667 -48.5 -44v-352h-90z" />
    <glyph glyph-name="o" unicode="o" horiz-adv-x="546" 
d="M506 240c0 -34 -5.16699 -66 -15.5 -96s-25.5 -56.5 -45.5 -79.5s-44.5 -41.167 -73.5 -54.5s-61.833 -20 -98.5 -20c-37.333 0 -70.333 6.66699 -99 20s-53 31.5 -73 54.5s-35.167 49.5 -45.5 79.5s-15.5 62 -15.5 96s5.16699 66 15.5 96s25.5 56.5 45.5 79.5
s44.333 41.167 73 54.5s61.667 20 99 20c36.667 0 69.5 -6.66699 98.5 -20s53.5 -31.5 73.5 -54.5s35.167 -49.5 45.5 -79.5s15.5 -62 15.5 -96zM416 240c0 24.667 -3 48 -9 70s-14.833 41.167 -26.5 57.5s-26.5 29.166 -44.5 38.499s-39 14 -63 14s-45 -4.66699 -63 -14
s-32.833 -22.166 -44.5 -38.499s-20.5 -35.5 -26.5 -57.5s-9 -45.333 -9 -70c0 -25.333 3 -48.833 9 -70.5s14.833 -40.667 26.5 -57s26.5 -29.166 44.5 -38.499s39 -14 63 -14s45 4.66699 63 14s32.833 22.166 44.5 38.499s20.5 35.333 26.5 57s9 45.167 9 70.5z" />
    <glyph glyph-name="p" unicode="p" horiz-adv-x="544" 
d="M75 480h86.001v-65c15.333 20.667 35 38.334 59 53.001s55 22 93 22c28.667 0 54.667 -6 78 -18s43.333 -29 60 -51s29.667 -48 39 -78s14 -63 14 -99c0 -40 -6.16699 -75.833 -18.5 -107.5s-29.5 -58.334 -51.5 -80.001s-47.833 -38.167 -77.5 -49.5
s-61.834 -17 -96.501 -17c-19.333 0 -36.5 1.16699 -51.5 3.5s-29.5 5.5 -43.5 9.5v-209h-90v686zM290.001 417c-29.333 0 -54.3311 -6.83203 -74.998 -20.499s-37.334 -28.5 -50.001 -44.5v-277c11.333 -4.66699 24.333 -8 39 -10s30 -3 46 -3c50 0 89.833 15.667 119.5 47
s44.5 76.333 44.5 135c0 24.667 -2.5 47.667 -7.5 69s-12.667 39.666 -23 54.999s-23.333 27.333 -39 36s-33.834 13 -54.501 13z" />
    <glyph glyph-name="q" unicode="q" horiz-adv-x="544" 
d="M469 -206l-90.001 -0.000976562v250c-14.667 -15.333 -33.5 -28.166 -56.5 -38.499s-49.833 -15.5 -80.5 -15.5c-31.333 0 -59.5 6.16699 -84.5 18.5s-46.167 29.333 -63.5 51s-30.666 47.5 -39.999 77.5s-14 62.667 -14 98c0 36 5.5 69.667 16.5 101
s27.167 58.333 48.5 81s47.833 40.5 79.5 53.5s68.167 19.5 109.5 19.5c64 0 122.333 -11.333 175 -34v-662zM263.999 61.999c25.333 0 47.501 4.33203 66.501 12.999s35.167 19.334 48.5 32.001v298c-14 5.33301 -28 8.83301 -42 10.5s-28 2.5 -42 2.5
c-54.667 0 -95.834 -17.167 -123.501 -51.5s-41.5 -78.5 -41.5 -132.5c0 -25.333 2.66699 -48.5 8 -69.5s13.5 -39 24.5 -54s24.833 -26.833 41.5 -35.5s36.667 -13 60 -13z" />
    <glyph glyph-name="r" unicode="r" horiz-adv-x="361" 
d="M345 406h-23c-35.333 0 -65.833 -6.66699 -91.5 -20s-47.5 -35 -65.5 -65v-321h-90v480h86v-92c14 32 32.5 56.333 55.5 73s53.5 25 91.5 25c14.667 0 27 -1.66699 37 -5v-75z" />
    <glyph glyph-name="s" unicode="s" horiz-adv-x="418" 
d="M383 137c0 -22.667 -4.83789 -42.9971 -14.5049 -60.9971s-23 -33.333 -40 -46s-37.167 -22.5 -60.5 -29.5s-48.666 -10.5 -75.999 -10.5c-12 0 -24.667 0.666992 -38 2s-26.666 3.33301 -39.999 6s-26.166 5.83398 -38.499 9.50098s-22.833 7.5 -31.5 11.5l15 71
c17.333 -7.33301 37.166 -14 59.499 -20s47.166 -9 74.499 -9c28.667 0 52.834 5.16699 72.501 15.5s29.5 26.833 29.5 49.5c0 10.667 -2.66699 20.167 -8 28.5s-12.333 15.666 -21 21.999s-18.834 12.166 -30.501 17.499l-36.5 16
c-17.333 6.66699 -34.666 14.167 -51.999 22.5s-33.166 18.333 -47.499 30s-26 25.167 -35 40.5s-13.5 33.666 -13.5 54.999c0 23.333 4.83301 43.333 14.5 60s22.334 30.334 38.001 41.001s33.834 18.5 54.501 23.5s42 7.5 64 7.5c25.333 0 50 -2.83301 74 -8.5
s45.667 -13.5 65 -23.5l-15 -68c-19.333 9.33301 -39.5 16.5 -60.5 21.5s-42.167 7.5 -63.5 7.5c-23.333 0 -43 -4 -59 -12s-24 -22.667 -24 -44c0 -10 2.83301 -18.5 8.5 -25.5s13 -13.333 22 -19s18.833 -10.834 29.5 -15.501s20.667 -9.33398 30 -14.001
c8.66699 -4 21.667 -9.66699 39 -17s34.5 -16.833 51.5 -28.5s31.833 -26.167 44.5 -43.5s19 -38.333 19 -63z" />
    <glyph glyph-name="t" unicode="t" horiz-adv-x="389" 
d="M20 480h86.0039v123h90v-123h158v-73h-158v-245c0 -14 1 -27.167 3 -39.5s5.66699 -22.833 11 -31.5s12.666 -15.5 21.999 -20.5s21.666 -7.5 36.999 -7.5c28 0 53.333 4.33301 76 13l8 -68c-10.667 -4.66699 -25.834 -8.83398 -45.501 -12.501
s-38.834 -5.5 -57.501 -5.5c-26 0 -48 4.16699 -66 12.5s-32.833 20 -44.5 35s-20.167 32.833 -25.5 53.5s-8 43.334 -8 68.001v248h-86v73z" />
    <glyph glyph-name="u" unicode="u" horiz-adv-x="545" 
d="M470 480l-0.000976562 -480.002h-86v70c-17.333 -23.333 -38.833 -42.5 -64.5 -57.5s-55.167 -22.5 -88.5 -22.5c-30 0 -55.5 6.33301 -76.5 19s-38.167 29.834 -51.5 51.501s-23 46.834 -29 75.501s-9 59 -9 91v253h90v-250c0 -24.667 1.66699 -47.167 5 -67.5
s9 -37.833 17 -52.5s18.833 -26.167 32.5 -34.5s30.834 -12.5 51.501 -12.5c26.667 0 50 7 70 21s36.333 28.667 49 44v352h90z" />
    <glyph glyph-name="v" unicode="v" horiz-adv-x="470" 
d="M364 480h91l-173 -480h-94l-173 480h91l129 -389z" />
    <glyph glyph-name="w" unicode="w" horiz-adv-x="754" 
d="M548 106l101 374h85l-142 -480h-84l-131 403l-131 -403h-84l-142 480h85l101 -374l122 374h98z" />
    <glyph glyph-name="x" unicode="x" horiz-adv-x="491" 
d="M293 243l178 -243h-96l-130 179l-129 -179h-96l178 243l-174 237h96l125 -173l126 173h96z" />
    <glyph glyph-name="y" unicode="y" horiz-adv-x="460" 
d="M117 -206l71 201l-176 485h93l126 -393l124 393h93l-243 -686h-88z" />
    <glyph glyph-name="z" unicode="z" horiz-adv-x="452" 
d="M55 0v70l248 340h-239v70h337v-70l-248 -340h259v-70h-357z" />
    <glyph glyph-name="braceleft" unicode="{" horiz-adv-x="401" 
d="M241 8c0 -38 6 -66.002 18 -84.002s34.667 -27 68 -27h24v-73h-23c-60 0 -104.5 14.333 -133.5 43s-43.5 77.334 -43.5 146.001v133c0 34.667 -7.5 59.667 -22.5 75s-38.167 23 -69.5 23h-14v72h14c31.333 0 54.5 7.66699 69.5 23s22.5 40.333 22.5 75v133
c0 68.667 14.5 117.334 43.5 146.001s73.5 43 133.5 43h23v-73h-24c-33.333 0 -56 -9 -68 -27s-18 -46 -18 -84v-124c0 -40 -8.33301 -72.167 -25 -96.5s-45 -41.5 -85 -51.5c40 -10 68.333 -27.167 85 -51.5s25 -56.5 25 -96.5v-124z" />
    <glyph glyph-name="bar" unicode="|" horiz-adv-x="264" 
d="M95 -250v1000h74v-1000h-74z" />
    <glyph glyph-name="braceright" unicode="}" horiz-adv-x="401" 
d="M160 132c0 40 8.33301 72.1689 25 96.502s45 41.5 85 51.5c-40 10 -68.333 27.167 -85 51.5s-25 56.5 -25 96.5v124c0 38 -6 66 -18 84s-34.667 27 -68 27h-24v73h23c60 0 104.5 -14.333 133.5 -43s43.5 -77.334 43.5 -146.001v-133c0 -34.667 7.5 -59.667 22.5 -75
s38.167 -23 69.5 -23h14v-72h-14c-31.333 0 -54.5 -7.66699 -69.5 -23s-22.5 -40.333 -22.5 -75v-133c0 -68.667 -14.5 -117.334 -43.5 -146.001s-73.5 -43 -133.5 -43h-23v73h24c33.333 0 56 9 68 27s18 46 18 84v124z" />
    <glyph glyph-name="asciitilde" unicode="~" horiz-adv-x="581" 
d="M526 389c-13.333 -42 -30.332 -73.167 -50.999 -93.5s-47.334 -30.5 -80.001 -30.5c-17.333 0 -35.5 4.5 -54.5 13.5l-57.5 27.5l-44.5 21.5c-14.333 7 -28.166 10.5 -41.499 10.5c-10.667 0 -19.5 -2 -26.5 -6s-13.167 -9.5 -18.5 -16.5s-10 -15 -14 -24
s-8 -18.833 -12 -29.5l-66 28c12.667 44 29.5 75.667 50.5 95s49.833 29 86.5 29c18.667 0 37 -3.66699 55 -11s36.333 -16 55 -26l47.5 -25c14.333 -7.33301 28.166 -11 41.499 -11c18.667 0 32.667 7.83301 42 23.5s17.333 33.167 24 52.5z" />
    <glyph glyph-name="uni00A0" unicode="&#xa0;" horiz-adv-x="215" 
 />
    <glyph glyph-name="exclamdown" unicode="&#xa1;" horiz-adv-x="306" 
d="M200 23v-206h-94v206l22 281h52zM211 432c0 -16 -5.33301 -29.667 -16 -41s-24.667 -17 -42 -17s-31.333 5.66699 -42 17s-16 25 -16 41s5.33301 29.667 16 41s24.667 17 42 17s31.333 -5.66699 42 -17s16 -25 16 -41z" />
    <glyph glyph-name="cent" unicode="&#xa2;" horiz-adv-x="497" 
d="M246 689l81 0.00195312v-117c18 -1.33301 36.667 -4.33301 56 -9s35.666 -10.334 48.999 -17.001l-13 -67c-15.333 6.66699 -32.666 11.834 -51.999 15.501s-39 5.5 -59 5.5c-50.667 0 -89.167 -14.5 -115.5 -43.5s-39.5 -70.167 -39.5 -123.5s13.167 -94.5 39.5 -123.5
s64.833 -43.5 115.5 -43.5c20 0 39.667 1.83301 59 5.5s36.666 8.83398 51.999 15.501l13 -67c-13.333 -6.66699 -29.666 -12.334 -48.999 -17.001s-38 -7.66699 -56 -9v-117h-81v121c-60 12.667 -105.167 40.167 -135.5 82.5s-45.5 93.166 -45.5 152.499
s15.167 110.166 45.5 152.499s75.5 69.833 135.5 82.5v121z" />
    <glyph glyph-name="sterling" unicode="&#xa3;" horiz-adv-x="537" 
d="M422 270h-171.001c-2.66699 -40 -14 -77.5 -34 -112.5s-43.667 -63.167 -71 -84.5h311v-73h-389l-18 65c29.333 28 54 58.667 74 92s32.667 71 38 113h-107v72h110v110c0 72.667 16.667 128.5 50 167.5s82 58.5 146 58.5c28 0 53 -2.5 75 -7.5s40.667 -11.5 56 -19.5
l-15 -71c-15.333 8 -32.666 14.167 -51.999 18.5s-38 6.5 -56 6.5c-40 0 -69 -12.833 -87 -38.5s-27 -64.167 -27 -115.5v-109h167v-72z" />
    <glyph glyph-name="currency" unicode="&#xa4;" horiz-adv-x="632" 
d="M508 598l54 -51l-83 -84c15.333 -17.333 27.166 -37.166 35.499 -59.499s12.5 -45.833 12.5 -70.5c0 -25.333 -4.16699 -49 -12.5 -71s-20.166 -42 -35.499 -60l83 -83l-54 -51l-88 87c-30 -18 -64.667 -27 -104 -27s-74 9 -104 27l-88 -87l-54 51l83 83
c-15.333 18 -27.166 38 -35.499 60s-12.5 45.667 -12.5 71c0 24.667 4.16699 48.167 12.5 70.5s20.166 42.166 35.499 59.499l-83 84l54 51l88 -88c31.333 18.667 66 28 104 28s72.667 -9.33301 104 -28zM182 333c0 -19.333 3 -37.666 9 -54.999s14.833 -32.5 26.5 -45.5
s25.667 -23.333 42 -31s35.166 -11.5 56.499 -11.5c20.667 0 39.334 3.83301 56.001 11.5s30.834 18 42.501 31s20.5 28.167 26.5 45.5s9 35.666 9 54.999s-3 37.666 -9 54.999s-14.833 32.5 -26.5 45.5s-25.834 23.333 -42.501 31s-35.334 11.5 -56.001 11.5
c-21.333 0 -40.166 -3.83301 -56.499 -11.5s-30.333 -18 -42 -31s-20.5 -28.167 -26.5 -45.5s-9 -35.666 -9 -54.999z" />
    <glyph glyph-name="yen" unicode="&#xa5;" horiz-adv-x="546" 
d="M401 666h95l-123 -279h100v-65h-128l-27 -59v-48h155v-64h-155v-151h-90v151h-155v64h155v48l-27 59h-128v65h100l-123 279h95l128 -315z" />
    <glyph glyph-name="brokenbar" unicode="&#xa6;" horiz-adv-x="264" 
d="M169 365h-74v385h74v-385zM95 -250v385h74v-385h-74z" />
    <glyph glyph-name="section" unicode="&#xa7;" horiz-adv-x="615" 
d="M365 716c24.667 0 47.8301 -1.50195 69.4971 -4.50195s40.834 -8.16699 57.501 -15.5l-10 -58c-17.333 5.33301 -34.166 9.5 -50.499 12.5s-34.166 4.5 -53.499 4.5c-33.333 0 -59.666 -9.16699 -78.999 -27.5s-29 -43.833 -29 -76.5c0 -28.667 9 -54.667 27 -78
s45 -50.333 81 -81l65.5 -58c21.667 -20 41.167 -41.167 58.5 -63.5s31.333 -46.666 42 -72.999s16 -55.166 16 -86.499c0 -40.667 -8.83301 -77 -26.5 -109s-41 -59 -70 -81s-62.333 -38.667 -100 -50s-76.167 -17 -115.5 -17c-23.333 0 -47.166 1.66699 -71.499 5
s-46.833 8.66602 -67.5 15.999l11 60c17.333 -6 35.833 -10.833 55.5 -14.5s41.167 -5.5 64.5 -5.5c38.667 0 68 9.5 88 28.5s30 43.833 30 74.5c0 20.667 -5.16699 39.834 -15.5 57.501s-23 34.5 -38 50.5s-31.5 31 -49.5 45s-34.333 28 -49 42
c-22.667 20.667 -42.667 40.5 -60 59.5s-32 38.333 -44 58s-21.167 40.5 -27.5 62.5s-9.5 46.333 -9.5 73c0 40 7.83301 75.5 23.5 106.5s37.167 57.167 64.5 78.5s59.166 37.5 95.499 48.5s75.166 16.5 116.499 16.5zM233.996 638.998
c-28.667 -17.333 -52 -39.6689 -70 -67.002s-27 -61.666 -27 -102.999c0 -22.667 3.16699 -43.167 9.5 -61.5s15 -35.5 26 -51.5s24.167 -31.5 39.5 -46.5s31.666 -30.167 48.999 -45.5l54.5 -47c19.667 -16.667 38 -34.834 55 -54.501s31.167 -40.667 42.5 -63
s17 -46.5 17 -72.5c0 -16 -2.33301 -30.667 -7 -44s-11.667 -26.666 -21 -39.999c22.667 15.333 42.667 36.5 60 63.5s26 57.167 26 90.5c0 23.333 -3.5 44.833 -10.5 64.5s-17 38.667 -30 57s-28.667 36.333 -47 54s-38.833 36.167 -61.5 55.5
c-22 19.333 -41.833 37.5 -59.5 54.5s-32.5 33.833 -44.5 50.5s-21.167 34 -27.5 52s-9.5 37.667 -9.5 59s3.83301 40.333 11.5 57s15.834 29.334 24.501 38.001z" />
    <glyph glyph-name="dieresis" unicode="&#xa8;" horiz-adv-x="519" 
d="M223 632c0 -15.333 -5 -28.166 -15 -38.499s-23 -15.5 -39 -15.5s-29 5.16699 -39 15.5s-15 23.166 -15 38.499s5 28.166 15 38.499s23 15.5 39 15.5s29 -5.16699 39 -15.5s15 -23.166 15 -38.499zM404 632c0 -15.333 -5 -28.166 -15 -38.499s-23 -15.5 -39 -15.5
s-29 5.16699 -39 15.5s-15 23.166 -15 38.499s5 28.166 15 38.499s23 15.5 39 15.5s29 -5.16699 39 -15.5s15 -23.166 15 -38.499z" />
    <glyph glyph-name="copyright" unicode="&#xa9;" horiz-adv-x="814" 
d="M754 333c0 -47.333 -8.33301 -91.833 -25 -133.5s-40.334 -78.167 -71.001 -109.5s-67.167 -56.166 -109.5 -74.499s-89.5 -27.5 -141.5 -27.5s-99.167 9.16699 -141.5 27.5s-78.833 43.166 -109.5 74.499s-54.334 67.833 -71.001 109.5s-25 86.167 -25 133.5
s8.33301 92 25 134s40.334 78.667 71.001 110s67.167 56 109.5 74s89.5 27 141.5 27s99.167 -9 141.5 -27s78.833 -42.667 109.5 -74s54.334 -68 71.001 -110s25 -86.667 25 -134zM99 333c0 -42 7.33301 -81.833 22 -119.5s35.5 -70.667 62.5 -99s59.5 -50.833 97.5 -67.5
s80 -25 126 -25s88 8.33301 126 25s70.5 39.167 97.5 67.5s47.833 61.333 62.5 99s22 77.5 22 119.5s-7.33301 81.833 -22 119.5s-35.5 70.667 -62.5 99s-59.5 50.833 -97.5 67.5s-80 25 -126 25s-88 -8.33301 -126 -25s-70.5 -39.167 -97.5 -67.5
s-47.833 -61.333 -62.5 -99s-22 -77.5 -22 -119.5zM427 529c16.667 0 34.334 -1.5 53.001 -4.5s34.667 -7.5 48 -13.5l-9 -53c-28 9.33301 -56 14 -84 14c-44 0 -77.667 -12.167 -101 -36.5s-35 -58.5 -35 -102.5s11.667 -78.167 35 -102.5s57 -36.5 101 -36.5
c28 0 56 4.66699 84 14l9 -53c-13.333 -6 -29.333 -10.5 -48 -13.5s-36.334 -4.5 -53.001 -4.5c-30 0 -57.167 5 -81.5 15s-44.833 23.667 -61.5 41s-29.5 38 -38.5 62s-13.5 50 -13.5 78s4.5 54 13.5 78s21.833 44.667 38.5 62s37.167 31 61.5 41s51.5 15 81.5 15z" />
    <glyph glyph-name="ordfeminine" unicode="&#xaa;" horiz-adv-x="455" 
d="M65 260h325v-62h-325v62zM287 366c-12 -12.667 -27.835 -23.502 -47.502 -32.502s-41.167 -13.5 -64.5 -13.5c-32 0 -57 8.66699 -75 26s-27 40 -27 68c0 32 10.167 55.833 30.5 71.5s47.166 25.167 80.499 28.5c16 1.33301 33.333 2.5 52 3.5s35.334 1.5 50.001 1.5v13
c0 27.333 -6.66699 47.833 -20 61.5s-32.666 20.5 -57.999 20.5c-17.333 0 -33.666 -1.83301 -48.999 -5.5s-30.333 -9.16699 -45 -16.5l-15 57c19.333 10.667 39 17.834 59 21.501s41.333 5.5 64 5.5c20 0 38.667 -2.83301 56 -8.5s32.333 -14.167 45 -25.5
s22.667 -26.166 30 -44.499s11 -39.833 11 -64.5v-205h-77v38zM194.998 374.998c16.667 0 32.334 3 47.001 9s29.334 14 44.001 24v64c-22.667 -2 -48.334 -5 -77.001 -9c-18.667 -2.66699 -33.667 -7.5 -45 -14.5s-17 -17.833 -17 -32.5c0 -12.667 3.66699 -22.667 11 -30
s19.666 -11 36.999 -11z" />
    <glyph glyph-name="guillemotleft" unicode="&#xab;" horiz-adv-x="575" 
d="M276 79l-59 -46l-167 208l167 208l59 -46l-131 -162zM505 79l-59 -46l-167 208l167 208l59 -46l-131 -162z" />
    <glyph glyph-name="logicalnot" unicode="&#xac;" horiz-adv-x="612" 
d="M459 85v204h-384v68h462v-272h-78z" />
    <glyph glyph-name="registered" unicode="&#xae;" horiz-adv-x="564" 
d="M367 513c0 -15.333 -4.49902 -28.333 -13.499 -39s-20.833 -18.667 -35.5 -24l74 -92h-55l-65 84h-15v-84h-44v217h76c21.333 0 39.666 -5.5 54.999 -16.5s23 -26.167 23 -45.5zM323.001 511c0 10 -3.83301 17.333 -11.5 22s-17.167 7 -28.5 7h-26v-63h14
c16 0 28.667 2.83301 38 8.5s14 14.167 14 25.5zM60.001 460c0 29.333 5.33301 57.166 16 83.499s25.667 49.5 45 69.5s42.666 35.833 69.999 47.5s57.666 17.5 90.999 17.5s63.666 -5.83301 90.999 -17.5s50.666 -27.5 69.999 -47.5s34.333 -43.167 45 -69.5
s16 -54.166 16 -83.499s-5.33301 -57.166 -16 -83.499s-25.667 -49.5 -45 -69.5s-42.666 -35.833 -69.999 -47.5s-57.666 -17.5 -90.999 -17.5s-63.666 5.83301 -90.999 17.5s-50.666 27.5 -69.999 47.5s-34.333 43.167 -45 69.5s-16 54.166 -16 83.499zM471.001 460
c0 26 -4.5 50.5 -13.5 73.5s-21.833 43.167 -38.5 60.5s-36.5 31 -59.5 41s-48.833 15 -77.5 15s-54.667 -5 -78 -15s-43.166 -23.667 -59.499 -41s-29 -37.5 -38 -60.5s-13.5 -47.5 -13.5 -73.5s4.5 -50.5 13.5 -73.5s21.667 -43.167 38 -60.5s36.166 -31 59.499 -41
s49.333 -15 78 -15s54.5 5 77.5 15s42.833 23.667 59.5 41s29.5 37.5 38.5 60.5s13.5 47.5 13.5 73.5z" />
    <glyph glyph-name="macron" unicode="&#xaf;" horiz-adv-x="502" 
d="M115 651h272v-69h-272v69z" />
    <glyph glyph-name="degree" unicode="&#xb0;" horiz-adv-x="400" 
d="M70 554c0 16.667 3 32.667 9 48s14.667 28.5 26 39.5s25 19.833 41 26.5s34 10 54 10s38 -3.33301 54 -10s29.667 -15.5 41 -26.5s20 -24.167 26 -39.5s9 -31.333 9 -48c0 -17.333 -3 -33.5 -9 -48.5s-14.667 -28.167 -26 -39.5s-25 -20.333 -41 -27s-34 -10 -54 -10
s-38 3.33301 -54 10s-29.667 15.667 -41 27s-20 24.5 -26 39.5s-9 31.167 -9 48.5zM271 554c0 20 -5.83301 37.667 -17.5 53s-29.5 23 -53.5 23s-41.833 -7.66699 -53.5 -23s-17.5 -33 -17.5 -53s5.83301 -37.667 17.5 -53s29.5 -23 53.5 -23s41.833 7.66699 53.5 23
s17.5 33 17.5 53z" />
    <glyph glyph-name="plusminus" unicode="&#xb1;" horiz-adv-x="612" 
d="M345 318v-178h-78v178h-192v66h192v177h78v-177h192v-66h-192zM75 68h462v-68h-462v68z" />
    <glyph glyph-name="twosuperior" unicode="&#xb2;" horiz-adv-x="389" 
d="M55 795c17.333 9.33301 35.498 16.5 54.498 21.5s39.5 7.5 61.5 7.5c44 0 78.333 -11.167 103 -33.5s37 -51.5 37 -87.5c0 -18.667 -3.16699 -36 -9.5 -52s-14.666 -31 -24.999 -45s-22.5 -27.333 -36.5 -40s-28.667 -25 -44 -37
c-11.333 -9.33301 -22 -17.666 -32 -24.999l-29 -22h189v-62h-281l-15 50l60.5 49.5l58.5 49.5c22.667 19.333 42.667 39.166 60 59.499s26 43.5 26 69.5c0 20.667 -6.16699 36.5 -18.5 47.5s-30.166 16.5 -53.499 16.5c-16 0 -31 -2.33301 -45 -7s-28.333 -10.667 -43 -18z
" />
    <glyph glyph-name="threesuperior" unicode="&#xb3;" horiz-adv-x="364" 
d="M308 526c0 -34.667 -14.332 -62.6689 -42.999 -84.002s-66.334 -32 -113.001 -32c-19.333 0 -39.333 2.33301 -60 7s-38 10.667 -52 18l13 57c14.667 -6.66699 29.5 -11.834 44.5 -15.501s30.833 -5.5 47.5 -5.5c26.667 0 47.5 4.83301 62.5 14.5
s22.5 23.834 22.5 42.501c0 21.333 -9.33301 36.833 -28 46.5s-42 14.5 -70 14.5h-48v62h43c30 0 53.167 5.83301 69.5 17.5s24.5 26.5 24.5 44.5c0 17.333 -6.5 30 -19.5 38s-29.833 12 -50.5 12c-15.333 0 -30 -1.66699 -44 -5s-28 -8.33301 -42 -15l-14 57
c17.333 8.66699 35.333 14.834 54 18.501s38.667 5.5 60 5.5c18.667 0 36 -2.33301 52 -7s30 -11.167 42 -19.5s21.5 -18.666 28.5 -30.999s10.5 -26.5 10.5 -42.5c0 -46.667 -26.333 -80 -79 -100c26 -6.66699 47.333 -18.667 64 -36s25 -38 25 -62z" />
    <glyph glyph-name="acute" unicode="&#xb4;" horiz-adv-x="404" 
d="M115 555l74 160h100l-98 -160h-76z" />
    <glyph glyph-name="mu" unicode="&#xb5;" horiz-adv-x="605" 
d="M75 480l90.0029 -0.000976562v-250c0 -24 1.83301 -46.333 5.5 -67s9.66699 -38.334 18 -53.001s19.166 -26.167 32.499 -34.5s29.666 -12.5 48.999 -12.5c25.333 0 47.833 6.33301 67.5 19s37.167 28 52.5 46v352h90v-350c0 -22 3.66699 -39.667 11 -53
s24.333 -20 51 -20h18v-54c-8.66699 -3.33301 -17.334 -5.66602 -26.001 -6.99902s-18.667 -2 -30 -2c-30 0 -53.667 7.33301 -71 22s-29.333 33.667 -36 57c-18 -24.667 -39.167 -44.667 -63.5 -60s-52.833 -23 -85.5 -23c-26.667 0 -50 7.33301 -70 22
s-34.333 32.667 -43 54c8 -26 15 -52.667 21 -80s9 -56.666 9 -87.999v-104h-90v686z" />
    <glyph glyph-name="paragraph" unicode="&#xb6;" horiz-adv-x="575" 
d="M421 -140v741.999h-116v-421c-35.333 0 -68 5.33301 -98 16s-55.833 26.167 -77.5 46.5s-38.667 45.333 -51 75s-18.5 63.834 -18.5 102.501s6.5 73.167 19.5 103.5s30.5 56 52.5 77s47.833 37 77.5 48s61.167 16.5 94.5 16.5h191v-806h-74z" />
    <glyph glyph-name="periodcentered" unicode="&#xb7;" horiz-adv-x="256" 
d="M186 255c0 -16 -5.33301 -29.667 -16 -41s-24.667 -17 -42 -17s-31.333 5.66699 -42 17s-16 25 -16 41s5.33301 29.667 16 41s24.667 17 42 17s31.333 -5.66699 42 -17s16 -25 16 -41z" />
    <glyph glyph-name="cedilla" unicode="&#xb8;" horiz-adv-x="388" 
d="M273 -119c0 -15.333 -3.66504 -28.498 -10.998 -39.498s-17.333 -20.333 -30 -28s-27.834 -13.834 -45.501 -18.501s-36.834 -8.33398 -57.501 -11.001l-13 54c8.66699 1.33301 17.5 3 26.5 5s17.167 4.66699 24.5 8s13.5 7.33301 18.5 12s7.5 10.334 7.5 17.001
s-2.33301 12.334 -7 17.001s-10.667 8.5 -18 11.5s-15.666 5.5 -24.999 7.5l-28 6l32 78h57l-16 -44c9.33301 -2 19 -4.83301 29 -8.5s19.167 -8.33398 27.5 -14.001s15.166 -12.834 20.499 -21.501s8 -19 8 -31z" />
    <glyph glyph-name="onesuperior" unicode="&#xb9;" horiz-adv-x="304" 
d="M134 420v316l-101 -33l-18 61l143 50h54v-394h-78z" />
    <glyph glyph-name="ordmasculine" unicode="&#xba;" horiz-adv-x="484" 
d="M419 498c0 -24 -4 -46.667 -12 -68s-19.667 -40.166 -35 -56.499s-34 -29.333 -56 -39s-46.667 -14.5 -74 -14.5s-52 4.83301 -74 14.5s-40.667 22.667 -56 39s-27 35.166 -35 56.499s-12 44 -12 68s4 46.667 12 68s19.667 40.166 35 56.499s34 29.333 56 39
s46.667 14.5 74 14.5s52 -4.83301 74 -14.5s40.667 -22.667 56 -39s27 -35.166 35 -56.499s12 -44 12 -68zM142 498c0 -32.667 8.66699 -60.167 26 -82.5s42 -33.5 74 -33.5s56.667 11.167 74 33.5s26 49.833 26 82.5s-8.66699 60.167 -26 82.5s-42 33.5 -74 33.5
s-56.667 -11.167 -74 -33.5s-26 -49.833 -26 -82.5zM80 260h325v-62h-325v62z" />
    <glyph glyph-name="guillemotright" unicode="&#xbb;" horiz-adv-x="575" 
d="M430 241l-131 162l59 46l167 -208l-167 -208l-59 46zM201 241l-131 162l59 46l167 -208l-167 -208l-59 46z" />
    <glyph glyph-name="onequarter" unicode="&#xbc;" horiz-adv-x="835" 
d="M553 678l60 -32l-353 -658l-60 33zM174 272v316l-101 -33l-18 61l143 50h54v-394h-78zM722 100v-100h-74v100h-185l-16 52l198 242h77v-235h63v-59h-63zM648 314l-122 -155h122v155z" />
    <glyph glyph-name="onehalf" unicode="&#xbd;" horiz-adv-x="883" 
d="M553 678l60 -32l-353 -658l-60 33zM174 272v316l-101 -33l-18 61l143 50h54v-394h-78zM544 375c17.333 9.33301 35.498 16.5 54.498 21.5s39.5 7.5 61.5 7.5c44 0 78.333 -11.167 103 -33.5s37 -51.5 37 -87.5c0 -18.667 -3.16699 -36 -9.5 -52s-14.666 -31 -24.999 -45
s-22.5 -27.333 -36.5 -40s-28.667 -25 -44 -37c-11.333 -9.33301 -22 -17.666 -32 -24.999l-29 -22h189v-62h-281l-15 50l60.5 49.5l58.5 49.5c22.667 19.333 42.667 39.166 60 59.499s26 43.5 26 69.5c0 20.667 -6.16699 36.5 -18.5 47.5s-30.166 16.5 -53.499 16.5
c-16 0 -31 -2.33301 -45 -7s-28.333 -10.667 -43 -18z" />
    <glyph glyph-name="threequarters" unicode="&#xbe;" horiz-adv-x="862" 
d="M580 678l60 -32l-353 -658l-60 33zM749 100v-100h-74v100h-185l-16 52l198 242h77v-235h63v-59h-63zM675 314l-122 -155h122v155zM338 378c0 -34.667 -14.332 -62.6689 -42.999 -84.002s-66.334 -32 -113.001 -32c-19.333 0 -39.333 2.33301 -60 7s-38 10.667 -52 18
l13 57c14.667 -6.66699 29.5 -11.834 44.5 -15.501s30.833 -5.5 47.5 -5.5c26.667 0 47.5 4.83301 62.5 14.5s22.5 23.834 22.5 42.501c0 21.333 -9.33301 36.833 -28 46.5s-42 14.5 -70 14.5h-48v62h43c30 0 53.167 5.83301 69.5 17.5s24.5 26.5 24.5 44.5
c0 17.333 -6.5 30 -19.5 38s-29.833 12 -50.5 12c-15.333 0 -30 -1.66699 -44 -5s-28 -8.33301 -42 -15l-14 57c17.333 8.66699 35.333 14.834 54 18.501s38.667 5.5 60 5.5c18.667 0 36 -2.33301 52 -7s30 -11.167 42 -19.5s21.5 -18.666 28.5 -30.999
s10.5 -26.5 10.5 -42.5c0 -46.667 -26.333 -80 -79 -100c26 -6.66699 47.333 -18.667 64 -36s25 -38 25 -62z" />
    <glyph glyph-name="questiondown" unicode="&#xbf;" horiz-adv-x="457" 
d="M55 -20c0 32.667 7.16797 62.668 21.501 90.001s33.166 52.833 56.499 76.5s50 46.167 80 67.5l92 65l44 -60l-79 -57.5c-24.667 -18.333 -46.167 -36.833 -64.5 -55.5s-33 -38 -44 -58s-16.5 -41.667 -16.5 -65c0 -33.333 10.333 -58.833 31 -76.5s47 -26.5 79 -26.5
c24 0 46.667 3.16699 68 9.5s41.333 15.166 60 26.499l24 -70c-25.333 -15.333 -51.333 -26 -78 -32s-54.334 -9 -83.001 -9c-26 0 -50.5 3.66699 -73.5 11s-43.167 18.333 -60.5 33s-31.166 33 -41.499 55s-15.5 47.333 -15.5 76zM235.001 432.001
c0 16 5.33301 29.667 16 41s24.667 17 42 17s31.333 -5.66699 42 -17s16 -25 16 -41s-5.33301 -29.667 -16 -41s-24.667 -17 -42 -17s-31.333 5.66699 -42 17s-16 25 -16 41z" />
    <glyph glyph-name="Agrave" unicode="&#xc0;" horiz-adv-x="676" 
d="M648 0h-94l-61 161h-311l-60 -161h-94l265 666h90zM210 235h256l-128 347zM299 729l-115 114h106l84 -114h-75z" />
    <glyph glyph-name="Aacute" unicode="&#xc1;" horiz-adv-x="676" 
d="M648 0h-94l-61 161h-311l-60 -161h-94l265 666h90zM210 235h256l-128 347zM305 729l84 114h106l-115 -114h-75z" />
    <glyph glyph-name="Acircumflex" unicode="&#xc2;" horiz-adv-x="676" 
d="M648 0h-94l-61 161h-311l-60 -161h-94l265 666h90zM210 235h256l-128 347zM477 729h-80l-59 75l-59 -75h-80l92 114h94z" />
    <glyph glyph-name="Atilde" unicode="&#xc3;" horiz-adv-x="676" 
d="M648 0h-94l-61 161h-311l-60 -161h-94l265 666h90zM210 235h256l-128 347zM415 734c-12.667 0 -25.999 2.5 -39.999 7.5l-43 15.5c-15.333 5.33301 -28.5 9.66602 -39.5 12.999s-21.167 5 -30.5 5c-12.667 0 -21.667 -4.16699 -27 -12.5s-10.666 -19.166 -15.999 -32.499
l-55 19c8.66699 34 20.334 58.167 35.001 72.5s36 21.5 64 21.5c16 0 31.333 -2.16699 46 -6.5s28 -8.83301 40 -13.5l36.5 -14.5c11 -4.33301 20.833 -6.5 29.5 -6.5c11.333 0 19.666 3.66699 24.999 11s10.666 17.333 15.999 30l54 -24
c-10.667 -29.333 -22.834 -50.833 -36.501 -64.5s-33.167 -20.5 -58.5 -20.5z" />
    <glyph glyph-name="Adieresis" unicode="&#xc4;" horiz-adv-x="676" 
d="M648 0h-94l-61 161h-311l-60 -161h-94l265 666h90zM210 235h256l-128 347zM292 789c0 -15.333 -4.83301 -27.666 -14.5 -36.999s-22.5 -14 -38.5 -14s-28.833 4.66699 -38.5 14s-14.5 21.666 -14.5 36.999s4.83301 27.666 14.5 36.999s22.5 14 38.5 14
s28.833 -4.66699 38.5 -14s14.5 -21.666 14.5 -36.999zM489 789c0 -15.333 -4.83301 -27.666 -14.5 -36.999s-22.5 -14 -38.5 -14s-28.833 4.66699 -38.5 14s-14.5 21.666 -14.5 36.999s4.83301 27.666 14.5 36.999s22.5 14 38.5 14s28.833 -4.66699 38.5 -14
s14.5 -21.666 14.5 -36.999z" />
    <glyph glyph-name="Aring" unicode="&#xc5;" horiz-adv-x="676" 
d="M338 810c14.667 0 27.499 -2.33301 38.499 -7s20.167 -11 27.5 -19s12.833 -17 16.5 -27s5.5 -20.333 5.5 -31c0 -14 -3.16699 -27.333 -9.5 -40s-16.166 -23 -29.499 -31l261 -655h-94l-61 161h-311l-60 -161h-94l261 655c-14 9.33301 -24 20 -30 32s-9 25 -9 39
c0 10.667 1.83301 21 5.5 31s9.16699 19 16.5 27s16.5 14.333 27.5 19s23.833 7 38.5 7zM209.999 235h256l-128 347zM378.999 726c0 12 -3.33301 22.333 -10 31s-17 13 -31 13s-24.333 -4.33301 -31 -13s-10 -19 -10 -31s3.5 -22.333 10.5 -31s17.167 -13 30.5 -13
s23.5 4.33301 30.5 13s10.5 19 10.5 31z" />
    <glyph glyph-name="AE" unicode="&#xc6;" horiz-adv-x="879" 
d="M818 591h-318l27 -213h267v-75h-257l29 -228h255v-75h-330l-20 160h-280l-89 -160h-97l384 666h429v-75zM233 234h228l-41 343z" />
    <glyph glyph-name="Ccedilla" unicode="&#xc7;" horiz-adv-x="610" 
d="M454 -119c0 -15.333 -3.66504 -28.499 -10.998 -39.499s-17.333 -20.333 -30 -28s-27.834 -13.834 -45.501 -18.501s-36.834 -8.33398 -57.501 -11.001l-13 54c8.66699 1.33301 17.5 3 26.5 5s17.167 4.66699 24.5 8s13.5 7.33301 18.5 12s7.5 10.334 7.5 17.001
s-2.33301 12.334 -7 17.001s-10.667 8.5 -18 11.5s-15.666 5.5 -24.999 7.5l-28 6l29 71c-45.333 6 -85.5 18.833 -120.5 38.5s-64.5 44.334 -88.5 74.001s-42.167 63.834 -54.5 102.501s-18.5 80.334 -18.5 125.001c0 50 7.83301 96 23.5 138s38.167 78.333 67.5 109
s65.5 54.667 108.5 72s91.833 26 146.5 26c30 0 61.333 -2.83301 94 -8.5s60 -13.167 82 -22.5l-15 -71c-22.667 8 -47 14.5 -73 19.5s-51.667 7.5 -77 7.5c-83.333 0 -148.333 -23.333 -195 -70s-70 -113.334 -70 -200.001s23.333 -153.334 70 -200.001
s111.667 -70 195 -70c25.333 0 51 2.5 77 7.5s50.333 11.5 73 19.5l15 -71c-22 -9.33301 -49.333 -16.833 -82 -22.5s-64 -8.5 -94 -8.5h-9l-11 -32c9.33301 -2 19 -4.83301 29 -8.5s19.167 -8.33398 27.5 -14.001s15.166 -12.834 20.499 -21.501s8 -19 8 -31z" />
    <glyph glyph-name="Egrave" unicode="&#xc8;" horiz-adv-x="510" 
d="M80 666h371v-75h-279v-213h267v-75h-267v-228h282v-75h-374v666zM256 729l-115 114h106l84 -114h-75z" />
    <glyph glyph-name="Eacute" unicode="&#xc9;" horiz-adv-x="510" 
d="M80 666h371v-75h-279v-213h267v-75h-267v-228h282v-75h-374v666zM200 729l84 114h106l-115 -114h-75z" />
    <glyph glyph-name="Ecircumflex" unicode="&#xca;" horiz-adv-x="510" 
d="M80 666h371v-75h-279v-213h267v-75h-267v-228h282v-75h-374v666zM411 729h-80l-59 75l-59 -75h-80l92 114h94z" />
    <glyph glyph-name="Edieresis" unicode="&#xcb;" horiz-adv-x="510" 
d="M80 666h371v-75h-279v-213h267v-75h-267v-228h282v-75h-374v666zM228 789c0 -15.333 -4.83301 -27.666 -14.5 -36.999s-22.5 -14 -38.5 -14s-28.833 4.66699 -38.5 14s-14.5 21.666 -14.5 36.999s4.83301 27.666 14.5 36.999s22.5 14 38.5 14s28.833 -4.66699 38.5 -14
s14.5 -21.666 14.5 -36.999zM425 789c0 -15.333 -4.83301 -27.666 -14.5 -36.999s-22.5 -14 -38.5 -14s-28.833 4.66699 -38.5 14s-14.5 21.666 -14.5 36.999s4.83301 27.666 14.5 36.999s22.5 14 38.5 14s28.833 -4.66699 38.5 -14s14.5 -21.666 14.5 -36.999z" />
    <glyph glyph-name="Igrave" unicode="&#xcc;" horiz-adv-x="262" 
d="M177 0h-92v666h92v-666zM97 729l-115 114h106l84 -114h-75z" />
    <glyph glyph-name="Iacute" unicode="&#xcd;" horiz-adv-x="262" 
d="M177 0h-92v666h92v-666zM92 729l84 114h106l-115 -114h-75z" />
    <glyph glyph-name="Icircumflex" unicode="&#xce;" horiz-adv-x="262" 
d="M177 0h-92v666h92v-666zM270 729h-80l-59 75l-59 -75h-80l92 114h94z" />
    <glyph glyph-name="Idieresis" unicode="&#xcf;" horiz-adv-x="262" 
d="M177 0h-92v666h92v-666zM86 789c0 -15.333 -4.83301 -27.666 -14.5 -36.999s-22.5 -14 -38.5 -14s-28.833 4.66699 -38.5 14s-14.5 21.666 -14.5 36.999s4.83301 27.666 14.5 36.999s22.5 14 38.5 14s28.833 -4.66699 38.5 -14s14.5 -21.666 14.5 -36.999zM283 789
c0 -15.333 -4.83301 -27.666 -14.5 -36.999s-22.5 -14 -38.5 -14s-28.833 4.66699 -38.5 14s-14.5 21.666 -14.5 36.999s4.83301 27.666 14.5 36.999s22.5 14 38.5 14s28.833 -4.66699 38.5 -14s14.5 -21.666 14.5 -36.999z" />
    <glyph glyph-name="Eth" unicode="&#xd0;" horiz-adv-x="729" 
d="M45 370l81 0.00390625v296h185c57.333 0 109.333 -8.33301 156 -25s86.667 -39.834 120 -69.501s59 -64.834 77 -105.501s27 -85 27 -133s-9 -92.333 -27 -133s-43.667 -75.834 -77 -105.501s-73.333 -52.834 -120 -69.501s-98.667 -25 -156 -25h-185v296h-81v74z
M311 74.0039c40 0 77.5 5.83301 112.5 17.5s65.5 28.5 91.5 50.5s46.5 49 61.5 81s22.5 68.667 22.5 110c0 40.667 -7.5 77.167 -22.5 109.5s-35.5 59.5 -61.5 81.5s-56.5 38.833 -91.5 50.5s-72.5 17.5 -112.5 17.5h-93v-222h181v-74h-181v-222h93z" />
    <glyph glyph-name="Ntilde" unicode="&#xd1;" horiz-adv-x="709" 
d="M541 0l-373 523v-523h-88v666h88l373 -523v523h88v-666h-88zM432 734c-12.667 0 -25.999 2.5 -39.999 7.5l-43 15.5c-15.333 5.33301 -28.5 9.66602 -39.5 12.999s-21.167 5 -30.5 5c-12.667 0 -21.667 -4.16699 -27 -12.5s-10.666 -19.166 -15.999 -32.499l-55 19
c8.66699 34 20.334 58.167 35.001 72.5s36 21.5 64 21.5c16 0 31.333 -2.16699 46 -6.5s28 -8.83301 40 -13.5l36.5 -14.5c11 -4.33301 20.833 -6.5 29.5 -6.5c11.333 0 19.666 3.66699 24.999 11s10.666 17.333 15.999 30l54 -24
c-10.667 -29.333 -22.834 -50.833 -36.501 -64.5s-33.167 -20.5 -58.5 -20.5z" />
    <glyph glyph-name="Ograve" unicode="&#xd2;" horiz-adv-x="740" 
d="M370 -12c-52 0 -98.333 9.33301 -139 28s-74.667 43.667 -102 75s-48.166 68 -62.499 110s-21.5 86 -21.5 132s7.16699 90 21.5 132s35.166 78.667 62.499 110s61.333 56.333 102 75s87 28 139 28s98.333 -9.33301 139 -28s74.667 -43.667 102 -75
s48.166 -68 62.499 -110s21.5 -86 21.5 -132s-7.16699 -90 -21.5 -132s-35.166 -78.667 -62.499 -110s-61.333 -56.333 -102 -75s-87 -28 -139 -28zM370 62c38 0 71.667 7 101 21s53.666 33.333 72.999 58s34 53.5 44 86.5s15 68.167 15 105.5s-5 72.5 -15 105.5
s-24.667 61.667 -44 86s-43.666 43.666 -72.999 57.999s-63 21.5 -101 21.5s-71.667 -7.16699 -101 -21.5s-53.666 -33.666 -72.999 -57.999s-34 -53 -44 -86s-15 -68.167 -15 -105.5s5 -72.5 15 -105.5s24.667 -61.833 44 -86.5s43.666 -44 72.999 -58s63 -21 101 -21z
M337 729l-115 114h106l84 -114h-75z" />
    <glyph glyph-name="Oacute" unicode="&#xd3;" horiz-adv-x="740" 
d="M370 -12c-52 0 -98.333 9.33301 -139 28s-74.667 43.667 -102 75s-48.166 68 -62.499 110s-21.5 86 -21.5 132s7.16699 90 21.5 132s35.166 78.667 62.499 110s61.333 56.333 102 75s87 28 139 28s98.333 -9.33301 139 -28s74.667 -43.667 102 -75
s48.166 -68 62.499 -110s21.5 -86 21.5 -132s-7.16699 -90 -21.5 -132s-35.166 -78.667 -62.499 -110s-61.333 -56.333 -102 -75s-87 -28 -139 -28zM370 62c38 0 71.667 7 101 21s53.666 33.333 72.999 58s34 53.5 44 86.5s15 68.167 15 105.5s-5 72.5 -15 105.5
s-24.667 61.667 -44 86s-43.666 43.666 -72.999 57.999s-63 21.5 -101 21.5s-71.667 -7.16699 -101 -21.5s-53.666 -33.666 -72.999 -57.999s-34 -53 -44 -86s-15 -68.167 -15 -105.5s5 -72.5 15 -105.5s24.667 -61.833 44 -86.5s43.666 -44 72.999 -58s63 -21 101 -21z
M322 729l84 114h106l-115 -114h-75z" />
    <glyph glyph-name="Ocircumflex" unicode="&#xd4;" horiz-adv-x="740" 
d="M370 -12c-52 0 -98.333 9.33301 -139 28s-74.667 43.667 -102 75s-48.166 68 -62.499 110s-21.5 86 -21.5 132s7.16699 90 21.5 132s35.166 78.667 62.499 110s61.333 56.333 102 75s87 28 139 28s98.333 -9.33301 139 -28s74.667 -43.667 102 -75
s48.166 -68 62.499 -110s21.5 -86 21.5 -132s-7.16699 -90 -21.5 -132s-35.166 -78.667 -62.499 -110s-61.333 -56.333 -102 -75s-87 -28 -139 -28zM370 62c38 0 71.667 7 101 21s53.666 33.333 72.999 58s34 53.5 44 86.5s15 68.167 15 105.5s-5 72.5 -15 105.5
s-24.667 61.667 -44 86s-43.666 43.666 -72.999 57.999s-63 21.5 -101 21.5s-71.667 -7.16699 -101 -21.5s-53.666 -33.666 -72.999 -57.999s-34 -53 -44 -86s-15 -68.167 -15 -105.5s5 -72.5 15 -105.5s24.667 -61.833 44 -86.5s43.666 -44 72.999 -58s63 -21 101 -21z
M509 729h-80l-59 75l-59 -75h-80l92 114h94z" />
    <glyph glyph-name="Otilde" unicode="&#xd5;" horiz-adv-x="740" 
d="M370 -12c-52 0 -98.333 9.33301 -139 28s-74.667 43.667 -102 75s-48.166 68 -62.499 110s-21.5 86 -21.5 132s7.16699 90 21.5 132s35.166 78.667 62.499 110s61.333 56.333 102 75s87 28 139 28s98.333 -9.33301 139 -28s74.667 -43.667 102 -75
s48.166 -68 62.499 -110s21.5 -86 21.5 -132s-7.16699 -90 -21.5 -132s-35.166 -78.667 -62.499 -110s-61.333 -56.333 -102 -75s-87 -28 -139 -28zM370 62c38 0 71.667 7 101 21s53.666 33.333 72.999 58s34 53.5 44 86.5s15 68.167 15 105.5s-5 72.5 -15 105.5
s-24.667 61.667 -44 86s-43.666 43.666 -72.999 57.999s-63 21.5 -101 21.5s-71.667 -7.16699 -101 -21.5s-53.666 -33.666 -72.999 -57.999s-34 -53 -44 -86s-15 -68.167 -15 -105.5s5 -72.5 15 -105.5s24.667 -61.833 44 -86.5s43.666 -44 72.999 -58s63 -21 101 -21z
M448 734c-12.667 0 -25.999 2.5 -39.999 7.5l-43 15.5c-15.333 5.33301 -28.5 9.66602 -39.5 12.999s-21.167 5 -30.5 5c-12.667 0 -21.667 -4.16699 -27 -12.5s-10.666 -19.166 -15.999 -32.499l-55 19c8.66699 34 20.334 58.167 35.001 72.5s36 21.5 64 21.5
c16 0 31.333 -2.16699 46 -6.5s28 -8.83301 40 -13.5l36.5 -14.5c11 -4.33301 20.833 -6.5 29.5 -6.5c11.333 0 19.666 3.66699 24.999 11s10.666 17.333 15.999 30l54 -24c-10.667 -29.333 -22.834 -50.833 -36.501 -64.5s-33.167 -20.5 -58.5 -20.5z" />
    <glyph glyph-name="Odieresis" unicode="&#xd6;" horiz-adv-x="740" 
d="M370 -12c-52 0 -98.333 9.33301 -139 28s-74.667 43.667 -102 75s-48.166 68 -62.499 110s-21.5 86 -21.5 132s7.16699 90 21.5 132s35.166 78.667 62.499 110s61.333 56.333 102 75s87 28 139 28s98.333 -9.33301 139 -28s74.667 -43.667 102 -75
s48.166 -68 62.499 -110s21.5 -86 21.5 -132s-7.16699 -90 -21.5 -132s-35.166 -78.667 -62.499 -110s-61.333 -56.333 -102 -75s-87 -28 -139 -28zM370 62c38 0 71.667 7 101 21s53.666 33.333 72.999 58s34 53.5 44 86.5s15 68.167 15 105.5s-5 72.5 -15 105.5
s-24.667 61.667 -44 86s-43.666 43.666 -72.999 57.999s-63 21.5 -101 21.5s-71.667 -7.16699 -101 -21.5s-53.666 -33.666 -72.999 -57.999s-34 -53 -44 -86s-15 -68.167 -15 -105.5s5 -72.5 15 -105.5s24.667 -61.833 44 -86.5s43.666 -44 72.999 -58s63 -21 101 -21z
M324 789c0 -15.333 -4.83301 -27.666 -14.5 -36.999s-22.5 -14 -38.5 -14s-28.833 4.66699 -38.5 14s-14.5 21.666 -14.5 36.999s4.83301 27.666 14.5 36.999s22.5 14 38.5 14s28.833 -4.66699 38.5 -14s14.5 -21.666 14.5 -36.999zM521 789
c0 -15.333 -4.83301 -27.666 -14.5 -36.999s-22.5 -14 -38.5 -14s-28.833 4.66699 -38.5 14s-14.5 21.666 -14.5 36.999s4.83301 27.666 14.5 36.999s22.5 14 38.5 14s28.833 -4.66699 38.5 -14s14.5 -21.666 14.5 -36.999z" />
    <glyph glyph-name="multiply" unicode="&#xd7;" horiz-adv-x="582" 
d="M451 534l51 -51l-160 -160l160 -160l-51 -51l-160 161l-160 -161l-51 51l160 160l-160 160l51 51l160 -161z" />
    <glyph glyph-name="Oslash" unicode="&#xd8;" horiz-adv-x="746" 
d="M373 -12c-38.667 0 -73.833 5 -105.5 15s-60.167 24 -85.5 42l-87 -109l-46 37l89 111c-30 32 -52.5 69.5 -67.5 112.5s-22.5 88.5 -22.5 136.5c0 46 7.16699 90 21.5 132s35.166 78.667 62.499 110s61.333 56.333 102 75s87 28 139 28c38.667 0 74 -5.16699 106 -15.5
s60.667 -24.833 86 -43.5l88 111l46 -38l-90 -113c29.333 -32 51.5 -69 66.5 -111s22.5 -87 22.5 -135c0 -46 -7.16699 -90 -21.5 -132s-35.166 -78.667 -62.499 -110s-61.333 -56.333 -102 -75s-87 -28 -139 -28zM140.001 333c0 -35.333 4.16602 -68.501 12.499 -99.501
s21.166 -58.5 38.499 -82.5l324 406c-18.667 14.667 -39.667 26.167 -63 34.5s-49.666 12.5 -78.999 12.5c-38 0 -71.667 -7.16699 -101 -21.5s-53.666 -33.666 -72.999 -57.999s-34 -53 -44 -86s-15 -68.167 -15 -105.5zM373 61.999c38 0 71.668 6.99902 101.001 20.999
s53.666 33.333 72.999 58s34 53.5 44 86.5s15 68.167 15 105.5c0 34.667 -4.16699 67.334 -12.5 98.001s-20.833 57.667 -37.5 81l-324 -404c18.667 -14.667 39.667 -26 63 -34s49.333 -12 78 -12z" />
    <glyph glyph-name="Ugrave" unicode="&#xd9;" horiz-adv-x="674" 
d="M506 666h92v-430c0 -34.667 -5.66699 -67.167 -17 -97.5s-28 -56.666 -50 -78.999s-49.167 -39.833 -81.5 -52.5s-69.833 -19 -112.5 -19s-80.167 6.33301 -112.5 19s-59.5 30.167 -81.5 52.5s-38.667 48.666 -50 78.999s-17 62.833 -17 97.5v430h92v-434
c0 -50 14.167 -90.667 42.5 -122s70.5 -47 126.5 -47s98.167 15.667 126.5 47s42.5 72 42.5 122v434zM316 729l-115 114h106l84 -114h-75z" />
    <glyph glyph-name="Uacute" unicode="&#xda;" horiz-adv-x="674" 
d="M506 666h92v-430c0 -34.667 -5.66699 -67.167 -17 -97.5s-28 -56.666 -50 -78.999s-49.167 -39.833 -81.5 -52.5s-69.833 -19 -112.5 -19s-80.167 6.33301 -112.5 19s-59.5 30.167 -81.5 52.5s-38.667 48.666 -50 78.999s-17 62.833 -17 97.5v430h92v-434
c0 -50 14.167 -90.667 42.5 -122s70.5 -47 126.5 -47s98.167 15.667 126.5 47s42.5 72 42.5 122v434zM282 729l84 114h106l-115 -114h-75z" />
    <glyph glyph-name="Ucircumflex" unicode="&#xdb;" horiz-adv-x="674" 
d="M506 666h92v-430c0 -34.667 -5.66699 -67.167 -17 -97.5s-28 -56.666 -50 -78.999s-49.167 -39.833 -81.5 -52.5s-69.833 -19 -112.5 -19s-80.167 6.33301 -112.5 19s-59.5 30.167 -81.5 52.5s-38.667 48.666 -50 78.999s-17 62.833 -17 97.5v430h92v-434
c0 -50 14.167 -90.667 42.5 -122s70.5 -47 126.5 -47s98.167 15.667 126.5 47s42.5 72 42.5 122v434zM476 729h-80l-59 75l-59 -75h-80l92 114h94z" />
    <glyph glyph-name="Udieresis" unicode="&#xdc;" horiz-adv-x="674" 
d="M506 666h92v-430c0 -34.667 -5.66699 -67.167 -17 -97.5s-28 -56.666 -50 -78.999s-49.167 -39.833 -81.5 -52.5s-69.833 -19 -112.5 -19s-80.167 6.33301 -112.5 19s-59.5 30.167 -81.5 52.5s-38.667 48.666 -50 78.999s-17 62.833 -17 97.5v430h92v-434
c0 -50 14.167 -90.667 42.5 -122s70.5 -47 126.5 -47s98.167 15.667 126.5 47s42.5 72 42.5 122v434zM291 789c0 -15.333 -4.83301 -27.666 -14.5 -36.999s-22.5 -14 -38.5 -14s-28.833 4.66699 -38.5 14s-14.5 21.666 -14.5 36.999s4.83301 27.666 14.5 36.999
s22.5 14 38.5 14s28.833 -4.66699 38.5 -14s14.5 -21.666 14.5 -36.999zM488 789c0 -15.333 -4.83301 -27.666 -14.5 -36.999s-22.5 -14 -38.5 -14s-28.833 4.66699 -38.5 14s-14.5 21.666 -14.5 36.999s4.83301 27.666 14.5 36.999s22.5 14 38.5 14
s28.833 -4.66699 38.5 -14s14.5 -21.666 14.5 -36.999z" />
    <glyph glyph-name="Yacute" unicode="&#xdd;" horiz-adv-x="540" 
d="M437 666h98l-219 -403v-263h-92v263l-219 403h98l167 -318zM223 729l84 114h106l-115 -114h-75z" />
    <glyph glyph-name="Thorn" unicode="&#xde;" horiz-adv-x="516" 
d="M496 342c0 -32 -7 -60.834 -21 -86.501s-33.5 -47.5 -58.5 -65.5s-54.5 -31.833 -88.5 -41.5s-70.667 -14.5 -110 -14.5h-46v-134h-92v666h92v-129h69c36 0 69.5 -4 100.5 -12s58 -20.167 81 -36.5s41 -36.666 54 -60.999s19.5 -52.833 19.5 -85.5zM404 342.999
c0 22 -4.33301 40.499 -13 55.499s-20.5 27.333 -35.5 37s-32.667 16.667 -53 21s-41.833 6.5 -64.5 6.5h-66v-255h51c26.667 0 51.167 3 73.5 9s41.5 14.833 57.5 26.5s28.333 25.834 37 42.501s13 35.667 13 57z" />
    <glyph glyph-name="germandbls" unicode="&#xdf;" horiz-adv-x="590" 
d="M75 0l0.00195312 481.999c0 38.667 5.33301 72.5 16 101.5s25.834 53.333 45.501 73s43.334 34.5 71.001 44.5s58.5 15 92.5 15c22 0 43.833 -3 65.5 -9s40.834 -15.167 57.501 -27.5s30.167 -27.666 40.5 -45.999s15.5 -39.5 15.5 -63.5
c0 -25.333 -6.33301 -48.166 -19 -68.499s-25.334 -38.166 -38.001 -53.499l-24.5 -29.5c-7 -8.33301 -12.833 -16.166 -17.5 -23.499s-8.33398 -14.333 -11.001 -21s-4 -14 -4 -22s2.16699 -15.333 6.5 -22s10 -12.834 17 -18.501s14.833 -11 23.5 -16
s17.667 -10.5 27 -16.5l39.5 -25.5c14.333 -9 27.666 -19.333 39.999 -31s22.666 -25.167 30.999 -40.5s12.5 -33.333 12.5 -54s-4.5 -39.5 -13.5 -56.5s-21.333 -31.5 -37 -43.5s-34.167 -21.333 -55.5 -28s-44.333 -10 -69 -10c-19.333 0 -40.833 2 -64.5 6
s-44.167 9.66699 -61.5 17l12 71c20 -8 39.5 -13.833 58.5 -17.5s37.5 -5.5 55.5 -5.5c25.333 0 46.166 5.33301 62.499 16s24.5 26 24.5 46c0 10.667 -2.33301 20.167 -7 28.5s-11 16 -19 23s-17 13.667 -27 20s-20.333 12.5 -31 18.5c-17.333 10 -33 19.5 -47 28.5
s-25.833 18.5 -35.5 28.5s-17.167 21.167 -22.5 33.5s-8 27.166 -8 44.499c0 14 2.16699 27 6.5 39s9.66602 23 15.999 33s13 19.167 20 27.5l18.5 22.5l36 45.5c11.333 15 17 32.5 17 52.5c0 23.333 -9.16699 41.666 -27.5 54.999s-41.5 20 -69.5 20
c-41.333 0 -73.166 -14.167 -95.499 -42.5s-33.5 -68.833 -33.5 -121.5v-479h-90z" />
    <glyph glyph-name="agrave" unicode="&#xe0;" horiz-adv-x="501" 
d="M345 60c-7.33301 -8.66699 -16.3311 -17.165 -26.998 -25.498s-22.834 -15.833 -36.501 -22.5s-28.667 -12 -45 -16s-33.5 -6 -51.5 -6c-20 0 -38.333 3.16699 -55 9.5s-31 15.166 -43 26.499s-21.5 25.333 -28.5 42s-10.5 35 -10.5 55c0 44 15.5 77.333 46.5 100
s72.5 35.667 124.5 39c21.333 1.33301 42.5 2.33301 63.5 3s41.167 1 60.5 1v21c0 40.667 -8.66699 72.5 -26 95.5s-46 34.5 -86 34.5c-23.333 0 -45.5 -3 -66.5 -9s-41.167 -14.333 -60.5 -25l-21 66c25.333 15.333 51.166 26 77.499 32s55.166 9 86.499 9
c56.667 0 101.834 -17.333 135.501 -52s50.5 -84.334 50.5 -149.001v-289h-88v60zM211.002 56.002c26 0 50.3311 5.83105 72.998 17.498s42.334 26.5 59.001 44.5v89c-20 -1.33301 -38.667 -2.66602 -56 -3.99902s-34.666 -3 -51.999 -5
c-14 -1.33301 -27.167 -3.66602 -39.5 -6.99902s-23 -7.83301 -32 -13.5s-16 -13 -21 -22s-7.5 -19.833 -7.5 -32.5c0 -22.667 6.66699 -39.5 20 -50.5s32 -16.5 56 -16.5zM221 555l-98 160h100l74 -160h-76z" />
    <glyph glyph-name="aacute" unicode="&#xe1;" horiz-adv-x="501" 
d="M345 60c-7.33301 -8.66699 -16.3311 -17.165 -26.998 -25.498s-22.834 -15.833 -36.501 -22.5s-28.667 -12 -45 -16s-33.5 -6 -51.5 -6c-20 0 -38.333 3.16699 -55 9.5s-31 15.166 -43 26.499s-21.5 25.333 -28.5 42s-10.5 35 -10.5 55c0 44 15.5 77.333 46.5 100
s72.5 35.667 124.5 39c21.333 1.33301 42.5 2.33301 63.5 3s41.167 1 60.5 1v21c0 40.667 -8.66699 72.5 -26 95.5s-46 34.5 -86 34.5c-23.333 0 -45.5 -3 -66.5 -9s-41.167 -14.333 -60.5 -25l-21 66c25.333 15.333 51.166 26 77.499 32s55.166 9 86.499 9
c56.667 0 101.834 -17.333 135.501 -52s50.5 -84.334 50.5 -149.001v-289h-88v60zM211.002 56.002c26 0 50.3311 5.83105 72.998 17.498s42.334 26.5 59.001 44.5v89c-20 -1.33301 -38.667 -2.66602 -56 -3.99902s-34.666 -3 -51.999 -5
c-14 -1.33301 -27.167 -3.66602 -39.5 -6.99902s-23 -7.83301 -32 -13.5s-16 -13 -21 -22s-7.5 -19.833 -7.5 -32.5c0 -22.667 6.66699 -39.5 20 -50.5s32 -16.5 56 -16.5zM199 555l74 160h100l-98 -160h-76z" />
    <glyph glyph-name="acircumflex" unicode="&#xe2;" horiz-adv-x="501" 
d="M345 60c-7.33301 -8.66699 -16.3311 -17.165 -26.998 -25.498s-22.834 -15.833 -36.501 -22.5s-28.667 -12 -45 -16s-33.5 -6 -51.5 -6c-20 0 -38.333 3.16699 -55 9.5s-31 15.166 -43 26.499s-21.5 25.333 -28.5 42s-10.5 35 -10.5 55c0 44 15.5 77.333 46.5 100
s72.5 35.667 124.5 39c21.333 1.33301 42.5 2.33301 63.5 3s41.167 1 60.5 1v21c0 40.667 -8.66699 72.5 -26 95.5s-46 34.5 -86 34.5c-23.333 0 -45.5 -3 -66.5 -9s-41.167 -14.333 -60.5 -25l-21 66c25.333 15.333 51.166 26 77.499 32s55.166 9 86.499 9
c56.667 0 101.834 -17.333 135.501 -52s50.5 -84.334 50.5 -149.001v-289h-88v60zM211.002 56.002c26 0 50.3311 5.83105 72.998 17.498s42.334 26.5 59.001 44.5v89c-20 -1.33301 -38.667 -2.66602 -56 -3.99902s-34.666 -3 -51.999 -5
c-14 -1.33301 -27.167 -3.66602 -39.5 -6.99902s-23 -7.83301 -32 -13.5s-16 -13 -21 -22s-7.5 -19.833 -7.5 -32.5c0 -22.667 6.66699 -39.5 20 -50.5s32 -16.5 56 -16.5zM403 555h-80l-70 110l-70 -110h-80l107 160h86z" />
    <glyph glyph-name="atilde" unicode="&#xe3;" horiz-adv-x="501" 
d="M345 60c-7.33301 -8.66699 -16.3311 -17.165 -26.998 -25.498s-22.834 -15.833 -36.501 -22.5s-28.667 -12 -45 -16s-33.5 -6 -51.5 -6c-20 0 -38.333 3.16699 -55 9.5s-31 15.166 -43 26.499s-21.5 25.333 -28.5 42s-10.5 35 -10.5 55c0 44 15.5 77.333 46.5 100
s72.5 35.667 124.5 39c21.333 1.33301 42.5 2.33301 63.5 3s41.167 1 60.5 1v21c0 40.667 -8.66699 72.5 -26 95.5s-46 34.5 -86 34.5c-23.333 0 -45.5 -3 -66.5 -9s-41.167 -14.333 -60.5 -25l-21 66c25.333 15.333 51.166 26 77.499 32s55.166 9 86.499 9
c56.667 0 101.834 -17.333 135.501 -52s50.5 -84.334 50.5 -149.001v-289h-88v60zM211.002 56.002c26 0 50.3311 5.83105 72.998 17.498s42.334 26.5 59.001 44.5v89c-20 -1.33301 -38.667 -2.66602 -56 -3.99902s-34.666 -3 -51.999 -5
c-14 -1.33301 -27.167 -3.66602 -39.5 -6.99902s-23 -7.83301 -32 -13.5s-16 -13 -21 -22s-7.5 -19.833 -7.5 -32.5c0 -22.667 6.66699 -39.5 20 -50.5s32 -16.5 56 -16.5zM327 567c-13.333 0 -27.665 3.49902 -42.998 10.499s-27.666 12.833 -36.999 17.5s-18.5 9 -27.5 13
s-17.5 6 -25.5 6c-12.667 0 -22 -4.16699 -28 -12.5s-12.667 -21.166 -20 -38.499l-54 22c8.66699 32.667 20.5 57 35.5 73s37.167 24 66.5 24c13.333 0 25.666 -2.16699 36.999 -6.5s22.666 -9.5 33.999 -15.5c11.333 -5.33301 22 -10.833 32 -16.5s19.667 -8.5 29 -8.5
c12 0 21.167 4.66699 27.5 14s12.166 20 17.499 32l53 -25c-11.333 -28 -24.5 -49.833 -39.5 -65.5s-34.167 -23.5 -57.5 -23.5z" />
    <glyph glyph-name="adieresis" unicode="&#xe4;" horiz-adv-x="501" 
d="M345 60c-7.33301 -8.66699 -16.3311 -17.165 -26.998 -25.498s-22.834 -15.833 -36.501 -22.5s-28.667 -12 -45 -16s-33.5 -6 -51.5 -6c-20 0 -38.333 3.16699 -55 9.5s-31 15.166 -43 26.499s-21.5 25.333 -28.5 42s-10.5 35 -10.5 55c0 44 15.5 77.333 46.5 100
s72.5 35.667 124.5 39c21.333 1.33301 42.5 2.33301 63.5 3s41.167 1 60.5 1v21c0 40.667 -8.66699 72.5 -26 95.5s-46 34.5 -86 34.5c-23.333 0 -45.5 -3 -66.5 -9s-41.167 -14.333 -60.5 -25l-21 66c25.333 15.333 51.166 26 77.499 32s55.166 9 86.499 9
c56.667 0 101.834 -17.333 135.501 -52s50.5 -84.334 50.5 -149.001v-289h-88v60zM211.002 56.002c26 0 50.3311 5.83105 72.998 17.498s42.334 26.5 59.001 44.5v89c-20 -1.33301 -38.667 -2.66602 -56 -3.99902s-34.666 -3 -51.999 -5
c-14 -1.33301 -27.167 -3.66602 -39.5 -6.99902s-23 -7.83301 -32 -13.5s-16 -13 -21 -22s-7.5 -19.833 -7.5 -32.5c0 -22.667 6.66699 -39.5 20 -50.5s32 -16.5 56 -16.5zM218 632c0 -15.333 -5 -28.166 -15 -38.499s-23 -15.5 -39 -15.5s-29 5.16699 -39 15.5
s-15 23.166 -15 38.499s5 28.166 15 38.499s23 15.5 39 15.5s29 -5.16699 39 -15.5s15 -23.166 15 -38.499zM399 632c0 -15.333 -5 -28.166 -15 -38.499s-23 -15.5 -39 -15.5s-29 5.16699 -39 15.5s-15 23.166 -15 38.499s5 28.166 15 38.499s23 15.5 39 15.5
s29 -5.16699 39 -15.5s15 -23.166 15 -38.499z" />
    <glyph glyph-name="aring" unicode="&#xe5;" horiz-adv-x="501" 
d="M345 60c-7.33301 -8.66699 -16.3311 -17.165 -26.998 -25.498s-22.834 -15.833 -36.501 -22.5s-28.667 -12 -45 -16s-33.5 -6 -51.5 -6c-20 0 -38.333 3.16699 -55 9.5s-31 15.166 -43 26.499s-21.5 25.333 -28.5 42s-10.5 35 -10.5 55c0 44 15.5 77.333 46.5 100
s72.5 35.667 124.5 39c21.333 1.33301 42.5 2.33301 63.5 3s41.167 1 60.5 1v21c0 40.667 -8.66699 72.5 -26 95.5s-46 34.5 -86 34.5c-23.333 0 -45.5 -3 -66.5 -9s-41.167 -14.333 -60.5 -25l-21 66c25.333 15.333 51.166 26 77.499 32s55.166 9 86.499 9
c56.667 0 101.834 -17.333 135.501 -52s50.5 -84.334 50.5 -149.001v-289h-88v60zM211.002 56.002c26 0 50.3311 5.83105 72.998 17.498s42.334 26.5 59.001 44.5v89c-20 -1.33301 -38.667 -2.66602 -56 -3.99902s-34.666 -3 -51.999 -5
c-14 -1.33301 -27.167 -3.66602 -39.5 -6.99902s-23 -7.83301 -32 -13.5s-16 -13 -21 -22s-7.5 -19.833 -7.5 -32.5c0 -22.667 6.66699 -39.5 20 -50.5s32 -16.5 56 -16.5zM253 719c14.667 0 27.5 -2.33301 38.5 -7s20.167 -11 27.5 -19s12.833 -17 16.5 -27
s5.5 -20.333 5.5 -31c0 -21.333 -7.33301 -40.5 -22 -57.5s-36.667 -25.5 -66 -25.5s-51.333 8.5 -66 25.5s-22 36.167 -22 57.5c0 10.667 1.83301 21 5.5 31s9.16699 19 16.5 27s16.5 14.333 27.5 19s23.833 7 38.5 7zM294 635c0 12 -3.5 22.333 -10.5 31
s-17.167 13 -30.5 13s-23.5 -4.33301 -30.5 -13s-10.5 -19 -10.5 -31s3.5 -22.167 10.5 -30.5s17.167 -12.5 30.5 -12.5s23.5 4.16699 30.5 12.5s10.5 18.5 10.5 30.5z" />
    <glyph glyph-name="ae" unicode="&#xe6;" horiz-adv-x="800" 
d="M567 490c30.667 0 57.6631 -5.16895 80.9961 -15.502s42.833 -24.333 58.5 -42s27.5 -38.5 35.5 -62.5s12 -49.667 12 -77c0 -24.667 -3.66699 -51.667 -11 -81h-303c1.33301 -46 13.833 -82.667 37.5 -110s61.834 -41 114.501 -41c26 0 50.5 2.83301 73.5 8.5
s45.167 13.5 66.5 23.5l17 -66c-20 -10.667 -44 -19.5 -72 -26.5s-58.667 -10.5 -92 -10.5c-40.667 0 -76.167 6.83301 -106.5 20.5s-55.166 32.167 -74.499 55.5c-26 -22.667 -55.5 -41 -88.5 -55s-69.5 -21 -109.5 -21c-22.667 0 -43.167 3.33301 -61.5 10
s-34.166 15.834 -47.499 27.501s-23.666 25.667 -30.999 42s-11 34.166 -11 53.499c0 48 14.667 83.667 44 107s70 37 122 41c19.333 1.33301 40.333 2.33301 63 3s44 1.33398 64 2.00098v21c0 40 -9.66699 70 -29 90s-47 30 -83 30c-23.333 0 -44.833 -3 -64.5 -9
s-39.5 -14 -59.5 -24l-18 68c20 11.333 43.167 20.5 69.5 27.5s53.833 10.5 82.5 10.5c38.667 0 70.667 -6.66699 96 -20s46 -32.666 62 -57.999c18.667 24 41.5 43 68.5 57s58.5 21 94.5 21zM223.996 55.998c31.333 0 59.334 5.66797 84.001 17.001s46 25.333 64 42
c-6.66699 14 -11.834 28.833 -15.501 44.5s-6.16699 32.167 -7.5 49.5c-18 -0.666992 -37.167 -1.33398 -57.5 -2.00098s-40.166 -1.66699 -59.499 -3c-26.667 -2 -48.667 -9 -66 -21s-26 -30.667 -26 -56s7.66699 -43.5 23 -54.5s35.666 -16.5 60.999 -16.5z
M564.997 422.999c-39.333 0 -69.5 -13.333 -90.5 -40s-32.5 -60.667 -34.5 -102h226c0.666992 4.66699 1.16699 9.16699 1.5 13.5s0.5 8.83301 0.5 13.5c0 34.667 -8.66699 62.5 -26 83.5s-43 31.5 -77 31.5z" />
    <glyph glyph-name="ccedilla" unicode="&#xe7;" horiz-adv-x="446" 
d="M349 -119c0 -15.333 -3.66504 -28.4971 -10.998 -39.4971s-17.333 -20.333 -30 -28s-27.834 -13.834 -45.501 -18.501s-36.834 -8.33398 -57.501 -11.001l-13 54c8.66699 1.33301 17.5 3 26.5 5s17.167 4.66699 24.5 8s13.5 7.33301 18.5 12s7.5 10.334 7.5 17.001
s-2.33301 12.334 -7 17.001s-10.667 8.5 -18 11.5s-15.666 5.5 -24.999 7.5l-28 6l30 73c-31.333 6 -58.5 16.5 -81.5 31.5s-42.167 33.5 -57.5 55.5s-26.833 46.5 -34.5 73.5s-11.5 55.167 -11.5 84.5c0 33.333 5 65.166 15 95.499s25 57 45 80s45 41.167 75 54.5
s65 20 105 20c26.667 0 51.667 -2.33301 75 -7s43.333 -11 60 -19l-13 -69c-17.333 7.33301 -35.833 13 -55.5 17s-39.167 6 -58.5 6c-54 0 -93.833 -16.5 -119.5 -49.5s-38.5 -75.833 -38.5 -128.5s12.833 -95.5 38.5 -128.5s65.5 -49.5 119.5 -49.5
c19.333 0 38.833 2 58.5 6s38.167 9.66699 55.5 17l13 -69c-16.667 -8 -37.667 -14.333 -63 -19s-49.333 -7 -72 -7l-12 -34c9.33301 -2 19 -4.83301 29 -8.5s19.167 -8.33398 27.5 -14.001s15.166 -12.834 20.499 -21.501s8 -19 8 -31z" />
    <glyph glyph-name="egrave" unicode="&#xe8;" horiz-adv-x="484" 
d="M260 490c30.667 0 57.498 -5 80.498 -15s42.333 -23.667 58 -41s27.334 -37.833 35.001 -61.5s11.5 -49.167 11.5 -76.5s-3.33301 -54.333 -10 -81h-303c0.666992 -23.333 4 -44.333 10 -63s15.167 -34.834 27.5 -48.501s28.333 -24.167 48 -31.5s43.5 -11 71.5 -11
c26 0 50.5 2.66699 73.5 8s44.167 12 63.5 20l12 -67c-21.333 -10 -46.166 -17.833 -74.499 -23.5s-57.5 -8.5 -87.5 -8.5c-40 0 -74.833 6.5 -104.5 19.5s-54.167 30.667 -73.5 53s-33.833 48.5 -43.5 78.5s-14.5 62.333 -14.5 97s5 67.334 15 98.001s24.5 57.5 43.5 80.5
s42.167 41 69.5 54s58 19.5 92 19.5zM256.998 423c-19.333 0 -36.332 -3.66699 -50.999 -11s-27.334 -17.333 -38.001 -30s-19 -27.5 -25 -44.5s-9.66699 -34.833 -11 -53.5h226c2 18.667 1.66699 36.5 -1 53.5s-8 31.833 -16 44.5s-19 22.667 -33 30s-31 11 -51 11z
M220.999 555l-98 160h100l74 -160h-76z" />
    <glyph glyph-name="eacute" unicode="&#xe9;" horiz-adv-x="484" 
d="M260 490c30.667 0 57.498 -5 80.498 -15s42.333 -23.667 58 -41s27.334 -37.833 35.001 -61.5s11.5 -49.167 11.5 -76.5s-3.33301 -54.333 -10 -81h-303c0.666992 -23.333 4 -44.333 10 -63s15.167 -34.834 27.5 -48.501s28.333 -24.167 48 -31.5s43.5 -11 71.5 -11
c26 0 50.5 2.66699 73.5 8s44.167 12 63.5 20l12 -67c-21.333 -10 -46.166 -17.833 -74.499 -23.5s-57.5 -8.5 -87.5 -8.5c-40 0 -74.833 6.5 -104.5 19.5s-54.167 30.667 -73.5 53s-33.833 48.5 -43.5 78.5s-14.5 62.333 -14.5 97s5 67.334 15 98.001s24.5 57.5 43.5 80.5
s42.167 41 69.5 54s58 19.5 92 19.5zM256.998 423c-19.333 0 -36.332 -3.66699 -50.999 -11s-27.334 -17.333 -38.001 -30s-19 -27.5 -25 -44.5s-9.66699 -34.833 -11 -53.5h226c2 18.667 1.66699 36.5 -1 53.5s-8 31.833 -16 44.5s-19 22.667 -33 30s-31 11 -51 11z
M206.999 555l74 160h100l-98 -160h-76z" />
    <glyph glyph-name="ecircumflex" unicode="&#xea;" horiz-adv-x="484" 
d="M260 490c30.667 0 57.498 -5 80.498 -15s42.333 -23.667 58 -41s27.334 -37.833 35.001 -61.5s11.5 -49.167 11.5 -76.5s-3.33301 -54.333 -10 -81h-303c0.666992 -23.333 4 -44.333 10 -63s15.167 -34.834 27.5 -48.501s28.333 -24.167 48 -31.5s43.5 -11 71.5 -11
c26 0 50.5 2.66699 73.5 8s44.167 12 63.5 20l12 -67c-21.333 -10 -46.166 -17.833 -74.499 -23.5s-57.5 -8.5 -87.5 -8.5c-40 0 -74.833 6.5 -104.5 19.5s-54.167 30.667 -73.5 53s-33.833 48.5 -43.5 78.5s-14.5 62.333 -14.5 97s5 67.334 15 98.001s24.5 57.5 43.5 80.5
s42.167 41 69.5 54s58 19.5 92 19.5zM256.998 423c-19.333 0 -36.332 -3.66699 -50.999 -11s-27.334 -17.333 -38.001 -30s-19 -27.5 -25 -44.5s-9.66699 -34.833 -11 -53.5h226c2 18.667 1.66699 36.5 -1 53.5s-8 31.833 -16 44.5s-19 22.667 -33 30s-31 11 -51 11z
M407.999 555h-80l-70 110l-70 -110h-80l107 160h86z" />
    <glyph glyph-name="edieresis" unicode="&#xeb;" horiz-adv-x="484" 
d="M260 490c30.667 0 57.498 -5 80.498 -15s42.333 -23.667 58 -41s27.334 -37.833 35.001 -61.5s11.5 -49.167 11.5 -76.5s-3.33301 -54.333 -10 -81h-303c0.666992 -23.333 4 -44.333 10 -63s15.167 -34.834 27.5 -48.501s28.333 -24.167 48 -31.5s43.5 -11 71.5 -11
c26 0 50.5 2.66699 73.5 8s44.167 12 63.5 20l12 -67c-21.333 -10 -46.166 -17.833 -74.499 -23.5s-57.5 -8.5 -87.5 -8.5c-40 0 -74.833 6.5 -104.5 19.5s-54.167 30.667 -73.5 53s-33.833 48.5 -43.5 78.5s-14.5 62.333 -14.5 97s5 67.334 15 98.001s24.5 57.5 43.5 80.5
s42.167 41 69.5 54s58 19.5 92 19.5zM256.998 423c-19.333 0 -36.332 -3.66699 -50.999 -11s-27.334 -17.333 -38.001 -30s-19 -27.5 -25 -44.5s-9.66699 -34.833 -11 -53.5h226c2 18.667 1.66699 36.5 -1 53.5s-8 31.833 -16 44.5s-19 22.667 -33 30s-31 11 -51 11z
M223.999 632c0 -15.333 -5 -28.166 -15 -38.499s-23 -15.5 -39 -15.5s-29 5.16699 -39 15.5s-15 23.166 -15 38.499s5 28.166 15 38.499s23 15.5 39 15.5s29 -5.16699 39 -15.5s15 -23.166 15 -38.499zM404.999 632c0 -15.333 -5 -28.166 -15 -38.499s-23 -15.5 -39 -15.5
s-29 5.16699 -39 15.5s-15 23.166 -15 38.499s5 28.166 15 38.499s23 15.5 39 15.5s29 -5.16699 39 -15.5s15 -23.166 15 -38.499z" />
    <glyph glyph-name="igrave" unicode="&#xec;" horiz-adv-x="240" 
d="M75 0v480h90v-480h-90zM83 555l-98 160h100l74 -160h-76z" />
    <glyph glyph-name="iacute" unicode="&#xed;" horiz-adv-x="240" 
d="M75 0v480h90v-480h-90zM83 555l74 160h100l-98 -160h-76z" />
    <glyph glyph-name="icircumflex" unicode="&#xee;" horiz-adv-x="240" 
d="M75 0v480h90v-480h-90zM270 555h-80l-70 110l-70 -110h-80l107 160h86z" />
    <glyph glyph-name="idieresis" unicode="&#xef;" horiz-adv-x="240" 
d="M75 0v480h90v-480h-90zM84 632c0 -15.333 -5 -28.166 -15 -38.499s-23 -15.5 -39 -15.5s-29 5.16699 -39 15.5s-15 23.166 -15 38.499s5 28.166 15 38.499s23 15.5 39 15.5s29 -5.16699 39 -15.5s15 -23.166 15 -38.499zM265 632c0 -15.333 -5 -28.166 -15 -38.499
s-23 -15.5 -39 -15.5s-29 5.16699 -39 15.5s-15 23.166 -15 38.499s5 28.166 15 38.499s23 15.5 39 15.5s29 -5.16699 39 -15.5s15 -23.166 15 -38.499z" />
    <glyph glyph-name="eth" unicode="&#xf0;" horiz-adv-x="547" 
d="M245 605c-21.333 10 -44.333 18.499 -69 25.499s-50 13.167 -76 18.5l17 67c35.333 -4 69.166 -11 101.499 -21s63.166 -23 92.499 -39l83 64l35 -45l-68 -52c44 -34 78.833 -76.5 104.5 -127.5s38.5 -111.833 38.5 -182.5c0 -46.667 -5 -89.667 -15 -129
s-24.833 -73.333 -44.5 -102s-44.167 -51.167 -73.5 -67.5s-63.666 -24.5 -102.999 -24.5c-38.667 0 -72.167 6.66699 -100.5 20s-51.666 31 -69.999 53s-32 47.333 -41 76s-13.5 58.667 -13.5 90c0 37.333 5.5 70.333 16.5 99s26.167 52.667 45.5 72s42 34 68 44
s54.333 15 85 15c31.333 0 59.5 -3.83301 84.5 -11.5s47.5 -18.167 67.5 -31.5c-9.33301 36 -23.5 66.833 -42.5 92.5s-41.833 47.834 -68.5 66.501l-97 -75l-36 45zM131 226.999c0 -49.333 11.6689 -89.501 35.002 -120.501s57.666 -46.5 102.999 -46.5
c26.667 0 49.334 6.5 68.001 19.5s33.667 29.5 45 49.5s19.666 42 24.999 66s8 46.667 8 68v81c-17.333 12.667 -37.333 23.334 -60 32.001s-47.334 13 -74.001 13c-48 0 -85 -14 -111 -42s-39 -68 -39 -120z" />
    <glyph glyph-name="ntilde" unicode="&#xf1;" horiz-adv-x="554" 
d="M75 0l0.000976562 480.002h86v-70c18 25.333 39.667 45 65 59s54.666 21 87.999 21c30 0 55.667 -6.33301 77 -19s39 -29.834 53 -51.501s24.167 -46.834 30.5 -75.501s9.5 -59 9.5 -91v-253h-90v250c0 24.667 -2 47.167 -6 67.5s-10.333 37.833 -19 52.5
s-20 26.167 -34 34.5s-31 12.5 -51 12.5c-26.667 0 -50.167 -7 -70.5 -21s-36.5 -28.667 -48.5 -44v-352h-90zM349.001 567.002c-13.333 0 -27.665 3.49902 -42.998 10.499s-27.666 12.833 -36.999 17.5s-18.5 9 -27.5 13s-17.5 6 -25.5 6c-12.667 0 -22 -4.16699 -28 -12.5
s-12.667 -21.166 -20 -38.499l-54 22c8.66699 32.667 20.5 57 35.5 73s37.167 24 66.5 24c13.333 0 25.666 -2.16699 36.999 -6.5s22.666 -9.5 33.999 -15.5c11.333 -5.33301 22 -10.833 32 -16.5s19.667 -8.5 29 -8.5c12 0 21.167 4.66699 27.5 14s12.166 20 17.499 32
l53 -25c-11.333 -28 -24.5 -49.833 -39.5 -65.5s-34.167 -23.5 -57.5 -23.5z" />
    <glyph glyph-name="ograve" unicode="&#xf2;" horiz-adv-x="546" 
d="M506 240c0 -34 -5.16699 -66 -15.5 -96s-25.5 -56.5 -45.5 -79.5s-44.5 -41.167 -73.5 -54.5s-61.833 -20 -98.5 -20c-37.333 0 -70.333 6.66699 -99 20s-53 31.5 -73 54.5s-35.167 49.5 -45.5 79.5s-15.5 62 -15.5 96s5.16699 66 15.5 96s25.5 56.5 45.5 79.5
s44.333 41.167 73 54.5s61.667 20 99 20c36.667 0 69.5 -6.66699 98.5 -20s53.5 -31.5 73.5 -54.5s35.167 -49.5 45.5 -79.5s15.5 -62 15.5 -96zM416 240c0 24.667 -3 48 -9 70s-14.833 41.167 -26.5 57.5s-26.5 29.166 -44.5 38.499s-39 14 -63 14s-45 -4.66699 -63 -14
s-32.833 -22.166 -44.5 -38.499s-20.5 -35.5 -26.5 -57.5s-9 -45.333 -9 -70c0 -25.333 3 -48.833 9 -70.5s14.833 -40.667 26.5 -57s26.5 -29.166 44.5 -38.499s39 -14 63 -14s45 4.66699 63 14s32.833 22.166 44.5 38.499s20.5 35.333 26.5 57s9 45.167 9 70.5zM233 555
l-98 160h100l74 -160h-76z" />
    <glyph glyph-name="oacute" unicode="&#xf3;" horiz-adv-x="546" 
d="M506 240c0 -34 -5.16699 -66 -15.5 -96s-25.5 -56.5 -45.5 -79.5s-44.5 -41.167 -73.5 -54.5s-61.833 -20 -98.5 -20c-37.333 0 -70.333 6.66699 -99 20s-53 31.5 -73 54.5s-35.167 49.5 -45.5 79.5s-15.5 62 -15.5 96s5.16699 66 15.5 96s25.5 56.5 45.5 79.5
s44.333 41.167 73 54.5s61.667 20 99 20c36.667 0 69.5 -6.66699 98.5 -20s53.5 -31.5 73.5 -54.5s35.167 -49.5 45.5 -79.5s15.5 -62 15.5 -96zM416 240c0 24.667 -3 48 -9 70s-14.833 41.167 -26.5 57.5s-26.5 29.166 -44.5 38.499s-39 14 -63 14s-45 -4.66699 -63 -14
s-32.833 -22.166 -44.5 -38.499s-20.5 -35.5 -26.5 -57.5s-9 -45.333 -9 -70c0 -25.333 3 -48.833 9 -70.5s14.833 -40.667 26.5 -57s26.5 -29.166 44.5 -38.499s39 -14 63 -14s45 4.66699 63 14s32.833 22.166 44.5 38.499s20.5 35.333 26.5 57s9 45.167 9 70.5zM234 555
l74 160h100l-98 -160h-76z" />
    <glyph glyph-name="ocircumflex" unicode="&#xf4;" horiz-adv-x="546" 
d="M506 240c0 -34 -5.16699 -66 -15.5 -96s-25.5 -56.5 -45.5 -79.5s-44.5 -41.167 -73.5 -54.5s-61.833 -20 -98.5 -20c-37.333 0 -70.333 6.66699 -99 20s-53 31.5 -73 54.5s-35.167 49.5 -45.5 79.5s-15.5 62 -15.5 96s5.16699 66 15.5 96s25.5 56.5 45.5 79.5
s44.333 41.167 73 54.5s61.667 20 99 20c36.667 0 69.5 -6.66699 98.5 -20s53.5 -31.5 73.5 -54.5s35.167 -49.5 45.5 -79.5s15.5 -62 15.5 -96zM416 240c0 24.667 -3 48 -9 70s-14.833 41.167 -26.5 57.5s-26.5 29.166 -44.5 38.499s-39 14 -63 14s-45 -4.66699 -63 -14
s-32.833 -22.166 -44.5 -38.499s-20.5 -35.5 -26.5 -57.5s-9 -45.333 -9 -70c0 -25.333 3 -48.833 9 -70.5s14.833 -40.667 26.5 -57s26.5 -29.166 44.5 -38.499s39 -14 63 -14s45 4.66699 63 14s32.833 22.166 44.5 38.499s20.5 35.333 26.5 57s9 45.167 9 70.5zM423 555
h-80l-70 110l-70 -110h-80l107 160h86z" />
    <glyph glyph-name="otilde" unicode="&#xf5;" horiz-adv-x="546" 
d="M506 240c0 -34 -5.16699 -66 -15.5 -96s-25.5 -56.5 -45.5 -79.5s-44.5 -41.167 -73.5 -54.5s-61.833 -20 -98.5 -20c-37.333 0 -70.333 6.66699 -99 20s-53 31.5 -73 54.5s-35.167 49.5 -45.5 79.5s-15.5 62 -15.5 96s5.16699 66 15.5 96s25.5 56.5 45.5 79.5
s44.333 41.167 73 54.5s61.667 20 99 20c36.667 0 69.5 -6.66699 98.5 -20s53.5 -31.5 73.5 -54.5s35.167 -49.5 45.5 -79.5s15.5 -62 15.5 -96zM416 240c0 24.667 -3 48 -9 70s-14.833 41.167 -26.5 57.5s-26.5 29.166 -44.5 38.499s-39 14 -63 14s-45 -4.66699 -63 -14
s-32.833 -22.166 -44.5 -38.499s-20.5 -35.5 -26.5 -57.5s-9 -45.333 -9 -70c0 -25.333 3 -48.833 9 -70.5s14.833 -40.667 26.5 -57s26.5 -29.166 44.5 -38.499s39 -14 63 -14s45 4.66699 63 14s32.833 22.166 44.5 38.499s20.5 35.333 26.5 57s9 45.167 9 70.5zM347 567
c-13.333 0 -27.665 3.49902 -42.998 10.499s-27.666 12.833 -36.999 17.5s-18.5 9 -27.5 13s-17.5 6 -25.5 6c-12.667 0 -22 -4.16699 -28 -12.5s-12.667 -21.166 -20 -38.499l-54 22c8.66699 32.667 20.5 57 35.5 73s37.167 24 66.5 24
c13.333 0 25.666 -2.16699 36.999 -6.5s22.666 -9.5 33.999 -15.5c11.333 -5.33301 22 -10.833 32 -16.5s19.667 -8.5 29 -8.5c12 0 21.167 4.66699 27.5 14s12.166 20 17.499 32l53 -25c-11.333 -28 -24.5 -49.833 -39.5 -65.5s-34.167 -23.5 -57.5 -23.5z" />
    <glyph glyph-name="odieresis" unicode="&#xf6;" horiz-adv-x="546" 
d="M506 240c0 -34 -5.16699 -66 -15.5 -96s-25.5 -56.5 -45.5 -79.5s-44.5 -41.167 -73.5 -54.5s-61.833 -20 -98.5 -20c-37.333 0 -70.333 6.66699 -99 20s-53 31.5 -73 54.5s-35.167 49.5 -45.5 79.5s-15.5 62 -15.5 96s5.16699 66 15.5 96s25.5 56.5 45.5 79.5
s44.333 41.167 73 54.5s61.667 20 99 20c36.667 0 69.5 -6.66699 98.5 -20s53.5 -31.5 73.5 -54.5s35.167 -49.5 45.5 -79.5s15.5 -62 15.5 -96zM416 240c0 24.667 -3 48 -9 70s-14.833 41.167 -26.5 57.5s-26.5 29.166 -44.5 38.499s-39 14 -63 14s-45 -4.66699 -63 -14
s-32.833 -22.166 -44.5 -38.499s-20.5 -35.5 -26.5 -57.5s-9 -45.333 -9 -70c0 -25.333 3 -48.833 9 -70.5s14.833 -40.667 26.5 -57s26.5 -29.166 44.5 -38.499s39 -14 63 -14s45 4.66699 63 14s32.833 22.166 44.5 38.499s20.5 35.333 26.5 57s9 45.167 9 70.5zM236 632
c0 -15.333 -5 -28.166 -15 -38.499s-23 -15.5 -39 -15.5s-29 5.16699 -39 15.5s-15 23.166 -15 38.499s5 28.166 15 38.499s23 15.5 39 15.5s29 -5.16699 39 -15.5s15 -23.166 15 -38.499zM417 632c0 -15.333 -5 -28.166 -15 -38.499s-23 -15.5 -39 -15.5
s-29 5.16699 -39 15.5s-15 23.166 -15 38.499s5 28.166 15 38.499s23 15.5 39 15.5s29 -5.16699 39 -15.5s15 -23.166 15 -38.499z" />
    <glyph glyph-name="divide" unicode="&#xf7;" horiz-adv-x="612" 
d="M75 289v68h462v-68h-462zM249 510c0 15.333 5.16699 28.666 15.5 39.999s24.166 17 41.499 17s31.166 -5.66699 41.499 -17s15.5 -24.666 15.5 -39.999s-5.16699 -28.666 -15.5 -39.999s-24.166 -17 -41.499 -17s-31.166 5.66699 -41.499 17s-15.5 24.666 -15.5 39.999z
M249 136c0 15.333 5.16699 28.666 15.5 39.999s24.166 17 41.499 17s31.166 -5.66699 41.499 -17s15.5 -24.666 15.5 -39.999s-5.16699 -28.666 -15.5 -39.999s-24.166 -17 -41.499 -17s-31.166 5.66699 -41.499 17s-15.5 24.666 -15.5 39.999z" />
    <glyph glyph-name="oslash" unicode="&#xf8;" horiz-adv-x="556" 
d="M111 58c-21.333 23.333 -37.666 50.5 -48.999 81.5s-17 64.5 -17 100.5c0 34 5.16699 66 15.5 96s25.5 56.5 45.5 79.5s44.333 41.167 73 54.5s61.667 20 99 20c47.333 0 89.333 -11.667 126 -35l64 87l43 -31l-66 -90c21.333 -23.333 37.666 -50.5 48.999 -81.5
s17 -64.167 17 -99.5c0 -34 -5.16699 -66 -15.5 -96s-25.5 -56.5 -45.5 -79.5s-44.5 -41.167 -73.5 -54.5s-61.833 -20 -98.5 -20c-25.333 0 -48.5 3 -69.5 9s-40.167 14.667 -57.5 26l-64 -87l-42 31zM421 240c0 44 -9 81.667 -27 113l-197 -266
c11.333 -7.33301 23.5 -13.166 36.5 -17.499s27.833 -6.5 44.5 -6.5c24 0 44.833 4.5 62.5 13.5s32.5 21.5 44.5 37.5s21 34.667 27 56s9 44.666 9 69.999zM135 240c0 -44.667 9 -82.3311 27 -112.998l196 266c-11.333 7.33301 -23.5 13.166 -36.5 17.499
s-27.5 6.5 -43.5 6.5c-24 0 -44.833 -4.5 -62.5 -13.5s-32.5 -21.5 -44.5 -37.5s-21 -34.833 -27 -56.5s-9 -44.834 -9 -69.501z" />
    <glyph glyph-name="ugrave" unicode="&#xf9;" horiz-adv-x="545" 
d="M470 480l-0.000976562 -480.002h-86v70c-17.333 -23.333 -38.833 -42.5 -64.5 -57.5s-55.167 -22.5 -88.5 -22.5c-30 0 -55.5 6.33301 -76.5 19s-38.167 29.834 -51.5 51.501s-23 46.834 -29 75.501s-9 59 -9 91v253h90v-250c0 -24.667 1.66699 -47.167 5 -67.5
s9 -37.833 17 -52.5s18.833 -26.167 32.5 -34.5s30.834 -12.5 51.501 -12.5c26.667 0 50 7 70 21s36.333 28.667 49 44v352h90zM257.999 554.998l-98 160h100l74 -160h-76z" />
    <glyph glyph-name="uacute" unicode="&#xfa;" horiz-adv-x="545" 
d="M470 480l-0.000976562 -480.002h-86v70c-17.333 -23.333 -38.833 -42.5 -64.5 -57.5s-55.167 -22.5 -88.5 -22.5c-30 0 -55.5 6.33301 -76.5 19s-38.167 29.834 -51.5 51.501s-23 46.834 -29 75.501s-9 59 -9 91v253h90v-250c0 -24.667 1.66699 -47.167 5 -67.5
s9 -37.833 17 -52.5s18.833 -26.167 32.5 -34.5s30.834 -12.5 51.501 -12.5c26.667 0 50 7 70 21s36.333 28.667 49 44v352h90zM224.999 554.998l74 160h100l-98 -160h-76z" />
    <glyph glyph-name="ucircumflex" unicode="&#xfb;" horiz-adv-x="545" 
d="M470 480l-0.000976562 -480.002h-86v70c-17.333 -23.333 -38.833 -42.5 -64.5 -57.5s-55.167 -22.5 -88.5 -22.5c-30 0 -55.5 6.33301 -76.5 19s-38.167 29.834 -51.5 51.501s-23 46.834 -29 75.501s-9 59 -9 91v253h90v-250c0 -24.667 1.66699 -47.167 5 -67.5
s9 -37.833 17 -52.5s18.833 -26.167 32.5 -34.5s30.834 -12.5 51.501 -12.5c26.667 0 50 7 70 21s36.333 28.667 49 44v352h90zM421.999 554.998h-80l-70 110l-70 -110h-80l107 160h86z" />
    <glyph glyph-name="udieresis" unicode="&#xfc;" horiz-adv-x="545" 
d="M470 480l-0.000976562 -480.002h-86v70c-17.333 -23.333 -38.833 -42.5 -64.5 -57.5s-55.167 -22.5 -88.5 -22.5c-30 0 -55.5 6.33301 -76.5 19s-38.167 29.834 -51.5 51.501s-23 46.834 -29 75.501s-9 59 -9 91v253h90v-250c0 -24.667 1.66699 -47.167 5 -67.5
s9 -37.833 17 -52.5s18.833 -26.167 32.5 -34.5s30.834 -12.5 51.501 -12.5c26.667 0 50 7 70 21s36.333 28.667 49 44v352h90zM235.999 631.998c0 -15.333 -5 -28.166 -15 -38.499s-23 -15.5 -39 -15.5s-29 5.16699 -39 15.5s-15 23.166 -15 38.499s5 28.166 15 38.499
s23 15.5 39 15.5s29 -5.16699 39 -15.5s15 -23.166 15 -38.499zM416.999 631.998c0 -15.333 -5 -28.166 -15 -38.499s-23 -15.5 -39 -15.5s-29 5.16699 -39 15.5s-15 23.166 -15 38.499s5 28.166 15 38.499s23 15.5 39 15.5s29 -5.16699 39 -15.5s15 -23.166 15 -38.499z
" />
    <glyph glyph-name="yacute" unicode="&#xfd;" horiz-adv-x="460" 
d="M117 -206l71 201l-176 485h93l126 -393l124 393h93l-243 -686h-88zM182 555l74 160h100l-98 -160h-76z" />
    <glyph glyph-name="thorn" unicode="&#xfe;" horiz-adv-x="546" 
d="M75 706l90.002 0.000976562v-288c15.333 20 34.666 37 57.999 51s53.333 21 90 21c28.667 0 54.667 -6 78 -18s43.333 -29 60 -51s29.667 -48 39 -78s14 -63 14 -99c0 -40 -6.16699 -75.833 -18.5 -107.5s-29.5 -58.334 -51.5 -80.001s-47.833 -38.167 -77.5 -49.5
s-61.834 -17 -96.501 -17c-19.333 0 -36.5 1.16699 -51.5 3.5s-29.5 5.5 -43.5 9.5v-209h-90v912zM290.002 417.001c-28 0 -52.666 -6.83203 -73.999 -20.499s-38.333 -28.5 -51 -44.5v-277c11.333 -4.66699 24.333 -8 39 -10s30 -3 46 -3c50 0 89.833 15.667 119.5 47
s44.5 76.333 44.5 135c0 24.667 -2.5 47.667 -7.5 69s-12.667 39.666 -23 54.999s-23.333 27.333 -39 36s-33.834 13 -54.501 13z" />
    <glyph glyph-name="ydieresis" unicode="&#xff;" horiz-adv-x="460" 
d="M117 -206l71 201l-176 485h93l126 -393l124 393h93l-243 -686h-88zM194 632c0 -15.333 -5 -28.166 -15 -38.499s-23 -15.5 -39 -15.5s-29 5.16699 -39 15.5s-15 23.166 -15 38.499s5 28.166 15 38.499s23 15.5 39 15.5s29 -5.16699 39 -15.5s15 -23.166 15 -38.499z
M375 632c0 -15.333 -5 -28.166 -15 -38.499s-23 -15.5 -39 -15.5s-29 5.16699 -39 15.5s-15 23.166 -15 38.499s5 28.166 15 38.499s23 15.5 39 15.5s29 -5.16699 39 -15.5s15 -23.166 15 -38.499z" />
    <glyph glyph-name="Amacron" unicode="&#x100;" horiz-adv-x="676" 
d="M648 0h-94l-61 161h-311l-60 -161h-94l265 666h90zM210 235h256l-128 347zM193 828h289v-70h-289v70z" />
    <glyph glyph-name="amacron" unicode="&#x101;" horiz-adv-x="501" 
d="M345 60c-7.33301 -8.66699 -16.3311 -17.165 -26.998 -25.498s-22.834 -15.833 -36.501 -22.5s-28.667 -12 -45 -16s-33.5 -6 -51.5 -6c-20 0 -38.333 3.16699 -55 9.5s-31 15.166 -43 26.499s-21.5 25.333 -28.5 42s-10.5 35 -10.5 55c0 44 15.5 77.333 46.5 100
s72.5 35.667 124.5 39c21.333 1.33301 42.5 2.33301 63.5 3s41.167 1 60.5 1v21c0 40.667 -8.66699 72.5 -26 95.5s-46 34.5 -86 34.5c-23.333 0 -45.5 -3 -66.5 -9s-41.167 -14.333 -60.5 -25l-21 66c25.333 15.333 51.166 26 77.499 32s55.166 9 86.499 9
c56.667 0 101.834 -17.333 135.501 -52s50.5 -84.334 50.5 -149.001v-289h-88v60zM211.002 56.002c26 0 50.3311 5.83105 72.998 17.498s42.334 26.5 59.001 44.5v89c-20 -1.33301 -38.667 -2.66602 -56 -3.99902s-34.666 -3 -51.999 -5
c-14 -1.33301 -27.167 -3.66602 -39.5 -6.99902s-23 -7.83301 -32 -13.5s-16 -13 -21 -22s-7.5 -19.833 -7.5 -32.5c0 -22.667 6.66699 -39.5 20 -50.5s32 -16.5 56 -16.5zM123 651h272v-69h-272v69z" />
    <glyph glyph-name="Abreve" unicode="&#x102;" horiz-adv-x="676" 
d="M648 0h-94l-61 161h-311l-60 -161h-94l265 666h90zM210 235h256l-128 347zM476 837c-8.66699 -35.333 -25.332 -62.666 -49.999 -81.999s-54 -29 -88 -29s-63.333 9.66699 -88 29s-41.334 46.666 -50.001 81.999l62 18c6 -20.667 15.167 -37.334 27.5 -50.001
s28.5 -19 48.5 -19s36.167 6.33301 48.5 19s21.5 29.334 27.5 50.001z" />
    <glyph glyph-name="abreve" unicode="&#x103;" horiz-adv-x="501" 
d="M345 60c-7.33301 -8.66699 -16.3311 -17.165 -26.998 -25.498s-22.834 -15.833 -36.501 -22.5s-28.667 -12 -45 -16s-33.5 -6 -51.5 -6c-20 0 -38.333 3.16699 -55 9.5s-31 15.166 -43 26.499s-21.5 25.333 -28.5 42s-10.5 35 -10.5 55c0 44 15.5 77.333 46.5 100
s72.5 35.667 124.5 39c21.333 1.33301 42.5 2.33301 63.5 3s41.167 1 60.5 1v21c0 40.667 -8.66699 72.5 -26 95.5s-46 34.5 -86 34.5c-23.333 0 -45.5 -3 -66.5 -9s-41.167 -14.333 -60.5 -25l-21 66c25.333 15.333 51.166 26 77.499 32s55.166 9 86.499 9
c56.667 0 101.834 -17.333 135.501 -52s50.5 -84.334 50.5 -149.001v-289h-88v60zM211.002 56.002c26 0 50.3311 5.83105 72.998 17.498s42.334 26.5 59.001 44.5v89c-20 -1.33301 -38.667 -2.66602 -56 -3.99902s-34.666 -3 -51.999 -5
c-14 -1.33301 -27.167 -3.66602 -39.5 -6.99902s-23 -7.83301 -32 -13.5s-16 -13 -21 -22s-7.5 -19.833 -7.5 -32.5c0 -22.667 6.66699 -39.5 20 -50.5s32 -16.5 56 -16.5zM402 692c-7.33301 -46 -24.502 -80 -51.502 -102s-58.833 -33 -95.5 -33s-68.5 11 -95.5 33
s-44.167 56 -51.5 102l66 14c4.66699 -27.333 13.834 -48.666 27.501 -63.999s31.5 -23 53.5 -23s39.833 7.66699 53.5 23s22.834 36.666 27.501 63.999z" />
    <glyph glyph-name="Aogonek" unicode="&#x104;" horiz-adv-x="676" 
d="M647 -199c-9.33301 -5.33301 -21.167 -9.50293 -35.5 -12.5029s-28.5 -4.5 -42.5 -4.5c-27.333 0 -50.666 7.83301 -69.999 23.5s-29 38.5 -29 68.5c0 16 2.66699 30.333 8 43s12 23.834 20 33.501s17 18.334 27 26.001l29 21.5l-61 161h-311l-60 -161h-94l265 666h90
l265 -666l-37.5 -27c-11.667 -8.66699 -22 -17.5 -31 -26.5s-16.167 -18.5 -21.5 -28.5s-8 -21 -8 -33c0 -15.333 4.16699 -26.333 12.5 -33s18.5 -10 30.5 -10c7.33301 0 15.166 0.833008 23.499 2.5s15.5 3.83398 21.5 6.50098zM209.999 234.997h256l-128 347z" />
    <glyph glyph-name="aogonek" unicode="&#x105;" horiz-adv-x="501" 
d="M432 -199c-9.33301 -5.33301 -21.1631 -9.49805 -35.4961 -12.498s-28.5 -4.5 -42.5 -4.5c-28.667 0 -52.334 8 -71.001 24s-28 38 -28 66c0 16 3.16699 30.667 9.5 44s14 25.166 23 35.499s18.833 19.333 29.5 27l28 19.5v60
c-7.33301 -8.66699 -16.333 -17.167 -27 -25.5s-22.834 -15.833 -36.501 -22.5s-28.667 -12 -45 -16s-33.5 -6 -51.5 -6c-20 0 -38.333 3.16699 -55 9.5s-31 15.166 -43 26.499s-21.5 25.333 -28.5 42s-10.5 35 -10.5 55c0 44 15.5 77.333 46.5 100s72.5 35.667 124.5 39
c21.333 1.33301 42.5 2.33301 63.5 3s41.167 1 60.5 1v21c0 40.667 -8.66699 72.5 -26 95.5s-46 34.5 -86 34.5c-23.333 0 -45.5 -3 -66.5 -9s-41.167 -14.333 -60.5 -25l-21 66c25.333 15.333 51.166 26 77.499 32s55.166 9 86.499 9c56.667 0 101.834 -17.333 135.501 -52
s50.5 -84.334 50.5 -149.001v-289l-38 -28c-12 -8.66699 -22.5 -17.5 -31.5 -26.5s-16 -18.333 -21 -28s-7.5 -20.5 -7.5 -32.5c0 -15.333 4.16699 -26.333 12.5 -33s18.5 -10 30.5 -10c7.33301 0 15.166 0.833008 23.499 2.5s15.5 3.83398 21.5 6.50098zM211.003 56.002
c26 0 50.3311 5.83105 72.998 17.498s42.334 26.5 59.001 44.5v89c-20 -1.33301 -38.667 -2.66602 -56 -3.99902s-34.666 -3 -51.999 -5c-14 -1.33301 -27.167 -3.66602 -39.5 -6.99902s-23 -7.83301 -32 -13.5s-16 -13 -21 -22s-7.5 -19.833 -7.5 -32.5
c0 -22.667 6.66699 -39.5 20 -50.5s32 -16.5 56 -16.5z" />
    <glyph glyph-name="Cacute" unicode="&#x106;" horiz-adv-x="610" 
d="M389 678c30 0 61.333 -2.83105 94 -8.49805s60 -13.167 82 -22.5l-15 -71c-22.667 8 -47 14.5 -73 19.5s-51.667 7.5 -77 7.5c-83.333 0 -148.333 -23.333 -195 -70s-70 -113.334 -70 -200.001s23.333 -153.334 70 -200.001s111.667 -70 195 -70c25.333 0 51 2.5 77 7.5
s50.333 11.5 73 19.5l15 -71c-22 -9.33301 -49.333 -16.833 -82 -22.5s-64 -8.5 -94 -8.5c-54.667 0 -103.5 8.66699 -146.5 26s-79.167 41.333 -108.5 72s-51.833 67 -67.5 109s-23.5 88 -23.5 138s7.83301 96 23.5 138s38.167 78.333 67.5 109s65.5 54.667 108.5 72
s91.833 26 146.5 26zM312 729.002l84 114h106l-115 -114h-75z" />
    <glyph glyph-name="cacute" unicode="&#x107;" horiz-adv-x="446" 
d="M276 490c26.667 0 51.667 -2.33105 75 -6.99805s43.333 -11 60 -19l-13 -69c-17.333 7.33301 -35.833 13 -55.5 17s-39.167 6 -58.5 6c-54 0 -93.833 -16.5 -119.5 -49.5s-38.5 -75.833 -38.5 -128.5s12.833 -95.5 38.5 -128.5s65.5 -49.5 119.5 -49.5
c19.333 0 38.833 2 58.5 6s38.167 9.66699 55.5 17l13 -69c-16.667 -8 -37.667 -14.333 -63 -19s-49.333 -7 -72 -7c-40 0 -75 6.66699 -105 20s-55 31.5 -75 54.5s-35 49.667 -45 80s-15 62.166 -15 95.499s5 65.166 15 95.499s25 57 45 80s45 41.167 75 54.5s65 20 105 20
zM196 555.002l74 160h100l-98 -160h-76z" />
    <glyph glyph-name="Ccircumflex" unicode="&#x108;" horiz-adv-x="610" 
d="M389 678c30 0 61.333 -2.83105 94 -8.49805s60 -13.167 82 -22.5l-15 -71c-22.667 8 -47 14.5 -73 19.5s-51.667 7.5 -77 7.5c-83.333 0 -148.333 -23.333 -195 -70s-70 -113.334 -70 -200.001s23.333 -153.334 70 -200.001s111.667 -70 195 -70c25.333 0 51 2.5 77 7.5
s50.333 11.5 73 19.5l15 -71c-22 -9.33301 -49.333 -16.833 -82 -22.5s-64 -8.5 -94 -8.5c-54.667 0 -103.5 8.66699 -146.5 26s-79.167 41.333 -108.5 72s-51.833 67 -67.5 109s-23.5 88 -23.5 138s7.83301 96 23.5 138s38.167 78.333 67.5 109s65.5 54.667 108.5 72
s91.833 26 146.5 26zM505 729.002h-80l-59 75l-59 -75h-80l92 114h94z" />
    <glyph glyph-name="ccircumflex" unicode="&#x109;" horiz-adv-x="446" 
d="M276 490c26.667 0 51.667 -2.33105 75 -6.99805s43.333 -11 60 -19l-13 -69c-17.333 7.33301 -35.833 13 -55.5 17s-39.167 6 -58.5 6c-54 0 -93.833 -16.5 -119.5 -49.5s-38.5 -75.833 -38.5 -128.5s12.833 -95.5 38.5 -128.5s65.5 -49.5 119.5 -49.5
c19.333 0 38.833 2 58.5 6s38.167 9.66699 55.5 17l13 -69c-16.667 -8 -37.667 -14.333 -63 -19s-49.333 -7 -72 -7c-40 0 -75 6.66699 -105 20s-55 31.5 -75 54.5s-35 49.667 -45 80s-15 62.166 -15 95.499s5 65.166 15 95.499s25 57 45 80s45 41.167 75 54.5s65 20 105 20
zM403 555.002h-80l-70 110l-70 -110h-80l107 160h86z" />
    <glyph glyph-name="Cdotaccent" unicode="&#x10a;" horiz-adv-x="610" 
d="M389 678c30 0 61.333 -2.83105 94 -8.49805s60 -13.167 82 -22.5l-15 -71c-22.667 8 -47 14.5 -73 19.5s-51.667 7.5 -77 7.5c-83.333 0 -148.333 -23.333 -195 -70s-70 -113.334 -70 -200.001s23.333 -153.334 70 -200.001s111.667 -70 195 -70c25.333 0 51 2.5 77 7.5
s50.333 11.5 73 19.5l15 -71c-22 -9.33301 -49.333 -16.833 -82 -22.5s-64 -8.5 -94 -8.5c-54.667 0 -103.5 8.66699 -146.5 26s-79.167 41.333 -108.5 72s-51.833 67 -67.5 109s-23.5 88 -23.5 138s7.83301 96 23.5 138s38.167 78.333 67.5 109s65.5 54.667 108.5 72
s91.833 26 146.5 26zM319 795.002c0 15.333 5.16699 28.666 15.5 39.999s24.166 17 41.499 17s31.166 -5.66699 41.499 -17s15.5 -24.666 15.5 -39.999s-5.16699 -28.666 -15.5 -39.999s-24.166 -17 -41.499 -17s-31.166 5.66699 -41.499 17s-15.5 24.666 -15.5 39.999z" />
    <glyph glyph-name="cdotaccent" unicode="&#x10b;" horiz-adv-x="446" 
d="M276 490c26.667 0 51.667 -2.33105 75 -6.99805s43.333 -11 60 -19l-13 -69c-17.333 7.33301 -35.833 13 -55.5 17s-39.167 6 -58.5 6c-54 0 -93.833 -16.5 -119.5 -49.5s-38.5 -75.833 -38.5 -128.5s12.833 -95.5 38.5 -128.5s65.5 -49.5 119.5 -49.5
c19.333 0 38.833 2 58.5 6s38.167 9.66699 55.5 17l13 -69c-16.667 -8 -37.667 -14.333 -63 -19s-49.333 -7 -72 -7c-40 0 -75 6.66699 -105 20s-55 31.5 -75 54.5s-35 49.667 -45 80s-15 62.166 -15 95.499s5 65.166 15 95.499s25 57 45 80s45 41.167 75 54.5s65 20 105 20
zM195 622.002c0 15.333 5.16699 28.666 15.5 39.999s24.166 17 41.499 17s31.166 -5.66699 41.499 -17s15.5 -24.666 15.5 -39.999s-5.16699 -28.666 -15.5 -39.999s-24.166 -17 -41.499 -17s-31.166 5.66699 -41.499 17s-15.5 24.666 -15.5 39.999z" />
    <glyph glyph-name="Ccaron" unicode="&#x10c;" horiz-adv-x="610" 
d="M389 678c30 0 61.333 -2.83105 94 -8.49805s60 -13.167 82 -22.5l-15 -71c-22.667 8 -47 14.5 -73 19.5s-51.667 7.5 -77 7.5c-83.333 0 -148.333 -23.333 -195 -70s-70 -113.334 -70 -200.001s23.333 -153.334 70 -200.001s111.667 -70 195 -70c25.333 0 51 2.5 77 7.5
s50.333 11.5 73 19.5l15 -71c-22 -9.33301 -49.333 -16.833 -82 -22.5s-64 -8.5 -94 -8.5c-54.667 0 -103.5 8.66699 -146.5 26s-79.167 41.333 -108.5 72s-51.833 67 -67.5 109s-23.5 88 -23.5 138s7.83301 96 23.5 138s38.167 78.333 67.5 109s65.5 54.667 108.5 72
s91.833 26 146.5 26zM417 729.002h-94l-92 114h80l59 -75l59 75h80z" />
    <glyph glyph-name="ccaron" unicode="&#x10d;" horiz-adv-x="446" 
d="M276 490c26.667 0 51.667 -2.33105 75 -6.99805s43.333 -11 60 -19l-13 -69c-17.333 7.33301 -35.833 13 -55.5 17s-39.167 6 -58.5 6c-54 0 -93.833 -16.5 -119.5 -49.5s-38.5 -75.833 -38.5 -128.5s12.833 -95.5 38.5 -128.5s65.5 -49.5 119.5 -49.5
c19.333 0 38.833 2 58.5 6s38.167 9.66699 55.5 17l13 -69c-16.667 -8 -37.667 -14.333 -63 -19s-49.333 -7 -72 -7c-40 0 -75 6.66699 -105 20s-55 31.5 -75 54.5s-35 49.667 -45 80s-15 62.166 -15 95.499s5 65.166 15 95.499s25 57 45 80s45 41.167 75 54.5s65 20 105 20
zM302 555.002h-86l-107 160h80l70 -110l70 110h80z" />
    <glyph glyph-name="Dcaron" unicode="&#x10e;" horiz-adv-x="683" 
d="M80 666l185 0.00390625c57.333 0 109.333 -8.33301 156 -25s86.667 -39.834 120 -69.501s59 -64.834 77 -105.501s27 -85 27 -133s-9 -92.333 -27 -133s-43.667 -75.834 -77 -105.501s-73.333 -52.834 -120 -69.501s-98.667 -25 -156 -25h-185v666zM265 74.0039
c40 0 77.5 5.83301 112.5 17.5s65.5 28.5 91.5 50.5s46.5 49 61.5 81s22.5 68.667 22.5 110c0 40.667 -7.5 77.167 -22.5 109.5s-35.5 59.5 -61.5 81.5s-56.5 38.833 -91.5 50.5s-72.5 17.5 -112.5 17.5h-93v-518h93zM348 729.004h-94l-92 114h80l59 -75l59 75h80z" />
    <glyph glyph-name="dcaron" unicode="&#x10f;" horiz-adv-x="663" 
d="M469 0l-85 -0.000976562v66c-18 -21.333 -39.667 -39.333 -65 -54s-56 -22 -92 -22c-28 0 -53.333 6 -76 18s-42.334 29 -59.001 51s-29.5 48 -38.5 78s-13.5 63 -13.5 99c0 40 6.16699 75.833 18.5 107.5s29.5 58.334 51.5 80.001s47.833 38.167 77.5 49.5
s61.834 17 96.501 17c19.333 0 36.5 -1.16699 51.5 -3.5s29.5 -5.5 43.5 -9.5v229h90v-706zM252 61.999c28.667 0 53.668 7.00098 75.001 21.001s38.666 29 51.999 45v277c-11.333 4.66699 -24.333 8 -39 10s-30 3 -46 3c-50 0 -89.833 -15.667 -119.5 -47
s-44.5 -76.333 -44.5 -135c0 -52.667 9.83301 -94.834 29.5 -126.501s50.5 -47.5 92.5 -47.5zM548.001 501c16 34.667 27.835 67.832 35.502 99.499s12.5 66.834 14.5 105.501l80 -8c-2.66699 -40 -9.83398 -78.833 -21.501 -116.5s-28.834 -73.5 -51.501 -107.5z" />
    <glyph glyph-name="Dcroat" unicode="&#x110;" horiz-adv-x="729" 
d="M45 370l81 0.00390625v296h185c57.333 0 109.333 -8.33301 156 -25s86.667 -39.834 120 -69.501s59 -64.834 77 -105.501s27 -85 27 -133s-9 -92.333 -27 -133s-43.667 -75.834 -77 -105.501s-73.333 -52.834 -120 -69.501s-98.667 -25 -156 -25h-185v296h-81v74z
M311 74.0039c40 0 77.5 5.83301 112.5 17.5s65.5 28.5 91.5 50.5s46.5 49 61.5 81s22.5 68.667 22.5 110c0 40.667 -7.5 77.167 -22.5 109.5s-35.5 59.5 -61.5 81.5s-56.5 38.833 -91.5 50.5s-72.5 17.5 -112.5 17.5h-93v-222h181v-74h-181v-222h93z" />
    <glyph glyph-name="dcroat" unicode="&#x111;" horiz-adv-x="544" 
d="M230 620l149 -0.000976562v86h90v-86h75v-65h-75v-555h-85v66c-18 -21.333 -39.667 -39.333 -65 -54s-56 -22 -92 -22c-28 0 -53.333 6 -76 18s-42.334 29 -59.001 51s-29.5 48 -38.5 78s-13.5 63 -13.5 99c0 40 6.16699 75.833 18.5 107.5s29.5 58.334 51.5 80.001
s47.833 38.167 77.5 49.5s61.834 17 96.501 17c19.333 0 36.5 -1.16699 51.5 -3.5s29.5 -5.5 43.5 -9.5v78h-149v65zM252 61.999c28.667 0 53.668 7.00098 75.001 21.001s38.666 29 51.999 45v277c-11.333 4.66699 -24.333 8 -39 10s-30 3 -46 3
c-50 0 -89.833 -15.667 -119.5 -47s-44.5 -76.333 -44.5 -135c0 -52.667 9.83301 -94.834 29.5 -126.501s50.5 -47.5 92.5 -47.5z" />
    <glyph glyph-name="Emacron" unicode="&#x112;" horiz-adv-x="510" 
d="M80 666h371v-75h-279v-213h267v-75h-267v-228h282v-75h-374v666zM130 828h289v-70h-289v70z" />
    <glyph glyph-name="emacron" unicode="&#x113;" horiz-adv-x="484" 
d="M260 490c30.667 0 57.498 -5 80.498 -15s42.333 -23.667 58 -41s27.334 -37.833 35.001 -61.5s11.5 -49.167 11.5 -76.5s-3.33301 -54.333 -10 -81h-303c0.666992 -23.333 4 -44.333 10 -63s15.167 -34.834 27.5 -48.501s28.333 -24.167 48 -31.5s43.5 -11 71.5 -11
c26 0 50.5 2.66699 73.5 8s44.167 12 63.5 20l12 -67c-21.333 -10 -46.166 -17.833 -74.499 -23.5s-57.5 -8.5 -87.5 -8.5c-40 0 -74.833 6.5 -104.5 19.5s-54.167 30.667 -73.5 53s-33.833 48.5 -43.5 78.5s-14.5 62.333 -14.5 97s5 67.334 15 98.001s24.5 57.5 43.5 80.5
s42.167 41 69.5 54s58 19.5 92 19.5zM256.998 423c-19.333 0 -36.332 -3.66699 -50.999 -11s-27.334 -17.333 -38.001 -30s-19 -27.5 -25 -44.5s-9.66699 -34.833 -11 -53.5h226c2 18.667 1.66699 36.5 -1 53.5s-8 31.833 -16 44.5s-19 22.667 -33 30s-31 11 -51 11z
M120.999 651h272v-69h-272v69z" />
    <glyph glyph-name="Ebreve" unicode="&#x114;" horiz-adv-x="510" 
d="M80 666h371v-75h-279v-213h267v-75h-267v-228h282v-75h-374v666zM414 837c-8.66699 -35.333 -25.332 -62.666 -49.999 -81.999s-54 -29 -88 -29s-63.333 9.66699 -88 29s-41.334 46.666 -50.001 81.999l62 18c6 -20.667 15.167 -37.334 27.5 -50.001s28.5 -19 48.5 -19
s36.167 6.33301 48.5 19s21.5 29.334 27.5 50.001z" />
    <glyph glyph-name="ebreve" unicode="&#x115;" horiz-adv-x="484" 
d="M260 490c30.667 0 57.498 -5 80.498 -15s42.333 -23.667 58 -41s27.334 -37.833 35.001 -61.5s11.5 -49.167 11.5 -76.5s-3.33301 -54.333 -10 -81h-303c0.666992 -23.333 4 -44.333 10 -63s15.167 -34.834 27.5 -48.501s28.333 -24.167 48 -31.5s43.5 -11 71.5 -11
c26 0 50.5 2.66699 73.5 8s44.167 12 63.5 20l12 -67c-21.333 -10 -46.166 -17.833 -74.499 -23.5s-57.5 -8.5 -87.5 -8.5c-40 0 -74.833 6.5 -104.5 19.5s-54.167 30.667 -73.5 53s-33.833 48.5 -43.5 78.5s-14.5 62.333 -14.5 97s5 67.334 15 98.001s24.5 57.5 43.5 80.5
s42.167 41 69.5 54s58 19.5 92 19.5zM256.998 423c-19.333 0 -36.332 -3.66699 -50.999 -11s-27.334 -17.333 -38.001 -30s-19 -27.5 -25 -44.5s-9.66699 -34.833 -11 -53.5h226c2 18.667 1.66699 36.5 -1 53.5s-8 31.833 -16 44.5s-19 22.667 -33 30s-31 11 -51 11z
M407.999 692c-7.33301 -46 -24.502 -80 -51.502 -102s-58.833 -33 -95.5 -33s-68.5 11 -95.5 33s-44.167 56 -51.5 102l66 14c4.66699 -27.333 13.834 -48.666 27.501 -63.999s31.5 -23 53.5 -23s39.833 7.66699 53.5 23s22.834 36.666 27.501 63.999z" />
    <glyph glyph-name="Edotaccent" unicode="&#x116;" horiz-adv-x="510" 
d="M80 666h371v-75h-279v-213h267v-75h-267v-228h282v-75h-374v666zM213 795c0 15.333 5.16699 28.666 15.5 39.999s24.166 17 41.499 17s31.166 -5.66699 41.499 -17s15.5 -24.666 15.5 -39.999s-5.16699 -28.666 -15.5 -39.999s-24.166 -17 -41.499 -17
s-31.166 5.66699 -41.499 17s-15.5 24.666 -15.5 39.999z" />
    <glyph glyph-name="edotaccent" unicode="&#x117;" horiz-adv-x="484" 
d="M260 490c30.667 0 57.498 -5 80.498 -15s42.333 -23.667 58 -41s27.334 -37.833 35.001 -61.5s11.5 -49.167 11.5 -76.5s-3.33301 -54.333 -10 -81h-303c0.666992 -23.333 4 -44.333 10 -63s15.167 -34.834 27.5 -48.501s28.333 -24.167 48 -31.5s43.5 -11 71.5 -11
c26 0 50.5 2.66699 73.5 8s44.167 12 63.5 20l12 -67c-21.333 -10 -46.166 -17.833 -74.499 -23.5s-57.5 -8.5 -87.5 -8.5c-40 0 -74.833 6.5 -104.5 19.5s-54.167 30.667 -73.5 53s-33.833 48.5 -43.5 78.5s-14.5 62.333 -14.5 97s5 67.334 15 98.001s24.5 57.5 43.5 80.5
s42.167 41 69.5 54s58 19.5 92 19.5zM256.998 423c-19.333 0 -36.332 -3.66699 -50.999 -11s-27.334 -17.333 -38.001 -30s-19 -27.5 -25 -44.5s-9.66699 -34.833 -11 -53.5h226c2 18.667 1.66699 36.5 -1 53.5s-8 31.833 -16 44.5s-19 22.667 -33 30s-31 11 -51 11z
M197.999 622c0 15.333 5.16699 28.666 15.5 39.999s24.166 17 41.499 17s31.166 -5.66699 41.499 -17s15.5 -24.666 15.5 -39.999s-5.16699 -28.666 -15.5 -39.999s-24.166 -17 -41.499 -17s-31.166 5.66699 -41.499 17s-15.5 24.666 -15.5 39.999z" />
    <glyph glyph-name="Eogonek" unicode="&#x118;" horiz-adv-x="510" 
d="M80 666l370.999 -0.000976562v-75h-279v-213h267v-75h-267v-228h282v-75l-38 -28c-12 -8.66699 -22.5 -17.5 -31.5 -26.5s-16 -18.333 -21 -28s-7.5 -20.5 -7.5 -32.5c0 -15.333 4.16699 -26.333 12.5 -33s18.5 -10 30.5 -10c7.33301 0 15.166 0.833008 23.499 2.5
s15.5 3.83398 21.5 6.50098l9 -50c-9.33301 -5.33301 -21.166 -9.5 -35.499 -12.5s-28.5 -4.5 -42.5 -4.5c-28.667 0 -52.334 8 -71.001 24s-28 38 -28 66c0 16 2.83301 30.5 8.5 43.5s12.834 24.5 21.501 34.5s18.334 19 29.001 27s21 15 31 21h-286v666z" />
    <glyph glyph-name="eogonek" unicode="&#x119;" horiz-adv-x="484" 
d="M427 -199c-9.33301 -5.33301 -21.166 -9.5 -35.499 -12.5s-28.5 -4.5 -42.5 -4.5c-28.667 0 -52.334 8 -71.001 24s-28 38 -28 66c0 14.667 2.5 28.167 7.5 40.5s11.5 23.5 19.5 33.5s17.167 18.833 27.5 26.5s20.833 14.5 31.5 20.5
c-7.33301 -2 -16.833 -3.33301 -28.5 -4s-22.167 -1 -31.5 -1c-40 0 -74.833 6.5 -104.5 19.5s-54.167 30.667 -73.5 53s-33.833 48.5 -43.5 78.5s-14.5 62.333 -14.5 97s5 67.334 15 98.001s24.5 57.5 43.5 80.5s42.167 41 69.5 54s58 19.5 92 19.5
c30.667 0 57.5 -5 80.5 -15s42.333 -23.667 58 -41s27.334 -37.833 35.001 -61.5s11.5 -49.167 11.5 -76.5s-3.33301 -54.333 -10 -81h-303c0.666992 -23.333 4 -44.333 10 -63s15.167 -34.834 27.5 -48.501s28.333 -24.167 48 -31.5s43.5 -11 71.5 -11
c26 0 50.5 2.66699 73.5 8s44.167 12 63.5 20l12 -67l-40.5 -32c-13 -10.667 -24.5 -21.5 -34.5 -32.5s-18 -22.333 -24 -34s-9 -23.834 -9 -36.501c0 -30 14.333 -45 43 -45c7.33301 0 15.166 0.833008 23.499 2.5s15.5 3.83398 21.5 6.50098zM257 423
c-19.333 0 -36.332 -3.66699 -50.999 -11s-27.334 -17.333 -38.001 -30s-19 -27.5 -25 -44.5s-9.66699 -34.833 -11 -53.5h226c2 18.667 1.66699 36.5 -1 53.5s-8 31.833 -16 44.5s-19 22.667 -33 30s-31 11 -51 11z" />
    <glyph glyph-name="Ecaron" unicode="&#x11a;" horiz-adv-x="510" 
d="M80 666h371v-75h-279v-213h267v-75h-267v-228h282v-75h-374v666zM321 729h-94l-92 114h80l59 -75l59 75h80z" />
    <glyph glyph-name="ecaron" unicode="&#x11b;" horiz-adv-x="484" 
d="M260 490c30.667 0 57.498 -5 80.498 -15s42.333 -23.667 58 -41s27.334 -37.833 35.001 -61.5s11.5 -49.167 11.5 -76.5s-3.33301 -54.333 -10 -81h-303c0.666992 -23.333 4 -44.333 10 -63s15.167 -34.834 27.5 -48.501s28.333 -24.167 48 -31.5s43.5 -11 71.5 -11
c26 0 50.5 2.66699 73.5 8s44.167 12 63.5 20l12 -67c-21.333 -10 -46.166 -17.833 -74.499 -23.5s-57.5 -8.5 -87.5 -8.5c-40 0 -74.833 6.5 -104.5 19.5s-54.167 30.667 -73.5 53s-33.833 48.5 -43.5 78.5s-14.5 62.333 -14.5 97s5 67.334 15 98.001s24.5 57.5 43.5 80.5
s42.167 41 69.5 54s58 19.5 92 19.5zM256.998 423c-19.333 0 -36.332 -3.66699 -50.999 -11s-27.334 -17.333 -38.001 -30s-19 -27.5 -25 -44.5s-9.66699 -34.833 -11 -53.5h226c2 18.667 1.66699 36.5 -1 53.5s-8 31.833 -16 44.5s-19 22.667 -33 30s-31 11 -51 11z
M300.999 555h-86l-107 160h80l70 -110l70 110h80z" />
    <glyph glyph-name="Gcircumflex" unicode="&#x11c;" horiz-adv-x="677" 
d="M400 678c37.333 0 72.998 -3.16797 106.998 -9.50098s64.667 -16.166 92 -29.499l-15 -73c-28.667 11.333 -58.5 20.333 -89.5 27s-62.167 10 -93.5 10c-82.667 0 -147.667 -24.167 -195 -72.5s-71 -116.833 -71 -205.5c0 -85.333 22.333 -150.833 67 -196.5
s111.667 -68.5 201 -68.5c21.333 0 42.833 1.5 64.5 4.5s40.167 6.83301 55.5 11.5v217h84v-268c-25.333 -10.667 -57.666 -19.5 -96.999 -26.5s-78.666 -10.5 -117.999 -10.5c-54.667 0 -103.667 8.16699 -147 24.5s-80 39.333 -110 69s-52.833 65.167 -68.5 106.5
s-23.5 87 -23.5 137c0 52 8.16699 99.667 24.5 143s39.833 80.5 70.5 111.5s68 55.167 112 72.5s94 26 150 26zM516.998 728.999h-80l-59 75l-59 -75h-80l92 114h94z" />
    <glyph glyph-name="gcircumflex" unicode="&#x11d;" horiz-adv-x="513" 
d="M243 161c-13.333 0 -26.002 1.00195 -38.002 3.00195c-10 -13.333 -15 -26.666 -15 -39.999c0 -12 4.16699 -20.833 12.5 -26.5s22.166 -9.16699 41.499 -10.5l99 -8c22.667 -2 43.667 -5.5 63 -10.5s35.833 -12.167 49.5 -21.5s24.334 -21.5 32.001 -36.5
s11.5 -32.833 11.5 -53.5c0 -26 -7.5 -49.667 -22.5 -71s-35 -39.5 -60 -54.5s-53.667 -26.667 -86 -35s-65.833 -12.5 -100.5 -12.5c-29.333 0 -56.666 2.5 -81.999 7.5s-47.5 12.667 -66.5 23s-34 23.333 -45 39s-16.5 34.167 -16.5 55.5c0 18 4.16699 33.667 12.5 47
s19 24.833 32 34.5s27.5 17.834 43.5 24.501s31.667 12 47 16c-13.333 6.66699 -24.5 15.667 -33.5 27s-13.5 25.666 -13.5 42.999c0 19.333 5.33301 34.666 16 45.999s23 20.666 37 27.999c-32.667 12 -59 30.833 -79 56.5s-30 56.5 -30 92.5c0 24 5 46 15 66
s23.5 37.5 40.5 52.5s37.167 26.667 60.5 35s48.333 12.5 75 12.5c12 0 23.5 -0.833008 34.5 -2.5s21.833 -4.16699 32.5 -7.5h179v-67h-84c9.33301 -13.333 16.5 -27.333 21.5 -42s7.5 -30.334 7.5 -47.001c0 -24 -4.83301 -46 -14.5 -66s-23.167 -37.167 -40.5 -51.5
s-37.666 -25.5 -60.999 -33.5s-48.333 -12 -75 -12zM207.998 17.002c-11.333 -5.33301 -23 -11.167 -35 -17.5s-22.833 -13.333 -32.5 -21s-17.667 -16.334 -24 -26.001s-9.5 -20.834 -9.5 -33.501c0 -25.333 11.333 -43.666 34 -54.999s53.667 -17 93 -17
c20.667 0 41.667 2 63 6s40.5 10.167 57.5 18.5s31 18.833 42 31.5s16.5 27.334 16.5 44.001c0 12 -3 21.667 -9 29s-14 13.333 -24 18s-21.333 8 -34 10s-26 3.66699 -40 5zM242.998 225.001c31.333 0 57.668 8.83301 79.001 26.5s32 42.167 32 73.5
s-10.5 55.833 -31.5 73.5s-47.5 26.5 -79.5 26.5s-58.5 -8.5 -79.5 -25.5s-31.5 -41.833 -31.5 -74.5s10.667 -57.5 32 -74.5s47.666 -25.5 78.999 -25.5zM397 555.001h-80l-70 110l-70 -110h-80l107 160h86z" />
    <glyph glyph-name="Gbreve" unicode="&#x11e;" horiz-adv-x="677" 
d="M400 678c37.333 0 72.998 -3.16797 106.998 -9.50098s64.667 -16.166 92 -29.499l-15 -73c-28.667 11.333 -58.5 20.333 -89.5 27s-62.167 10 -93.5 10c-82.667 0 -147.667 -24.167 -195 -72.5s-71 -116.833 -71 -205.5c0 -85.333 22.333 -150.833 67 -196.5
s111.667 -68.5 201 -68.5c21.333 0 42.833 1.5 64.5 4.5s40.167 6.83301 55.5 11.5v217h84v-268c-25.333 -10.667 -57.666 -19.5 -96.999 -26.5s-78.666 -10.5 -117.999 -10.5c-54.667 0 -103.667 8.16699 -147 24.5s-80 39.333 -110 69s-52.833 65.167 -68.5 106.5
s-23.5 87 -23.5 137c0 52 8.16699 99.667 24.5 143s39.833 80.5 70.5 111.5s68 55.167 112 72.5s94 26 150 26zM512.998 836.999c-8.66699 -35.333 -25.332 -62.666 -49.999 -81.999s-54 -29 -88 -29s-63.333 9.66699 -88 29s-41.334 46.666 -50.001 81.999l62 18
c6 -20.667 15.167 -37.334 27.5 -50.001s28.5 -19 48.5 -19s36.167 6.33301 48.5 19s21.5 29.334 27.5 50.001z" />
    <glyph glyph-name="gbreve" unicode="&#x11f;" horiz-adv-x="513" 
d="M243 161c-13.333 0 -26.002 1.00195 -38.002 3.00195c-10 -13.333 -15 -26.666 -15 -39.999c0 -12 4.16699 -20.833 12.5 -26.5s22.166 -9.16699 41.499 -10.5l99 -8c22.667 -2 43.667 -5.5 63 -10.5s35.833 -12.167 49.5 -21.5s24.334 -21.5 32.001 -36.5
s11.5 -32.833 11.5 -53.5c0 -26 -7.5 -49.667 -22.5 -71s-35 -39.5 -60 -54.5s-53.667 -26.667 -86 -35s-65.833 -12.5 -100.5 -12.5c-29.333 0 -56.666 2.5 -81.999 7.5s-47.5 12.667 -66.5 23s-34 23.333 -45 39s-16.5 34.167 -16.5 55.5c0 18 4.16699 33.667 12.5 47
s19 24.833 32 34.5s27.5 17.834 43.5 24.501s31.667 12 47 16c-13.333 6.66699 -24.5 15.667 -33.5 27s-13.5 25.666 -13.5 42.999c0 19.333 5.33301 34.666 16 45.999s23 20.666 37 27.999c-32.667 12 -59 30.833 -79 56.5s-30 56.5 -30 92.5c0 24 5 46 15 66
s23.5 37.5 40.5 52.5s37.167 26.667 60.5 35s48.333 12.5 75 12.5c12 0 23.5 -0.833008 34.5 -2.5s21.833 -4.16699 32.5 -7.5h179v-67h-84c9.33301 -13.333 16.5 -27.333 21.5 -42s7.5 -30.334 7.5 -47.001c0 -24 -4.83301 -46 -14.5 -66s-23.167 -37.167 -40.5 -51.5
s-37.666 -25.5 -60.999 -33.5s-48.333 -12 -75 -12zM207.998 17.002c-11.333 -5.33301 -23 -11.167 -35 -17.5s-22.833 -13.333 -32.5 -21s-17.667 -16.334 -24 -26.001s-9.5 -20.834 -9.5 -33.501c0 -25.333 11.333 -43.666 34 -54.999s53.667 -17 93 -17
c20.667 0 41.667 2 63 6s40.5 10.167 57.5 18.5s31 18.833 42 31.5s16.5 27.334 16.5 44.001c0 12 -3 21.667 -9 29s-14 13.333 -24 18s-21.333 8 -34 10s-26 3.66699 -40 5zM242.998 225.001c31.333 0 57.668 8.83301 79.001 26.5s32 42.167 32 73.5
s-10.5 55.833 -31.5 73.5s-47.5 26.5 -79.5 26.5s-58.5 -8.5 -79.5 -25.5s-31.5 -41.833 -31.5 -74.5s10.667 -57.5 32 -74.5s47.666 -25.5 78.999 -25.5zM390 692.001c-7.33301 -46 -24.502 -80 -51.502 -102s-58.833 -33 -95.5 -33s-68.5 11 -95.5 33
s-44.167 56 -51.5 102l66 14c4.66699 -27.333 13.834 -48.666 27.501 -63.999s31.5 -23 53.5 -23s39.833 7.66699 53.5 23s22.834 36.666 27.501 63.999z" />
    <glyph glyph-name="Gdotaccent" unicode="&#x120;" horiz-adv-x="677" 
d="M400 678c37.333 0 72.998 -3.16797 106.998 -9.50098s64.667 -16.166 92 -29.499l-15 -73c-28.667 11.333 -58.5 20.333 -89.5 27s-62.167 10 -93.5 10c-82.667 0 -147.667 -24.167 -195 -72.5s-71 -116.833 -71 -205.5c0 -85.333 22.333 -150.833 67 -196.5
s111.667 -68.5 201 -68.5c21.333 0 42.833 1.5 64.5 4.5s40.167 6.83301 55.5 11.5v217h84v-268c-25.333 -10.667 -57.666 -19.5 -96.999 -26.5s-78.666 -10.5 -117.999 -10.5c-54.667 0 -103.667 8.16699 -147 24.5s-80 39.333 -110 69s-52.833 65.167 -68.5 106.5
s-23.5 87 -23.5 137c0 52 8.16699 99.667 24.5 143s39.833 80.5 70.5 111.5s68 55.167 112 72.5s94 26 150 26zM313.998 794.999c0 15.333 5.16699 28.666 15.5 39.999s24.166 17 41.499 17s31.166 -5.66699 41.499 -17s15.5 -24.666 15.5 -39.999
s-5.16699 -28.666 -15.5 -39.999s-24.166 -17 -41.499 -17s-31.166 5.66699 -41.499 17s-15.5 24.666 -15.5 39.999z" />
    <glyph glyph-name="gdotaccent" unicode="&#x121;" horiz-adv-x="513" 
d="M243 161c-13.333 0 -26.002 1.00195 -38.002 3.00195c-10 -13.333 -15 -26.666 -15 -39.999c0 -12 4.16699 -20.833 12.5 -26.5s22.166 -9.16699 41.499 -10.5l99 -8c22.667 -2 43.667 -5.5 63 -10.5s35.833 -12.167 49.5 -21.5s24.334 -21.5 32.001 -36.5
s11.5 -32.833 11.5 -53.5c0 -26 -7.5 -49.667 -22.5 -71s-35 -39.5 -60 -54.5s-53.667 -26.667 -86 -35s-65.833 -12.5 -100.5 -12.5c-29.333 0 -56.666 2.5 -81.999 7.5s-47.5 12.667 -66.5 23s-34 23.333 -45 39s-16.5 34.167 -16.5 55.5c0 18 4.16699 33.667 12.5 47
s19 24.833 32 34.5s27.5 17.834 43.5 24.501s31.667 12 47 16c-13.333 6.66699 -24.5 15.667 -33.5 27s-13.5 25.666 -13.5 42.999c0 19.333 5.33301 34.666 16 45.999s23 20.666 37 27.999c-32.667 12 -59 30.833 -79 56.5s-30 56.5 -30 92.5c0 24 5 46 15 66
s23.5 37.5 40.5 52.5s37.167 26.667 60.5 35s48.333 12.5 75 12.5c12 0 23.5 -0.833008 34.5 -2.5s21.833 -4.16699 32.5 -7.5h179v-67h-84c9.33301 -13.333 16.5 -27.333 21.5 -42s7.5 -30.334 7.5 -47.001c0 -24 -4.83301 -46 -14.5 -66s-23.167 -37.167 -40.5 -51.5
s-37.666 -25.5 -60.999 -33.5s-48.333 -12 -75 -12zM207.998 17.002c-11.333 -5.33301 -23 -11.167 -35 -17.5s-22.833 -13.333 -32.5 -21s-17.667 -16.334 -24 -26.001s-9.5 -20.834 -9.5 -33.501c0 -25.333 11.333 -43.666 34 -54.999s53.667 -17 93 -17
c20.667 0 41.667 2 63 6s40.5 10.167 57.5 18.5s31 18.833 42 31.5s16.5 27.334 16.5 44.001c0 12 -3 21.667 -9 29s-14 13.333 -24 18s-21.333 8 -34 10s-26 3.66699 -40 5zM242.998 225.001c31.333 0 57.668 8.83301 79.001 26.5s32 42.167 32 73.5
s-10.5 55.833 -31.5 73.5s-47.5 26.5 -79.5 26.5s-58.5 -8.5 -79.5 -25.5s-31.5 -41.833 -31.5 -74.5s10.667 -57.5 32 -74.5s47.666 -25.5 78.999 -25.5zM185 622.001c0 15.333 5.16699 28.666 15.5 39.999s24.166 17 41.499 17s31.166 -5.66699 41.499 -17
s15.5 -24.666 15.5 -39.999s-5.16699 -28.666 -15.5 -39.999s-24.166 -17 -41.499 -17s-31.166 5.66699 -41.499 17s-15.5 24.666 -15.5 39.999z" />
    <glyph glyph-name="Gcommaaccent" unicode="&#x122;" horiz-adv-x="677" 
d="M400 678c37.333 0 72.998 -3.16797 106.998 -9.50098s64.667 -16.166 92 -29.499l-15 -73c-28.667 11.333 -58.5 20.333 -89.5 27s-62.167 10 -93.5 10c-82.667 0 -147.667 -24.167 -195 -72.5s-71 -116.833 -71 -205.5c0 -85.333 22.333 -150.833 67 -196.5
s111.667 -68.5 201 -68.5c21.333 0 42.833 1.5 64.5 4.5s40.167 6.83301 55.5 11.5v217h84v-268c-25.333 -10.667 -57.666 -19.5 -96.999 -26.5s-78.666 -10.5 -117.999 -10.5c-54.667 0 -103.667 8.16699 -147 24.5s-80 39.333 -110 69s-52.833 65.167 -68.5 106.5
s-23.5 87 -23.5 137c0 52 8.16699 99.667 24.5 143s39.833 80.5 70.5 111.5s68 55.167 112 72.5s94 26 150 26zM304.998 -223.001c12 26 21.334 51.167 28.001 75.5s10.667 49.833 12 76.5h86c-2 -32 -8.83301 -64.167 -20.5 -96.5s-25.834 -59.833 -42.501 -82.5z" />
    <glyph glyph-name="gcommaaccent" unicode="&#x123;" horiz-adv-x="524" 
d="M243 161c-13.333 0 -26.002 1.00195 -38.002 3.00195c-10 -13.333 -15 -26.666 -15 -39.999c0 -12 4.16699 -20.833 12.5 -26.5s22.166 -9.16699 41.499 -10.5l99 -8c22.667 -2 43.667 -5.5 63 -10.5s35.833 -12.167 49.5 -21.5s24.334 -21.5 32.001 -36.5
s11.5 -32.833 11.5 -53.5c0 -26 -7.5 -49.667 -22.5 -71s-35 -39.5 -60 -54.5s-53.667 -26.667 -86 -35s-65.833 -12.5 -100.5 -12.5c-29.333 0 -56.666 2.5 -81.999 7.5s-47.5 12.667 -66.5 23s-34 23.333 -45 39s-16.5 34.167 -16.5 55.5c0 18 4.16699 33.667 12.5 47
s19 24.833 32 34.5s27.5 17.834 43.5 24.501s31.667 12 47 16c-13.333 6.66699 -24.5 15.667 -33.5 27s-13.5 25.666 -13.5 42.999c0 19.333 5.33301 34.666 16 45.999s23 20.666 37 27.999c-32.667 12 -59 30.833 -79 56.5s-30 56.5 -30 92.5c0 24 5 46 15 66
s23.5 37.5 40.5 52.5s37.167 26.667 60.5 35s48.333 12.5 75 12.5c12 0 23.5 -0.833008 34.5 -2.5s21.833 -4.16699 32.5 -7.5h179v-67h-84c9.33301 -13.333 16.5 -27.333 21.5 -42s7.5 -30.334 7.5 -47.001c0 -24 -4.83301 -46 -14.5 -66s-23.167 -37.167 -40.5 -51.5
s-37.666 -25.5 -60.999 -33.5s-48.333 -12 -75 -12zM207.998 17.002c-11.333 -5.33301 -23 -11.167 -35 -17.5s-22.833 -13.333 -32.5 -21s-17.667 -16.334 -24 -26.001s-9.5 -20.834 -9.5 -33.501c0 -25.333 11.333 -43.666 34 -54.999s53.667 -17 93 -17
c20.667 0 41.667 2 63 6s40.5 10.167 57.5 18.5s31 18.833 42 31.5s16.5 27.334 16.5 44.001c0 12 -3 21.667 -9 29s-14 13.333 -24 18s-21.333 8 -34 10s-26 3.66699 -40 5zM242.998 225.001c31.333 0 57.668 8.83301 79.001 26.5s32 42.167 32 73.5
s-10.5 55.833 -31.5 73.5s-47.5 26.5 -79.5 26.5s-58.5 -8.5 -79.5 -25.5s-31.5 -41.833 -31.5 -74.5s10.667 -57.5 32 -74.5s47.666 -25.5 78.999 -25.5zM320 698.001c-9.33301 -19.333 -16.501 -41.6699 -21.501 -67.0029s-7.83301 -50.666 -8.5 -75.999l-84 4
c0.666992 34.667 5.83398 65.834 15.501 93.501s22.167 51.834 37.5 72.501z" />
    <glyph glyph-name="Hcircumflex" unicode="&#x124;" horiz-adv-x="685" 
d="M513 0v299h-341v-299h-92v666h92v-289h341v289h92v-666h-92zM481 729h-80l-59 75l-59 -75h-80l92 114h94z" />
    <glyph glyph-name="hcircumflex" unicode="&#x125;" horiz-adv-x="554" 
d="M75 0v706.002h90v-287c19.333 23.333 41 41 65 53s52 18 84 18c30 0 55.667 -6.33301 77 -19s39 -29.834 53 -51.501s24.167 -46.834 30.5 -75.501s9.5 -59 9.5 -91v-253h-90v250c0 24.667 -2 47.167 -6 67.5s-10.333 37.833 -19 52.5s-20 26.167 -34 34.5
s-31 12.5 -51 12.5c-26.667 0 -50.167 -7 -70.5 -21s-36.5 -28.667 -48.5 -44v-352h-90zM260 749.002h-80l-59 75l-59 -75h-80l92 114h94z" />
    <glyph glyph-name="Hbar" unicode="&#x126;" horiz-adv-x="729" 
d="M535 0v299h-341v-299h-92v477h-87v67h87v122h92v-122h341v122h92v-122h87v-67h-87v-477h-92zM535 377v100h-341v-100h341z" />
    <glyph glyph-name="hbar" unicode="&#x127;" horiz-adv-x="554" 
d="M0 620l75 0.00195312v86h90v-86h149v-65h-149v-136c19.333 23.333 41 41 65 53s52 18 84 18c30 0 55.667 -6.33301 77 -19s39 -29.834 53 -51.501s24.167 -46.834 30.5 -75.501s9.5 -59 9.5 -91v-253h-90v250c0 24.667 -2 47.167 -6 67.5s-10.333 37.833 -19 52.5
s-20 26.167 -34 34.5s-31 12.5 -51 12.5c-26.667 0 -50.167 -7 -70.5 -21s-36.5 -28.667 -48.5 -44v-352h-90v555h-75v65z" />
    <glyph glyph-name="Itilde" unicode="&#x128;" horiz-adv-x="262" 
d="M177 0h-92v666h92v-666zM209 734c-12.667 0 -25.999 2.5 -39.999 7.5l-43 15.5c-15.333 5.33301 -28.5 9.66602 -39.5 12.999s-21.167 5 -30.5 5c-12.667 0 -21.667 -4.16699 -27 -12.5s-10.666 -19.166 -15.999 -32.499l-55 19c8.66699 34 20.334 58.167 35.001 72.5
s36 21.5 64 21.5c16 0 31.333 -2.16699 46 -6.5s28 -8.83301 40 -13.5l36.5 -14.5c11 -4.33301 20.833 -6.5 29.5 -6.5c11.333 0 19.666 3.66699 24.999 11s10.666 17.333 15.999 30l54 -24c-10.667 -29.333 -22.834 -50.833 -36.501 -64.5s-33.167 -20.5 -58.5 -20.5z" />
    <glyph glyph-name="itilde" unicode="&#x129;" horiz-adv-x="240" 
d="M75 0v480h90v-480h-90zM190 567c-13.333 0 -27.665 3.49902 -42.998 10.499s-27.666 12.833 -36.999 17.5s-18.5 9 -27.5 13s-17.5 6 -25.5 6c-12.667 0 -22 -4.16699 -28 -12.5s-12.667 -21.166 -20 -38.499l-54 22c8.66699 32.667 20.5 57 35.5 73s37.167 24 66.5 24
c13.333 0 25.666 -2.16699 36.999 -6.5s22.666 -9.5 33.999 -15.5c11.333 -5.33301 22 -10.833 32 -16.5s19.667 -8.5 29 -8.5c12 0 21.167 4.66699 27.5 14s12.166 20 17.499 32l53 -25c-11.333 -28 -24.5 -49.833 -39.5 -65.5s-34.167 -23.5 -57.5 -23.5z" />
    <glyph glyph-name="uni012A" unicode="&#x12a;" horiz-adv-x="262" 
d="M177 0h-92v666h92v-666zM-13 828h289v-70h-289v70z" />
    <glyph glyph-name="imacron" unicode="&#x12b;" horiz-adv-x="240" 
d="M75 0v480h90v-480h-90zM-16 651h272v-69h-272v69z" />
    <glyph glyph-name="Ibreve" unicode="&#x12c;" horiz-adv-x="262" 
d="M177 0h-92v666h92v-666zM269 837c-8.66699 -35.333 -25.332 -62.666 -49.999 -81.999s-54 -29 -88 -29s-63.333 9.66699 -88 29s-41.334 46.666 -50.001 81.999l62 18c6 -20.667 15.167 -37.334 27.5 -50.001s28.5 -19 48.5 -19s36.167 6.33301 48.5 19
s21.5 29.334 27.5 50.001z" />
    <glyph glyph-name="uni012D" unicode="&#x12d;" horiz-adv-x="240" 
d="M75 0v480h90v-480h-90zM267 692c-7.33301 -46 -24.502 -80 -51.502 -102s-58.833 -33 -95.5 -33s-68.5 11 -95.5 33s-44.167 56 -51.5 102l66 14c4.66699 -27.333 13.834 -48.666 27.501 -63.999s31.5 -23 53.5 -23s39.833 7.66699 53.5 23s22.834 36.666 27.501 63.999z
" />
    <glyph glyph-name="Iogonek" unicode="&#x12e;" horiz-adv-x="262" 
d="M189 -201c-20 -10 -44.6641 -15.0059 -73.9971 -15.0059c-30.667 0 -54.834 9 -72.501 27s-26.5 41 -26.5 69c0 15.333 2.16699 28.833 6.5 40.5s9.83301 22.334 16.5 32.001s14 18.334 22 26.001s16 14.834 24 21.501v666h92v-666
c-22.667 -17.333 -41.834 -34.666 -57.501 -51.999s-23.5 -37.666 -23.5 -60.999c0 -16 3.83301 -27.5 11.5 -34.5s18.167 -10.5 31.5 -10.5c7.33301 0 14.666 0.833008 21.999 2.5s14 3.83398 20 6.50098z" />
    <glyph glyph-name="iogonek" unicode="&#x12f;" horiz-adv-x="240" 
d="M177 -201c-20 -10 -44.6641 -15.0029 -73.9971 -15.0029c-30.667 0 -54.834 8.83301 -72.501 26.5s-26.5 40.5 -26.5 68.5c0 15.333 2.16699 29 6.5 41s9.83301 23 16.5 33s14.167 18.833 22.5 26.5s16.833 14.5 25.5 20.5v480h90v-480
c-22.667 -17.333 -41.834 -34.666 -57.501 -51.999s-23.5 -37.666 -23.5 -60.999c0 -16 3.83301 -27.5 11.5 -34.5s18.167 -10.5 31.5 -10.5c7.33301 0 14.666 0.833008 21.999 2.5s14 3.83398 20 6.50098zM63.0029 621.997c0 15.333 5.16699 28.666 15.5 39.999
s24.166 17 41.499 17s31.166 -5.66699 41.499 -17s15.5 -24.666 15.5 -39.999s-5.16699 -28.666 -15.5 -39.999s-24.166 -17 -41.499 -17s-31.166 5.66699 -41.499 17s-15.5 24.666 -15.5 39.999z" />
    <glyph glyph-name="Idotaccent" unicode="&#x130;" horiz-adv-x="262" 
d="M177 0h-92v666h92v-666zM74 795c0 15.333 5.16699 28.666 15.5 39.999s24.166 17 41.499 17s31.166 -5.66699 41.499 -17s15.5 -24.666 15.5 -39.999s-5.16699 -28.666 -15.5 -39.999s-24.166 -17 -41.499 -17s-31.166 5.66699 -41.499 17s-15.5 24.666 -15.5 39.999z
" />
    <glyph glyph-name="dotlessi" unicode="&#x131;" horiz-adv-x="240" 
d="M75 0v480h90v-480h-90z" />
    <glyph glyph-name="IJ" unicode="&#x132;" horiz-adv-x="512" 
d="M177 0h-92v666h92v-666zM437 152c-0.666992 -28.667 -2.5 -55.832 -5.5 -81.499s-9 -51 -18 -76s-21.333 -50 -37 -75s-36.167 -50.833 -61.5 -77.5l-64 51c34.667 39.333 59 78.166 73 116.499s21 80.833 21 127.5v529h92v-514z" />
    <glyph glyph-name="ij" unicode="&#x133;" horiz-adv-x="475" 
d="M75 0v480h90v-480h-90zM63 622c0 15.333 5.16699 28.666 15.5 39.999s24.166 17 41.499 17s31.166 -5.66699 41.499 -17s15.5 -24.666 15.5 -39.999s-5.16699 -28.666 -15.5 -39.999s-24.166 -17 -41.499 -17s-31.166 5.66699 -41.499 17s-15.5 24.666 -15.5 39.999z
M405 118c0 -31.333 -2 -61.332 -6 -89.999s-10.833 -56.834 -20.5 -84.501s-23 -54.667 -40 -81s-38.5 -52.5 -64.5 -78.5l-62 49c37.333 40.667 63.833 82.667 79.5 126s23.5 91 23.5 143v378h90v-362zM303 622.001c0 15.333 5.16699 28.666 15.5 39.999
s24.166 17 41.499 17s31.166 -5.66699 41.499 -17s15.5 -24.666 15.5 -39.999s-5.16699 -28.666 -15.5 -39.999s-24.166 -17 -41.499 -17s-31.166 5.66699 -41.499 17s-15.5 24.666 -15.5 39.999z" />
    <glyph glyph-name="Jcircumflex" unicode="&#x134;" horiz-adv-x="250" 
d="M175 152c-0.666992 -28.667 -2.5 -55.832 -5.5 -81.499s-9 -51 -18 -76s-21.333 -50 -37 -75s-36.167 -50.833 -61.5 -77.5l-64 51c34.667 39.333 59 78.166 73 116.499s21 80.833 21 127.5v529h92v-514zM264 729.002h-80l-59 75l-59 -75h-80l92 114h94z" />
    <glyph glyph-name="jcircumflex" unicode="&#x135;" horiz-adv-x="235" 
d="M165 118c0 -31.333 -2 -61.332 -6 -89.999s-10.833 -56.834 -20.5 -84.501s-23 -54.667 -40 -81s-38.5 -52.5 -64.5 -78.5l-62 49c37.333 40.667 63.833 82.667 79.5 126s23.5 91 23.5 143v378h90v-362zM268 555.001h-80l-70 110l-70 -110h-80l107 160h86z" />
    <glyph glyph-name="Kcommaaccent" unicode="&#x136;" horiz-adv-x="585" 
d="M80 0v666h92v-323l278 323h111l-287 -330l306 -336h-116l-292 330v-330h-92zM222 -223c12 26 21.334 51.167 28.001 75.5s10.667 49.833 12 76.5h86c-2 -32 -8.83301 -64.167 -20.5 -96.5s-25.834 -59.833 -42.501 -82.5z" />
    <glyph glyph-name="kcommaaccent" unicode="&#x137;" horiz-adv-x="490" 
d="M75 0v706h90v-453l192 227h104l-203 -236l220 -244h-109l-204 238v-238h-90zM179 -223c12 26 21.334 51.167 28.001 75.5s10.667 49.833 12 76.5h86c-2 -32 -8.83301 -64.167 -20.5 -96.5s-25.834 -59.833 -42.501 -82.5z" />
    <glyph glyph-name="kgreenlandic" unicode="&#x138;" horiz-adv-x="490" 
d="M75 0v480h90v-227l192 227h104l-203 -236l220 -244h-109l-204 238v-238h-90z" />
    <glyph glyph-name="Lacute" unicode="&#x139;" horiz-adv-x="472" 
d="M172 666v-591h278v-75h-370v666h92zM91 729l84 114h106l-115 -114h-75z" />
    <glyph glyph-name="lacute" unicode="&#x13a;" horiz-adv-x="276" 
d="M160 124c0 -19.333 3.83203 -34.167 11.499 -44.5s20.834 -15.5 39.501 -15.5c14.667 0 29.667 2 45 6l4 -67c-22 -7.33301 -46.333 -11 -73 -11c-42 0 -72 12.333 -90 37s-27 55 -27 91v586h90v-582zM75.999 748.999l84 114h106l-115 -114h-75z" />
    <glyph glyph-name="Lcommaaccent" unicode="&#x13b;" horiz-adv-x="472" 
d="M172 666v-591h278v-75h-370v666h92zM190 -223c12 26 21.334 51.167 28.001 75.5s10.667 49.833 12 76.5h86c-2 -32 -8.83301 -64.167 -20.5 -96.5s-25.834 -59.833 -42.501 -82.5z" />
    <glyph glyph-name="lcommaaccent" unicode="&#x13c;" horiz-adv-x="276" 
d="M160 124c0 -19.333 3.83203 -34.167 11.499 -44.5s20.834 -15.5 39.501 -15.5c14.667 0 29.667 2 45 6l4 -67c-22 -7.33301 -46.333 -11 -73 -11c-42 0 -72 12.333 -90 37s-27 55 -27 91v586h90v-582zM85.999 -223.001c12 26 21.334 51.167 28.001 75.5
s10.667 49.833 12 76.5h86c-2 -32 -8.83301 -64.167 -20.5 -96.5s-25.834 -59.833 -42.501 -82.5z" />
    <glyph glyph-name="Lcaron" unicode="&#x13d;" horiz-adv-x="472" 
d="M172 666v-591h278v-75h-370v666h92zM292 464c16 34.667 27.835 67.832 35.502 99.499s12.5 66.834 14.5 105.501l80 -8c-2.66699 -40 -9.83398 -78.833 -21.501 -116.5s-28.834 -73.5 -51.501 -107.5z" />
    <glyph glyph-name="lcaron" unicode="&#x13e;" horiz-adv-x="364" 
d="M160 124c0 -19.333 3.83203 -34.167 11.499 -44.5s20.834 -15.5 39.501 -15.5c14.667 0 29.667 2 45 6l4 -67c-22 -7.33301 -46.333 -11 -73 -11c-42 0 -72 12.333 -90 37s-27 55 -27 91v586h90v-582zM248.999 500.999c16 34.667 27.835 67.832 35.502 99.499
s12.5 66.834 14.5 105.501l80 -8c-2.66699 -40 -9.83398 -78.833 -21.501 -116.5s-28.834 -73.5 -51.501 -107.5z" />
    <glyph glyph-name="Ldot" unicode="&#x13f;" horiz-adv-x="472" 
d="M172 666v-591h278v-75h-370v666h92zM401 324c0 -16 -5.33301 -29.667 -16 -41s-24.667 -17 -42 -17s-31.333 5.66699 -42 17s-16 25 -16 41s5.33301 29.667 16 41s24.667 17 42 17s31.333 -5.66699 42 -17s16 -25 16 -41z" />
    <glyph glyph-name="ldot" unicode="&#x140;" horiz-adv-x="381" 
d="M160 124c0 -19.333 3.83203 -34.167 11.499 -44.5s20.834 -15.5 39.501 -15.5c14.667 0 29.667 2 45 6l4 -67c-22 -7.33301 -46.333 -11 -73 -11c-42 0 -72 12.333 -90 37s-27 55 -27 91v586h90v-582zM360.999 293.999c0 -16 -5.33301 -29.667 -16 -41
s-24.667 -17 -42 -17s-31.333 5.66699 -42 17s-16 25 -16 41s5.33301 29.667 16 41s24.667 17 42 17s31.333 -5.66699 42 -17s16 -25 16 -41z" />
    <glyph glyph-name="Lslash" unicode="&#x141;" horiz-adv-x="472" 
d="M172 323v-248h278v-75h-370v277l-60 -30l-29 66l89 44v309h92v-263l173 87l30 -65z" />
    <glyph glyph-name="lslash" unicode="&#x142;" horiz-adv-x="282" 
d="M160 350l-0.000976562 -226.001c0 -19.333 3.83301 -34.166 11.5 -44.499s20.834 -15.5 39.501 -15.5c14.667 0 29.667 2 45 6l4 -67c-22 -7.33301 -46.333 -11 -73 -11c-42 0 -72 12.333 -90 37s-27 55 -27 91v185l-57 -28l-29 66l86 43v320h90v-275l98 49l30 -65z" />
    <glyph glyph-name="Nacute" unicode="&#x143;" horiz-adv-x="709" 
d="M541 0l-373 523v-523h-88v666h88l373 -523v523h88v-666h-88zM292 729l84 114h106l-115 -114h-75z" />
    <glyph glyph-name="nacute" unicode="&#x144;" horiz-adv-x="554" 
d="M75 0l0.000976562 480.002h86v-70c18 25.333 39.667 45 65 59s54.666 21 87.999 21c30 0 55.667 -6.33301 77 -19s39 -29.834 53 -51.501s24.167 -46.834 30.5 -75.501s9.5 -59 9.5 -91v-253h-90v250c0 24.667 -2 47.167 -6 67.5s-10.333 37.833 -19 52.5
s-20 26.167 -34 34.5s-31 12.5 -51 12.5c-26.667 0 -50.167 -7 -70.5 -21s-36.5 -28.667 -48.5 -44v-352h-90zM217.001 555.002l74 160h100l-98 -160h-76z" />
    <glyph glyph-name="Ncommaaccent" unicode="&#x145;" horiz-adv-x="709" 
d="M541 0l-373 523v-523h-88v666h88l373 -523v523h88v-666h-88zM267 -223c12 26 21.334 51.167 28.001 75.5s10.667 49.833 12 76.5h86c-2 -32 -8.83301 -64.167 -20.5 -96.5s-25.834 -59.833 -42.501 -82.5z" />
    <glyph glyph-name="ncommaaccent" unicode="&#x146;" horiz-adv-x="554" 
d="M75 0l0.000976562 480.002h86v-70c18 25.333 39.667 45 65 59s54.666 21 87.999 21c30 0 55.667 -6.33301 77 -19s39 -29.834 53 -51.501s24.167 -46.834 30.5 -75.501s9.5 -59 9.5 -91v-253h-90v250c0 24.667 -2 47.167 -6 67.5s-10.333 37.833 -19 52.5
s-20 26.167 -34 34.5s-31 12.5 -51 12.5c-26.667 0 -50.167 -7 -70.5 -21s-36.5 -28.667 -48.5 -44v-352h-90zM205.001 -222.998c12 26 21.334 51.167 28.001 75.5s10.667 49.833 12 76.5h86c-2 -32 -8.83301 -64.167 -20.5 -96.5s-25.834 -59.833 -42.501 -82.5z" />
    <glyph glyph-name="Ncaron" unicode="&#x147;" horiz-adv-x="709" 
d="M541 0l-373 523v-523h-88v666h88l373 -523v523h88v-666h-88zM406 729h-94l-92 114h80l59 -75l59 75h80z" />
    <glyph glyph-name="ncaron" unicode="&#x148;" horiz-adv-x="554" 
d="M75 0l0.000976562 480.002h86v-70c18 25.333 39.667 45 65 59s54.666 21 87.999 21c30 0 55.667 -6.33301 77 -19s39 -29.834 53 -51.501s24.167 -46.834 30.5 -75.501s9.5 -59 9.5 -91v-253h-90v250c0 24.667 -2 47.167 -6 67.5s-10.333 37.833 -19 52.5
s-20 26.167 -34 34.5s-31 12.5 -51 12.5c-26.667 0 -50.167 -7 -70.5 -21s-36.5 -28.667 -48.5 -44v-352h-90zM318.001 555.002h-86l-107 160h80l70 -110l70 110h80z" />
    <glyph glyph-name="napostrophe" unicode="&#x149;" horiz-adv-x="649" 
d="M170 0l0.000976562 480.002h86v-70c18 25.333 39.667 45 65 59s54.666 21 87.999 21c30 0 55.667 -6.33301 77 -19s39 -29.834 53 -51.501s24.167 -46.834 30.5 -75.501s9.5 -59 9.5 -91v-253h-90v250c0 24.667 -2 47.167 -6 67.5s-10.333 37.833 -19 52.5
s-20 26.167 -34 34.5s-31 12.5 -51 12.5c-26.667 0 -50.167 -7 -70.5 -21s-36.5 -28.667 -48.5 -44v-352h-90zM9.00098 501.002c16 34.667 27.835 67.832 35.502 99.499s12.5 66.834 14.5 105.501l80 -8c-2.66699 -40 -9.83398 -78.833 -21.501 -116.5
s-28.834 -73.5 -51.501 -107.5z" />
    <glyph glyph-name="Eng" unicode="&#x14a;" horiz-adv-x="709" 
d="M629 78c0 -68 -15.998 -126.33 -47.998 -174.997s-86.333 -88.334 -163 -119.001l-32 69c39.333 17.333 72.166 38.166 98.499 62.499s43.166 55.166 50.499 92.499l-367 515v-523h-88v666h88l373 -523v523h88v-588v0z" />
    <glyph glyph-name="eng" unicode="&#x14b;" horiz-adv-x="554" 
d="M394 250c0 24.667 -1.99902 47.1699 -5.99902 67.5029s-10.333 37.833 -19 52.5s-20 26.167 -34 34.5s-31 12.5 -51 12.5c-26.667 0 -50.167 -7 -70.5 -21s-36.5 -28.667 -48.5 -44v-352h-90v480h86v-70c18 25.333 39.667 45 65 59s54.666 21 87.999 21
c30 0 55.667 -6.33301 77 -19s39 -29.834 53 -51.501s24.167 -46.834 30.5 -75.501s9.5 -59 9.5 -91v-175c0 -34 -3.5 -65.5 -10.5 -94.5s-18.5 -55.833 -34.5 -80.5s-37 -46.834 -63 -66.501s-58.333 -37.167 -97 -52.5l-33 71c46 17.333 82.167 43 108.5 77
s39.5 78 39.5 132v186v0z" />
    <glyph glyph-name="Omacron" unicode="&#x14c;" horiz-adv-x="740" 
d="M370 -12c-52 0 -98.333 9.33301 -139 28s-74.667 43.667 -102 75s-48.166 68 -62.499 110s-21.5 86 -21.5 132s7.16699 90 21.5 132s35.166 78.667 62.499 110s61.333 56.333 102 75s87 28 139 28s98.333 -9.33301 139 -28s74.667 -43.667 102 -75
s48.166 -68 62.499 -110s21.5 -86 21.5 -132s-7.16699 -90 -21.5 -132s-35.166 -78.667 -62.499 -110s-61.333 -56.333 -102 -75s-87 -28 -139 -28zM370 62c38 0 71.667 7 101 21s53.666 33.333 72.999 58s34 53.5 44 86.5s15 68.167 15 105.5s-5 72.5 -15 105.5
s-24.667 61.667 -44 86s-43.666 43.666 -72.999 57.999s-63 21.5 -101 21.5s-71.667 -7.16699 -101 -21.5s-53.666 -33.666 -72.999 -57.999s-34 -53 -44 -86s-15 -68.167 -15 -105.5s5 -72.5 15 -105.5s24.667 -61.833 44 -86.5s43.666 -44 72.999 -58s63 -21 101 -21z
M225 828h289v-70h-289v70z" />
    <glyph glyph-name="omacron" unicode="&#x14d;" horiz-adv-x="546" 
d="M506 240c0 -34 -5.16699 -66 -15.5 -96s-25.5 -56.5 -45.5 -79.5s-44.5 -41.167 -73.5 -54.5s-61.833 -20 -98.5 -20c-37.333 0 -70.333 6.66699 -99 20s-53 31.5 -73 54.5s-35.167 49.5 -45.5 79.5s-15.5 62 -15.5 96s5.16699 66 15.5 96s25.5 56.5 45.5 79.5
s44.333 41.167 73 54.5s61.667 20 99 20c36.667 0 69.5 -6.66699 98.5 -20s53.5 -31.5 73.5 -54.5s35.167 -49.5 45.5 -79.5s15.5 -62 15.5 -96zM416 240c0 24.667 -3 48 -9 70s-14.833 41.167 -26.5 57.5s-26.5 29.166 -44.5 38.499s-39 14 -63 14s-45 -4.66699 -63 -14
s-32.833 -22.166 -44.5 -38.499s-20.5 -35.5 -26.5 -57.5s-9 -45.333 -9 -70c0 -25.333 3 -48.833 9 -70.5s14.833 -40.667 26.5 -57s26.5 -29.166 44.5 -38.499s39 -14 63 -14s45 4.66699 63 14s32.833 22.166 44.5 38.499s20.5 35.333 26.5 57s9 45.167 9 70.5zM137 651
h272v-69h-272v69z" />
    <glyph glyph-name="Obreve" unicode="&#x14e;" horiz-adv-x="740" 
d="M370 -12c-52 0 -98.333 9.33301 -139 28s-74.667 43.667 -102 75s-48.166 68 -62.499 110s-21.5 86 -21.5 132s7.16699 90 21.5 132s35.166 78.667 62.499 110s61.333 56.333 102 75s87 28 139 28s98.333 -9.33301 139 -28s74.667 -43.667 102 -75
s48.166 -68 62.499 -110s21.5 -86 21.5 -132s-7.16699 -90 -21.5 -132s-35.166 -78.667 -62.499 -110s-61.333 -56.333 -102 -75s-87 -28 -139 -28zM370 62c38 0 71.667 7 101 21s53.666 33.333 72.999 58s34 53.5 44 86.5s15 68.167 15 105.5s-5 72.5 -15 105.5
s-24.667 61.667 -44 86s-43.666 43.666 -72.999 57.999s-63 21.5 -101 21.5s-71.667 -7.16699 -101 -21.5s-53.666 -33.666 -72.999 -57.999s-34 -53 -44 -86s-15 -68.167 -15 -105.5s5 -72.5 15 -105.5s24.667 -61.833 44 -86.5s43.666 -44 72.999 -58s63 -21 101 -21z
M508 837c-8.66699 -35.333 -25.332 -62.666 -49.999 -81.999s-54 -29 -88 -29s-63.333 9.66699 -88 29s-41.334 46.666 -50.001 81.999l62 18c6 -20.667 15.167 -37.334 27.5 -50.001s28.5 -19 48.5 -19s36.167 6.33301 48.5 19s21.5 29.334 27.5 50.001z" />
    <glyph glyph-name="obreve" unicode="&#x14f;" horiz-adv-x="546" 
d="M506 240c0 -34 -5.16699 -66 -15.5 -96s-25.5 -56.5 -45.5 -79.5s-44.5 -41.167 -73.5 -54.5s-61.833 -20 -98.5 -20c-37.333 0 -70.333 6.66699 -99 20s-53 31.5 -73 54.5s-35.167 49.5 -45.5 79.5s-15.5 62 -15.5 96s5.16699 66 15.5 96s25.5 56.5 45.5 79.5
s44.333 41.167 73 54.5s61.667 20 99 20c36.667 0 69.5 -6.66699 98.5 -20s53.5 -31.5 73.5 -54.5s35.167 -49.5 45.5 -79.5s15.5 -62 15.5 -96zM416 240c0 24.667 -3 48 -9 70s-14.833 41.167 -26.5 57.5s-26.5 29.166 -44.5 38.499s-39 14 -63 14s-45 -4.66699 -63 -14
s-32.833 -22.166 -44.5 -38.499s-20.5 -35.5 -26.5 -57.5s-9 -45.333 -9 -70c0 -25.333 3 -48.833 9 -70.5s14.833 -40.667 26.5 -57s26.5 -29.166 44.5 -38.499s39 -14 63 -14s45 4.66699 63 14s32.833 22.166 44.5 38.499s20.5 35.333 26.5 57s9 45.167 9 70.5zM420 692
c-7.33301 -46 -24.502 -80 -51.502 -102s-58.833 -33 -95.5 -33s-68.5 11 -95.5 33s-44.167 56 -51.5 102l66 14c4.66699 -27.333 13.834 -48.666 27.501 -63.999s31.5 -23 53.5 -23s39.833 7.66699 53.5 23s22.834 36.666 27.501 63.999z" />
    <glyph glyph-name="Ohungarumlaut" unicode="&#x150;" horiz-adv-x="740" 
d="M370 -12c-52 0 -98.333 9.33301 -139 28s-74.667 43.667 -102 75s-48.166 68 -62.499 110s-21.5 86 -21.5 132s7.16699 90 21.5 132s35.166 78.667 62.499 110s61.333 56.333 102 75s87 28 139 28s98.333 -9.33301 139 -28s74.667 -43.667 102 -75
s48.166 -68 62.499 -110s21.5 -86 21.5 -132s-7.16699 -90 -21.5 -132s-35.166 -78.667 -62.499 -110s-61.333 -56.333 -102 -75s-87 -28 -139 -28zM370 62c38 0 71.667 7 101 21s53.666 33.333 72.999 58s34 53.5 44 86.5s15 68.167 15 105.5s-5 72.5 -15 105.5
s-24.667 61.667 -44 86s-43.666 43.666 -72.999 57.999s-63 21.5 -101 21.5s-71.667 -7.16699 -101 -21.5s-53.666 -33.666 -72.999 -57.999s-34 -53 -44 -86s-15 -68.167 -15 -105.5s5 -72.5 15 -105.5s24.667 -61.833 44 -86.5s43.666 -44 72.999 -58s63 -21 101 -21z
M254 729l45 114h91l-65 -114h-71zM432 729l45 114h91l-65 -114h-71z" />
    <glyph glyph-name="ohungarumlaut" unicode="&#x151;" horiz-adv-x="546" 
d="M506 240c0 -34 -5.16699 -66 -15.5 -96s-25.5 -56.5 -45.5 -79.5s-44.5 -41.167 -73.5 -54.5s-61.833 -20 -98.5 -20c-37.333 0 -70.333 6.66699 -99 20s-53 31.5 -73 54.5s-35.167 49.5 -45.5 79.5s-15.5 62 -15.5 96s5.16699 66 15.5 96s25.5 56.5 45.5 79.5
s44.333 41.167 73 54.5s61.667 20 99 20c36.667 0 69.5 -6.66699 98.5 -20s53.5 -31.5 73.5 -54.5s35.167 -49.5 45.5 -79.5s15.5 -62 15.5 -96zM416 240c0 24.667 -3 48 -9 70s-14.833 41.167 -26.5 57.5s-26.5 29.166 -44.5 38.499s-39 14 -63 14s-45 -4.66699 -63 -14
s-32.833 -22.166 -44.5 -38.499s-20.5 -35.5 -26.5 -57.5s-9 -45.333 -9 -70c0 -25.333 3 -48.833 9 -70.5s14.833 -40.667 26.5 -57s26.5 -29.166 44.5 -38.499s39 -14 63 -14s45 4.66699 63 14s32.833 22.166 44.5 38.499s20.5 35.333 26.5 57s9 45.167 9 70.5zM150 555
l57 160h92l-77 -160h-72zM325 555l57 160h92l-77 -160h-72z" />
    <glyph glyph-name="OE" unicode="&#x152;" horiz-adv-x="953" 
d="M385 678c23.333 0 46.667 -1 70 -3s45.333 -5 66 -9h371v-75h-279v-213h267v-75h-267v-228h282v-75h-374c-23.333 -4 -46 -7 -68 -9s-44.667 -3 -68 -3c-58 0 -108.333 9.33301 -151 28s-78 43.667 -106 75s-48.833 68 -62.5 110s-20.5 86 -20.5 132s6.83301 90 20.5 132
s34.5 78.667 62.5 110s63.333 56.333 106 75s93 28 151 28zM521.001 588c-16 4 -35.667 7.50195 -59 10.502s-46 4.5 -68 4.5c-86.667 0 -151.167 -23.833 -193.5 -71.5s-63.5 -113.834 -63.5 -198.501s21.167 -150.834 63.5 -198.501s106.833 -71.5 193.5 -71.5
c22 0 44.667 1.5 68 4.5s43 6.5 59 10.5v510z" />
    <glyph glyph-name="oe" unicode="&#x153;" horiz-adv-x="860" 
d="M635 490c30.667 0 57.666 -5 80.999 -15s42.833 -23.667 58.5 -41s27.5 -37.833 35.5 -61.5s12 -49.167 12 -76.5c0 -24.667 -3.66699 -51.667 -11 -81h-303c0.666992 -22.667 4 -43.5 10 -62.5s15.167 -35.167 27.5 -48.5s28.166 -23.833 47.499 -31.5
s42.666 -11.5 69.999 -11.5c26 0 49.833 2.33301 71.5 7s44.167 11.667 67.5 21l12 -67c-22 -10 -46 -17.833 -72 -23.5s-55.667 -8.5 -89 -8.5c-45.333 0 -85.666 9.83301 -120.999 29.5s-60.666 45.5 -75.999 77.5c-17.333 -30.667 -42.333 -56.167 -75 -76.5
s-70 -30.5 -112 -30.5c-37.333 0 -70.166 6.66699 -98.499 20s-52.166 31.5 -71.499 54.5s-34 49.5 -44 79.5s-15 62 -15 96s5.16699 66 15.5 96s25.5 56.5 45.5 79.5s44.333 41.167 73 54.5s61.667 20 99 20c42 0 78.833 -9.33301 110.5 -28s57.5 -44.667 77.5 -78
c14 28 35.667 52.667 65 74s65.666 32 108.999 32zM415.999 240c0 24.667 -3 47.834 -9 69.501s-15 40.5 -27 56.5s-26.833 28.5 -44.5 37.5s-38.5 13.5 -62.5 13.5s-44.833 -4.5 -62.5 -13.5s-32.5 -21.5 -44.5 -37.5s-21 -34.833 -27 -56.5s-9 -44.834 -9 -69.501
c0 -25.333 3 -48.666 9 -69.999s15 -40 27 -56s26.833 -28.5 44.5 -37.5s38.5 -13.5 62.5 -13.5s44.833 4.5 62.5 13.5s32.5 21.5 44.5 37.5s21 34.667 27 56s9 44.666 9 69.999zM631.999 423c-18 0 -34.333 -3.66895 -49 -11.002s-27.334 -17.166 -38.001 -29.499
s-19.167 -27 -25.5 -44s-10.166 -35.167 -11.499 -54.5h226c0.666992 4.66699 1.16699 9.33398 1.5 14.001s0.5 9 0.5 13c0 31.333 -8.5 57.833 -25.5 79.5s-43.167 32.5 -78.5 32.5z" />
    <glyph glyph-name="Racute" unicode="&#x154;" horiz-adv-x="584" 
d="M172 0l-91.999 0.00195312v666h173c36 0 69.5 -4 100.5 -12s58.167 -19.833 81.5 -35.5s41.666 -35.334 54.999 -59.001s20 -50.834 20 -81.501c0 -46 -14.833 -86 -44.5 -120s-71.167 -58.667 -124.5 -74l235 -284h-113l-217 268
c-3.33301 0 -8.33301 -0.166992 -15 -0.5s-13.667 -0.5 -21 -0.5h-21.5h-16.5v-267zM418.001 476.002c0 20.667 -4.5 38.5 -13.5 53.5s-21.167 27 -36.5 36s-33 15.667 -53 20s-41 6.5 -63 6.5h-80v-251h46c28 0 54.167 2.66699 78.5 8s45.5 13.5 63.5 24.5
s32.167 25 42.5 42s15.5 37.167 15.5 60.5zM197.001 729.002l84 114h106l-115 -114h-75z" />
    <glyph glyph-name="racute" unicode="&#x155;" horiz-adv-x="361" 
d="M345 406h-23c-35.333 0 -65.833 -6.66699 -91.5 -20s-47.5 -35 -65.5 -65v-321h-90v480h86v-92c14 32 32.5 56.333 55.5 73s53.5 25 91.5 25c14.667 0 27 -1.66699 37 -5v-75zM142 555l74 160h100l-98 -160h-76z" />
    <glyph glyph-name="Rcommaaccent" unicode="&#x156;" horiz-adv-x="584" 
d="M172 0l-91.999 0.00195312v666h173c36 0 69.5 -4 100.5 -12s58.167 -19.833 81.5 -35.5s41.666 -35.334 54.999 -59.001s20 -50.834 20 -81.501c0 -46 -14.833 -86 -44.5 -120s-71.167 -58.667 -124.5 -74l235 -284h-113l-217 268
c-3.33301 0 -8.33301 -0.166992 -15 -0.5s-13.667 -0.5 -21 -0.5h-21.5h-16.5v-267zM418.001 476.002c0 20.667 -4.5 38.5 -13.5 53.5s-21.167 27 -36.5 36s-33 15.667 -53 20s-41 6.5 -63 6.5h-80v-251h46c28 0 54.167 2.66699 78.5 8s45.5 13.5 63.5 24.5
s32.167 25 42.5 42s15.5 37.167 15.5 60.5zM224.001 -222.998c12 26 21.334 51.167 28.001 75.5s10.667 49.833 12 76.5h86c-2 -32 -8.83301 -64.167 -20.5 -96.5s-25.834 -59.833 -42.501 -82.5z" />
    <glyph glyph-name="rcommaaccent" unicode="&#x157;" horiz-adv-x="361" 
d="M345 406h-23c-35.333 0 -65.833 -6.66699 -91.5 -20s-47.5 -35 -65.5 -65v-321h-90v480h86v-92c14 32 32.5 56.333 55.5 73s53.5 25 91.5 25c14.667 0 27 -1.66699 37 -5v-75zM35 -223c12 26 21.334 51.167 28.001 75.5s10.667 49.833 12 76.5h86
c-2 -32 -8.83301 -64.167 -20.5 -96.5s-25.834 -59.833 -42.501 -82.5z" />
    <glyph glyph-name="Rcaron" unicode="&#x158;" horiz-adv-x="584" 
d="M172 0l-91.999 0.00195312v666h173c36 0 69.5 -4 100.5 -12s58.167 -19.833 81.5 -35.5s41.666 -35.334 54.999 -59.001s20 -50.834 20 -81.501c0 -46 -14.833 -86 -44.5 -120s-71.167 -58.667 -124.5 -74l235 -284h-113l-217 268
c-3.33301 0 -8.33301 -0.166992 -15 -0.5s-13.667 -0.5 -21 -0.5h-21.5h-16.5v-267zM418.001 476.002c0 20.667 -4.5 38.5 -13.5 53.5s-21.167 27 -36.5 36s-33 15.667 -53 20s-41 6.5 -63 6.5h-80v-251h46c28 0 54.167 2.66699 78.5 8s45.5 13.5 63.5 24.5
s32.167 25 42.5 42s15.5 37.167 15.5 60.5zM326.001 729.002h-94l-92 114h80l59 -75l59 75h80z" />
    <glyph glyph-name="rcaron" unicode="&#x159;" horiz-adv-x="361" 
d="M345 406h-23c-35.333 0 -65.833 -6.66699 -91.5 -20s-47.5 -35 -65.5 -65v-321h-90v480h86v-92c14 32 32.5 56.333 55.5 73s53.5 25 91.5 25c14.667 0 27 -1.66699 37 -5v-75zM255 555h-86l-107 160h80l70 -110l70 110h80z" />
    <glyph glyph-name="Sacute" unicode="&#x15a;" horiz-adv-x="501" 
d="M464 173c0 -28.667 -6.16895 -54.334 -18.502 -77.001s-29 -42 -50 -58s-45.667 -28.333 -74 -37s-58.833 -13 -91.5 -13c-32 0 -64.833 3.33301 -98.5 10s-64.5 16.667 -92.5 30l18 73c24.667 -11.333 51.834 -20.666 81.501 -27.999s59.5 -11 89.5 -11
c43.333 0 78.333 9.16699 105 27.5s40 44.833 40 79.5c0 19.333 -3.83301 35.833 -11.5 49.5s-18.167 26 -31.5 37s-28.833 20.833 -46.5 29.5l-56.5 27c-22.667 10.667 -44.5 21.834 -65.5 33.501s-39.5 25 -55.5 40s-28.833 32 -38.5 51s-14.5 41.167 -14.5 66.5
c0 28.667 5.16699 54 15.5 76s24.833 40.333 43.5 55s41 25.667 67 33s54.667 11 86 11c32 0 63.167 -3.66699 93.5 -11s56.833 -17 79.5 -29l-17 -73c-21.333 11.333 -45.666 20.666 -72.999 27.999s-55 11 -83 11c-80.667 0 -121 -31.333 -121 -94
c0 -14 2 -26.167 6 -36.5s10.5 -20 19.5 -29s21 -17.667 36 -26s33.167 -17.833 54.5 -28.5l68 -34.5c24 -12.333 46 -27 66 -44s36.667 -36.833 50 -59.5s20 -49 20 -79zM182.998 729l84 114h106l-115 -114h-75z" />
    <glyph glyph-name="sacute" unicode="&#x15b;" horiz-adv-x="418" 
d="M383 137c0 -22.667 -4.83789 -42.9971 -14.5049 -60.9971s-23 -33.333 -40 -46s-37.167 -22.5 -60.5 -29.5s-48.666 -10.5 -75.999 -10.5c-12 0 -24.667 0.666992 -38 2s-26.666 3.33301 -39.999 6s-26.166 5.83398 -38.499 9.50098s-22.833 7.5 -31.5 11.5l15 71
c17.333 -7.33301 37.166 -14 59.499 -20s47.166 -9 74.499 -9c28.667 0 52.834 5.16699 72.501 15.5s29.5 26.833 29.5 49.5c0 10.667 -2.66699 20.167 -8 28.5s-12.333 15.666 -21 21.999s-18.834 12.166 -30.501 17.499l-36.5 16
c-17.333 6.66699 -34.666 14.167 -51.999 22.5s-33.166 18.333 -47.499 30s-26 25.167 -35 40.5s-13.5 33.666 -13.5 54.999c0 23.333 4.83301 43.333 14.5 60s22.334 30.334 38.001 41.001s33.834 18.5 54.501 23.5s42 7.5 64 7.5c25.333 0 50 -2.83301 74 -8.5
s45.667 -13.5 65 -23.5l-15 -68c-19.333 9.33301 -39.5 16.5 -60.5 21.5s-42.167 7.5 -63.5 7.5c-23.333 0 -43 -4 -59 -12s-24 -22.667 -24 -44c0 -10 2.83301 -18.5 8.5 -25.5s13 -13.333 22 -19s18.833 -10.834 29.5 -15.501s20.667 -9.33398 30 -14.001
c8.66699 -4 21.667 -9.66699 39 -17s34.5 -16.833 51.5 -28.5s31.833 -26.167 44.5 -43.5s19 -38.333 19 -63zM154.995 555.003l74 160h100l-98 -160h-76z" />
    <glyph glyph-name="Scircumflex" unicode="&#x15c;" horiz-adv-x="501" 
d="M464 173c0 -28.667 -6.16895 -54.334 -18.502 -77.001s-29 -42 -50 -58s-45.667 -28.333 -74 -37s-58.833 -13 -91.5 -13c-32 0 -64.833 3.33301 -98.5 10s-64.5 16.667 -92.5 30l18 73c24.667 -11.333 51.834 -20.666 81.501 -27.999s59.5 -11 89.5 -11
c43.333 0 78.333 9.16699 105 27.5s40 44.833 40 79.5c0 19.333 -3.83301 35.833 -11.5 49.5s-18.167 26 -31.5 37s-28.833 20.833 -46.5 29.5l-56.5 27c-22.667 10.667 -44.5 21.834 -65.5 33.501s-39.5 25 -55.5 40s-28.833 32 -38.5 51s-14.5 41.167 -14.5 66.5
c0 28.667 5.16699 54 15.5 76s24.833 40.333 43.5 55s41 25.667 67 33s54.667 11 86 11c32 0 63.167 -3.66699 93.5 -11s56.833 -17 79.5 -29l-17 -73c-21.333 11.333 -45.666 20.666 -72.999 27.999s-55 11 -83 11c-80.667 0 -121 -31.333 -121 -94
c0 -14 2 -26.167 6 -36.5s10.5 -20 19.5 -29s21 -17.667 36 -26s33.167 -17.833 54.5 -28.5l68 -34.5c24 -12.333 46 -27 66 -44s36.667 -36.833 50 -59.5s20 -49 20 -79zM389.998 729h-80l-59 75l-59 -75h-80l92 114h94z" />
    <glyph glyph-name="scircumflex" unicode="&#x15d;" horiz-adv-x="418" 
d="M383 137c0 -22.667 -4.83789 -42.9971 -14.5049 -60.9971s-23 -33.333 -40 -46s-37.167 -22.5 -60.5 -29.5s-48.666 -10.5 -75.999 -10.5c-12 0 -24.667 0.666992 -38 2s-26.666 3.33301 -39.999 6s-26.166 5.83398 -38.499 9.50098s-22.833 7.5 -31.5 11.5l15 71
c17.333 -7.33301 37.166 -14 59.499 -20s47.166 -9 74.499 -9c28.667 0 52.834 5.16699 72.501 15.5s29.5 26.833 29.5 49.5c0 10.667 -2.66699 20.167 -8 28.5s-12.333 15.666 -21 21.999s-18.834 12.166 -30.501 17.499l-36.5 16
c-17.333 6.66699 -34.666 14.167 -51.999 22.5s-33.166 18.333 -47.499 30s-26 25.167 -35 40.5s-13.5 33.666 -13.5 54.999c0 23.333 4.83301 43.333 14.5 60s22.334 30.334 38.001 41.001s33.834 18.5 54.501 23.5s42 7.5 64 7.5c25.333 0 50 -2.83301 74 -8.5
s45.667 -13.5 65 -23.5l-15 -68c-19.333 9.33301 -39.5 16.5 -60.5 21.5s-42.167 7.5 -63.5 7.5c-23.333 0 -43 -4 -59 -12s-24 -22.667 -24 -44c0 -10 2.83301 -18.5 8.5 -25.5s13 -13.333 22 -19s18.833 -10.834 29.5 -15.501s20.667 -9.33398 30 -14.001
c8.66699 -4 21.667 -9.66699 39 -17s34.5 -16.833 51.5 -28.5s31.833 -26.167 44.5 -43.5s19 -38.333 19 -63zM358.995 555.003h-80l-70 110l-70 -110h-80l107 160h86z" />
    <glyph glyph-name="Scedilla" unicode="&#x15e;" horiz-adv-x="501" 
d="M333 -119c0 -15.333 -3.66797 -28.4961 -11.001 -39.4961s-17.333 -20.333 -30 -28s-27.834 -13.834 -45.501 -18.501s-36.834 -8.33398 -57.501 -11.001l-13 54c8.66699 1.33301 17.5 3 26.5 5s17.167 4.66699 24.5 8s13.5 7.33301 18.5 12s7.5 10.334 7.5 17.001
s-2.33301 12.334 -7 17.001s-10.667 8.5 -18 11.5s-15.666 5.5 -24.999 7.5l-28 6l27 67c-28 1.33301 -56.167 5.33301 -84.5 12s-54.5 15.667 -78.5 27l18 73c24.667 -11.333 51.834 -20.666 81.501 -27.999s59.5 -11 89.5 -11c43.333 0 78.333 9.16699 105 27.5
s40 44.833 40 79.5c0 19.333 -3.83301 35.833 -11.5 49.5s-18.167 26 -31.5 37s-28.833 20.833 -46.5 29.5l-56.5 27c-22.667 10.667 -44.5 21.834 -65.5 33.501s-39.5 25 -55.5 40s-28.833 32 -38.5 51s-14.5 41.167 -14.5 66.5c0 28.667 5.16699 54 15.5 76
s24.833 40.333 43.5 55s41 25.667 67 33s54.667 11 86 11c32 0 63.167 -3.66699 93.5 -11s56.833 -17 79.5 -29l-17 -73c-21.333 11.333 -45.666 20.666 -72.999 27.999s-55 11 -83 11c-80.667 0 -121 -31.333 -121 -94c0 -14 2 -26.167 6 -36.5s10.5 -20 19.5 -29
s21 -17.667 36 -26s33.167 -17.833 54.5 -28.5l68 -34.5c24 -12.333 46 -27 66 -44s36.667 -36.833 50 -59.5s20 -49 20 -79c0 -26 -5.16699 -49.833 -15.5 -71.5s-24.666 -40.334 -42.999 -56.001s-40 -28.334 -65 -38.001s-51.833 -15.834 -80.5 -18.501l-12 -33
c9.33301 -2 19 -4.83301 29 -8.5s19.167 -8.33398 27.5 -14.001s15.166 -12.834 20.499 -21.501s8 -19 8 -31z" />
    <glyph glyph-name="scedilla" unicode="&#x15f;" horiz-adv-x="418" 
d="M300 -119c0 -15.333 -3.66699 -28.4941 -11 -39.4941s-17.333 -20.333 -30 -28s-27.834 -13.834 -45.501 -18.501s-36.834 -8.33398 -57.501 -11.001l-13 54c8.66699 1.33301 17.5 3 26.5 5s17.167 4.66699 24.5 8s13.5 7.33301 18.5 12s7.5 10.334 7.5 17.001
s-2.33301 12.334 -7 17.001s-10.667 8.5 -18 11.5s-15.666 5.5 -24.999 7.5l-28 6l28 69c-22 1.33301 -44.667 4.5 -68 9.5s-42.666 11.167 -57.999 18.5l15 71c17.333 -7.33301 37.166 -14 59.499 -20s47.166 -9 74.499 -9c28.667 0 52.834 5.16699 72.501 15.5
s29.5 26.833 29.5 49.5c0 10.667 -2.66699 20.167 -8 28.5s-12.333 15.666 -21 21.999s-18.834 12.166 -30.501 17.499l-36.5 16c-17.333 6.66699 -34.666 14.167 -51.999 22.5s-33.166 18.333 -47.499 30s-26 25.167 -35 40.5s-13.5 33.666 -13.5 54.999
c0 23.333 4.83301 43.333 14.5 60s22.334 30.334 38.001 41.001s33.834 18.5 54.501 23.5s42 7.5 64 7.5c25.333 0 50 -2.83301 74 -8.5s45.667 -13.5 65 -23.5l-15 -68c-19.333 9.33301 -39.5 16.5 -60.5 21.5s-42.167 7.5 -63.5 7.5c-23.333 0 -43 -4 -59 -12
s-24 -22.667 -24 -44c0 -10 2.83301 -18.5 8.5 -25.5s13 -13.333 22 -19s18.833 -10.834 29.5 -15.501s20.667 -9.33398 30 -14.001c8.66699 -4 21.667 -9.66699 39 -17s34.5 -16.833 51.5 -28.5s31.833 -26.167 44.5 -43.5s19 -38.333 19 -63
c0 -20 -3.83301 -38.333 -11.5 -55s-18.334 -31.167 -32.001 -43.5s-30 -22.5 -49 -30.5s-39.833 -13.333 -62.5 -16l-13 -36c9.33301 -2 19 -4.83301 29 -8.5s19.167 -8.33398 27.5 -14.001s15.166 -12.834 20.499 -21.501s8 -19 8 -31z" />
    <glyph glyph-name="Scaron" unicode="&#x160;" horiz-adv-x="501" 
d="M464 173c0 -28.667 -6.16895 -54.334 -18.502 -77.001s-29 -42 -50 -58s-45.667 -28.333 -74 -37s-58.833 -13 -91.5 -13c-32 0 -64.833 3.33301 -98.5 10s-64.5 16.667 -92.5 30l18 73c24.667 -11.333 51.834 -20.666 81.501 -27.999s59.5 -11 89.5 -11
c43.333 0 78.333 9.16699 105 27.5s40 44.833 40 79.5c0 19.333 -3.83301 35.833 -11.5 49.5s-18.167 26 -31.5 37s-28.833 20.833 -46.5 29.5l-56.5 27c-22.667 10.667 -44.5 21.834 -65.5 33.501s-39.5 25 -55.5 40s-28.833 32 -38.5 51s-14.5 41.167 -14.5 66.5
c0 28.667 5.16699 54 15.5 76s24.833 40.333 43.5 55s41 25.667 67 33s54.667 11 86 11c32 0 63.167 -3.66699 93.5 -11s56.833 -17 79.5 -29l-17 -73c-21.333 11.333 -45.666 20.666 -72.999 27.999s-55 11 -83 11c-80.667 0 -121 -31.333 -121 -94
c0 -14 2 -26.167 6 -36.5s10.5 -20 19.5 -29s21 -17.667 36 -26s33.167 -17.833 54.5 -28.5l68 -34.5c24 -12.333 46 -27 66 -44s36.667 -36.833 50 -59.5s20 -49 20 -79zM297.998 729h-94l-92 114h80l59 -75l59 75h80z" />
    <glyph glyph-name="scaron" unicode="&#x161;" horiz-adv-x="418" 
d="M383 137c0 -22.667 -4.83789 -42.9971 -14.5049 -60.9971s-23 -33.333 -40 -46s-37.167 -22.5 -60.5 -29.5s-48.666 -10.5 -75.999 -10.5c-12 0 -24.667 0.666992 -38 2s-26.666 3.33301 -39.999 6s-26.166 5.83398 -38.499 9.50098s-22.833 7.5 -31.5 11.5l15 71
c17.333 -7.33301 37.166 -14 59.499 -20s47.166 -9 74.499 -9c28.667 0 52.834 5.16699 72.501 15.5s29.5 26.833 29.5 49.5c0 10.667 -2.66699 20.167 -8 28.5s-12.333 15.666 -21 21.999s-18.834 12.166 -30.501 17.499l-36.5 16
c-17.333 6.66699 -34.666 14.167 -51.999 22.5s-33.166 18.333 -47.499 30s-26 25.167 -35 40.5s-13.5 33.666 -13.5 54.999c0 23.333 4.83301 43.333 14.5 60s22.334 30.334 38.001 41.001s33.834 18.5 54.501 23.5s42 7.5 64 7.5c25.333 0 50 -2.83301 74 -8.5
s45.667 -13.5 65 -23.5l-15 -68c-19.333 9.33301 -39.5 16.5 -60.5 21.5s-42.167 7.5 -63.5 7.5c-23.333 0 -43 -4 -59 -12s-24 -22.667 -24 -44c0 -10 2.83301 -18.5 8.5 -25.5s13 -13.333 22 -19s18.833 -10.834 29.5 -15.501s20.667 -9.33398 30 -14.001
c8.66699 -4 21.667 -9.66699 39 -17s34.5 -16.833 51.5 -28.5s31.833 -26.167 44.5 -43.5s19 -38.333 19 -63zM254.995 555.003h-86l-107 160h80l70 -110l70 110h80z" />
    <glyph glyph-name="Tcommaaccent" unicode="&#x162;" horiz-adv-x="528" 
d="M506 666v-75h-196v-591h-92v591h-196v75h484zM180 -223c12 26 21.334 51.167 28.001 75.5s10.667 49.833 12 76.5h86c-2 -32 -8.83301 -64.167 -20.5 -96.5s-25.834 -59.833 -42.501 -82.5z" />
    <glyph glyph-name="Tcommaaccent" unicode="&#x21a;" horiz-adv-x="528" 
d="M506 666v-75h-196v-591h-92v591h-196v75h484zM180 -223c12 26 21.334 51.167 28.001 75.5s10.667 49.833 12 76.5h86c-2 -32 -8.83301 -64.167 -20.5 -96.5s-25.834 -59.833 -42.501 -82.5z" />
    <glyph glyph-name="tcommaaccent" unicode="&#x163;" horiz-adv-x="389" 
d="M20 480h86.0039v123h90v-123h158v-73h-158v-245c0 -14 1 -27.167 3 -39.5s5.66699 -22.833 11 -31.5s12.666 -15.5 21.999 -20.5s21.666 -7.5 36.999 -7.5c28 0 53.333 4.33301 76 13l8 -68c-10.667 -4.66699 -25.834 -8.83398 -45.501 -12.501
s-38.834 -5.5 -57.501 -5.5c-26 0 -48 4.16699 -66 12.5s-32.833 20 -44.5 35s-20.167 32.833 -25.5 53.5s-8 43.334 -8 68.001v248h-86v73zM153.004 -223c12 26 21.334 51.167 28.001 75.5s10.667 49.833 12 76.5h86c-2 -32 -8.83301 -64.167 -20.5 -96.5
s-25.834 -59.833 -42.501 -82.5z" />
    <glyph glyph-name="tcommaaccent" unicode="&#x21b;" horiz-adv-x="389" 
d="M20 480h86.0039v123h90v-123h158v-73h-158v-245c0 -14 1 -27.167 3 -39.5s5.66699 -22.833 11 -31.5s12.666 -15.5 21.999 -20.5s21.666 -7.5 36.999 -7.5c28 0 53.333 4.33301 76 13l8 -68c-10.667 -4.66699 -25.834 -8.83398 -45.501 -12.501
s-38.834 -5.5 -57.501 -5.5c-26 0 -48 4.16699 -66 12.5s-32.833 20 -44.5 35s-20.167 32.833 -25.5 53.5s-8 43.334 -8 68.001v248h-86v73zM153.004 -223c12 26 21.334 51.167 28.001 75.5s10.667 49.833 12 76.5h86c-2 -32 -8.83301 -64.167 -20.5 -96.5
s-25.834 -59.833 -42.501 -82.5z" />
    <glyph glyph-name="Tcaron" unicode="&#x164;" horiz-adv-x="528" 
d="M506 666v-75h-196v-591h-92v591h-196v75h484zM311 729h-94l-92 114h80l59 -75l59 75h80z" />
    <glyph glyph-name="tcaron" unicode="&#x165;" horiz-adv-x="397" 
d="M20 480h85.0039v123h91v-123h158v-73h-158v-245c0 -14 1 -27.167 3 -39.5s5.66699 -22.833 11 -31.5s12.666 -15.5 21.999 -20.5s21.666 -7.5 36.999 -7.5c28 0 53.333 4.33301 76 13l8 -68c-10.667 -4.66699 -25.834 -8.83398 -45.501 -12.501
s-38.834 -5.5 -57.501 -5.5c-26 0 -48 4.16699 -66 12.5s-32.833 20 -44.5 35s-20.167 32.833 -25.5 53.5s-8 43.334 -8 68.001v248h-86v73zM259.004 597c11.333 23.333 20.5 47.166 27.5 71.499s11.167 51.5 12.5 81.5l80 -8c-1.33301 -34 -7.5 -66.167 -18.5 -96.5
s-24.833 -57.166 -41.5 -80.499z" />
    <glyph glyph-name="Tbar" unicode="&#x166;" horiz-adv-x="528" 
d="M310 280v-280h-92v280h-132v71h132v240h-196v75h484v-75h-196v-240h132v-71h-132z" />
    <glyph glyph-name="tbar" unicode="&#x167;" horiz-adv-x="389" 
d="M20 299h86.0039v108h-86v73h85v123h91v-123h158v-73h-158v-108h126v-68h-126v-69c0 -14 1 -27.167 3 -39.5s5.66699 -22.833 11 -31.5s12.666 -15.5 21.999 -20.5s21.666 -7.5 36.999 -7.5c28 0 53.333 4.33301 76 13l8 -68
c-10.667 -4.66699 -25.834 -8.83398 -45.501 -12.501s-38.834 -5.5 -57.501 -5.5c-26 0 -48 4.16699 -66 12.5s-32.833 20 -44.5 35s-20.167 32.833 -25.5 53.5s-8 43.334 -8 68.001v72h-86v68z" />
    <glyph glyph-name="Utilde" unicode="&#x168;" horiz-adv-x="674" 
d="M506 666h92v-430c0 -34.667 -5.66699 -67.167 -17 -97.5s-28 -56.666 -50 -78.999s-49.167 -39.833 -81.5 -52.5s-69.833 -19 -112.5 -19s-80.167 6.33301 -112.5 19s-59.5 30.167 -81.5 52.5s-38.667 48.666 -50 78.999s-17 62.833 -17 97.5v430h92v-434
c0 -50 14.167 -90.667 42.5 -122s70.5 -47 126.5 -47s98.167 15.667 126.5 47s42.5 72 42.5 122v434zM418 734c-12.667 0 -25.999 2.5 -39.999 7.5l-43 15.5c-15.333 5.33301 -28.5 9.66602 -39.5 12.999s-21.167 5 -30.5 5c-12.667 0 -21.667 -4.16699 -27 -12.5
s-10.666 -19.166 -15.999 -32.499l-55 19c8.66699 34 20.334 58.167 35.001 72.5s36 21.5 64 21.5c16 0 31.333 -2.16699 46 -6.5s28 -8.83301 40 -13.5l36.5 -14.5c11 -4.33301 20.833 -6.5 29.5 -6.5c11.333 0 19.666 3.66699 24.999 11s10.666 17.333 15.999 30l54 -24
c-10.667 -29.333 -22.834 -50.833 -36.501 -64.5s-33.167 -20.5 -58.5 -20.5z" />
    <glyph glyph-name="utilde" unicode="&#x169;" horiz-adv-x="545" 
d="M470 480l-0.000976562 -480.002h-86v70c-17.333 -23.333 -38.833 -42.5 -64.5 -57.5s-55.167 -22.5 -88.5 -22.5c-30 0 -55.5 6.33301 -76.5 19s-38.167 29.834 -51.5 51.501s-23 46.834 -29 75.501s-9 59 -9 91v253h90v-250c0 -24.667 1.66699 -47.167 5 -67.5
s9 -37.833 17 -52.5s18.833 -26.167 32.5 -34.5s30.834 -12.5 51.501 -12.5c26.667 0 50 7 70 21s36.333 28.667 49 44v352h90zM352.999 566.998c-13.333 0 -27.665 3.49902 -42.998 10.499s-27.666 12.833 -36.999 17.5s-18.5 9 -27.5 13s-17.5 6 -25.5 6
c-12.667 0 -22 -4.16699 -28 -12.5s-12.667 -21.166 -20 -38.499l-54 22c8.66699 32.667 20.5 57 35.5 73s37.167 24 66.5 24c13.333 0 25.666 -2.16699 36.999 -6.5s22.666 -9.5 33.999 -15.5c11.333 -5.33301 22 -10.833 32 -16.5s19.667 -8.5 29 -8.5
c12 0 21.167 4.66699 27.5 14s12.166 20 17.499 32l53 -25c-11.333 -28 -24.5 -49.833 -39.5 -65.5s-34.167 -23.5 -57.5 -23.5z" />
    <glyph glyph-name="Umacron" unicode="&#x16a;" horiz-adv-x="674" 
d="M506 666h92v-430c0 -34.667 -5.66699 -67.167 -17 -97.5s-28 -56.666 -50 -78.999s-49.167 -39.833 -81.5 -52.5s-69.833 -19 -112.5 -19s-80.167 6.33301 -112.5 19s-59.5 30.167 -81.5 52.5s-38.667 48.666 -50 78.999s-17 62.833 -17 97.5v430h92v-434
c0 -50 14.167 -90.667 42.5 -122s70.5 -47 126.5 -47s98.167 15.667 126.5 47s42.5 72 42.5 122v434zM192 828h289v-70h-289v70z" />
    <glyph glyph-name="umacron" unicode="&#x16b;" horiz-adv-x="545" 
d="M470 480l-0.000976562 -480.002h-86v70c-17.333 -23.333 -38.833 -42.5 -64.5 -57.5s-55.167 -22.5 -88.5 -22.5c-30 0 -55.5 6.33301 -76.5 19s-38.167 29.834 -51.5 51.501s-23 46.834 -29 75.501s-9 59 -9 91v253h90v-250c0 -24.667 1.66699 -47.167 5 -67.5
s9 -37.833 17 -52.5s18.833 -26.167 32.5 -34.5s30.834 -12.5 51.501 -12.5c26.667 0 50 7 70 21s36.333 28.667 49 44v352h90zM139.999 650.998h272v-69h-272v69z" />
    <glyph glyph-name="Ubreve" unicode="&#x16c;" horiz-adv-x="674" 
d="M506 666h92v-430c0 -34.667 -5.66699 -67.167 -17 -97.5s-28 -56.666 -50 -78.999s-49.167 -39.833 -81.5 -52.5s-69.833 -19 -112.5 -19s-80.167 6.33301 -112.5 19s-59.5 30.167 -81.5 52.5s-38.667 48.666 -50 78.999s-17 62.833 -17 97.5v430h92v-434
c0 -50 14.167 -90.667 42.5 -122s70.5 -47 126.5 -47s98.167 15.667 126.5 47s42.5 72 42.5 122v434zM475 837c-8.66699 -35.333 -25.332 -62.666 -49.999 -81.999s-54 -29 -88 -29s-63.333 9.66699 -88 29s-41.334 46.666 -50.001 81.999l62 18
c6 -20.667 15.167 -37.334 27.5 -50.001s28.5 -19 48.5 -19s36.167 6.33301 48.5 19s21.5 29.334 27.5 50.001z" />
    <glyph glyph-name="ubreve" unicode="&#x16d;" horiz-adv-x="545" 
d="M470 480l-0.000976562 -480.002h-86v70c-17.333 -23.333 -38.833 -42.5 -64.5 -57.5s-55.167 -22.5 -88.5 -22.5c-30 0 -55.5 6.33301 -76.5 19s-38.167 29.834 -51.5 51.501s-23 46.834 -29 75.501s-9 59 -9 91v253h90v-250c0 -24.667 1.66699 -47.167 5 -67.5
s9 -37.833 17 -52.5s18.833 -26.167 32.5 -34.5s30.834 -12.5 51.501 -12.5c26.667 0 50 7 70 21s36.333 28.667 49 44v352h90zM424.999 691.998c-7.33301 -46 -24.502 -80 -51.502 -102s-58.833 -33 -95.5 -33s-68.5 11 -95.5 33s-44.167 56 -51.5 102l66 14
c4.66699 -27.333 13.834 -48.666 27.501 -63.999s31.5 -23 53.5 -23s39.833 7.66699 53.5 23s22.834 36.666 27.501 63.999z" />
    <glyph glyph-name="Uring" unicode="&#x16e;" horiz-adv-x="674" 
d="M506 666h92v-430c0 -34.667 -5.66699 -67.167 -17 -97.5s-28 -56.666 -50 -78.999s-49.167 -39.833 -81.5 -52.5s-69.833 -19 -112.5 -19s-80.167 6.33301 -112.5 19s-59.5 30.167 -81.5 52.5s-38.667 48.666 -50 78.999s-17 62.833 -17 97.5v430h92v-434
c0 -50 14.167 -90.667 42.5 -122s70.5 -47 126.5 -47s98.167 15.667 126.5 47s42.5 72 42.5 122v434zM337 896c14.667 0 27.5 -2.33301 38.5 -7s20.167 -11 27.5 -19s12.833 -17 16.5 -27s5.5 -20.333 5.5 -31c0 -21.333 -7.33301 -40.5 -22 -57.5s-36.667 -25.5 -66 -25.5
s-51.333 8.5 -66 25.5s-22 36.167 -22 57.5c0 10.667 1.83301 21 5.5 31s9.16699 19 16.5 27s16.5 14.333 27.5 19s23.833 7 38.5 7zM378 812c0 12 -3.5 22.333 -10.5 31s-17.167 13 -30.5 13s-23.5 -4.33301 -30.5 -13s-10.5 -19 -10.5 -31s3.5 -22.167 10.5 -30.5
s17.167 -12.5 30.5 -12.5s23.5 4.16699 30.5 12.5s10.5 18.5 10.5 30.5z" />
    <glyph glyph-name="uring" unicode="&#x16f;" horiz-adv-x="545" 
d="M470 480l-0.000976562 -480.002h-86v70c-17.333 -23.333 -38.833 -42.5 -64.5 -57.5s-55.167 -22.5 -88.5 -22.5c-30 0 -55.5 6.33301 -76.5 19s-38.167 29.834 -51.5 51.501s-23 46.834 -29 75.501s-9 59 -9 91v253h90v-250c0 -24.667 1.66699 -47.167 5 -67.5
s9 -37.833 17 -52.5s18.833 -26.167 32.5 -34.5s30.834 -12.5 51.501 -12.5c26.667 0 50 7 70 21s36.333 28.667 49 44v352h90zM274.999 718.998c14.667 0 27.5 -2.33301 38.5 -7s20.167 -11 27.5 -19s12.833 -17 16.5 -27s5.5 -20.333 5.5 -31
c0 -21.333 -7.33301 -40.5 -22 -57.5s-36.667 -25.5 -66 -25.5s-51.333 8.5 -66 25.5s-22 36.167 -22 57.5c0 10.667 1.83301 21 5.5 31s9.16699 19 16.5 27s16.5 14.333 27.5 19s23.833 7 38.5 7zM315.999 634.998c0 12 -3.5 22.333 -10.5 31s-17.167 13 -30.5 13
s-23.5 -4.33301 -30.5 -13s-10.5 -19 -10.5 -31s3.5 -22.167 10.5 -30.5s17.167 -12.5 30.5 -12.5s23.5 4.16699 30.5 12.5s10.5 18.5 10.5 30.5z" />
    <glyph glyph-name="Uhungarumlaut" unicode="&#x170;" horiz-adv-x="674" 
d="M506 666h92v-430c0 -34.667 -5.66699 -67.167 -17 -97.5s-28 -56.666 -50 -78.999s-49.167 -39.833 -81.5 -52.5s-69.833 -19 -112.5 -19s-80.167 6.33301 -112.5 19s-59.5 30.167 -81.5 52.5s-38.667 48.666 -50 78.999s-17 62.833 -17 97.5v430h92v-434
c0 -50 14.167 -90.667 42.5 -122s70.5 -47 126.5 -47s98.167 15.667 126.5 47s42.5 72 42.5 122v434zM205 729l45 114h91l-65 -114h-71zM383 729l45 114h91l-65 -114h-71z" />
    <glyph glyph-name="uhungarumlaut" unicode="&#x171;" horiz-adv-x="545" 
d="M470 480l-0.000976562 -480.002h-86v70c-17.333 -23.333 -38.833 -42.5 -64.5 -57.5s-55.167 -22.5 -88.5 -22.5c-30 0 -55.5 6.33301 -76.5 19s-38.167 29.834 -51.5 51.501s-23 46.834 -29 75.501s-9 59 -9 91v253h90v-250c0 -24.667 1.66699 -47.167 5 -67.5
s9 -37.833 17 -52.5s18.833 -26.167 32.5 -34.5s30.834 -12.5 51.501 -12.5c26.667 0 50 7 70 21s36.333 28.667 49 44v352h90zM141.999 554.998l57 160h92l-77 -160h-72zM316.999 554.998l57 160h92l-77 -160h-72z" />
    <glyph glyph-name="Uogonek" unicode="&#x172;" horiz-adv-x="674" 
d="M464 -199c-9.33301 -5.33301 -21.166 -9.49805 -35.499 -12.498s-28.5 -4.5 -42.5 -4.5c-28.667 0 -52.334 8 -71.001 24s-28 38 -28 66c0 14 2.83301 26.833 8.5 38.5s12.667 22.5 21 32.5s17.5 18.667 27.5 26s19.667 13.666 29 18.999
c-5.33301 -0.666992 -11.166 -1.16699 -17.499 -1.5s-12.5 -0.5 -18.5 -0.5c-42.667 0 -80.167 6.33301 -112.5 19s-59.5 30.167 -81.5 52.5s-38.667 48.666 -50 78.999s-17 62.833 -17 97.5v430h92v-434c0 -50 14.167 -90.667 42.5 -122s70.5 -47 126.5 -47
s98.167 15.667 126.5 47s42.5 72 42.5 122v434h92v-430c0 -42.667 -6.83301 -79.334 -20.5 -110.001s-35.167 -58 -64.5 -82c-18 -15.333 -35.667 -29.5 -53 -42.5s-33 -25.667 -47 -38s-25.167 -25 -33.5 -38s-12.5 -26.5 -12.5 -40.5c0 -15.333 4.16699 -26.333 12.5 -33
s18.5 -10 30.5 -10c7.33301 0 15.166 0.833008 23.499 2.5s15.5 3.83398 21.5 6.50098z" />
    <glyph glyph-name="uogonek" unicode="&#x173;" horiz-adv-x="545" 
d="M469 -199c-9.33301 -5.33301 -21.166 -9.50195 -35.499 -12.502s-28.5 -4.5 -42.5 -4.5c-28.667 0 -52.334 8 -71.001 24s-28 38 -28 66c0 16 3 30.667 9 44s13.667 25.166 23 35.499s19.333 19.333 30 27s20.667 14.167 30 19.5v70
c-17.333 -23.333 -38.833 -42.5 -64.5 -57.5s-55.167 -22.5 -88.5 -22.5c-30 0 -55.5 6.33301 -76.5 19s-38.167 29.834 -51.5 51.501s-23 46.834 -29 75.501s-9 59 -9 91v253h90v-250c0 -24.667 1.66699 -47.167 5 -67.5s9 -37.833 17 -52.5s18.833 -26.167 32.5 -34.5
s30.834 -12.5 51.501 -12.5c26.667 0 50 7 70 21s36.333 28.667 49 44v352h90v-480l-38 -28c-12 -8.66699 -22.5 -17.5 -31.5 -26.5s-16 -18.333 -21 -28s-7.5 -20.5 -7.5 -32.5c0 -15.333 4.16699 -26.333 12.5 -33s18.5 -10 30.5 -10
c7.33301 0 15.166 0.833008 23.499 2.5s15.5 3.83398 21.5 6.50098z" />
    <glyph glyph-name="Wcircumflex" unicode="&#x174;" horiz-adv-x="944" 
d="M684 121l147 545h89l-190 -666h-91l-167 578l-167 -578h-91l-190 666h89l147 -545l160 545h104zM611 729h-80l-59 75l-59 -75h-80l92 114h94z" />
    <glyph glyph-name="wcircumflex" unicode="&#x175;" horiz-adv-x="754" 
d="M548 106l101 374h85l-142 -480h-84l-131 403l-131 -403h-84l-142 480h85l101 -374l122 374h98zM527 555h-80l-70 110l-70 -110h-80l107 160h86z" />
    <glyph glyph-name="Ycircumflex" unicode="&#x176;" horiz-adv-x="540" 
d="M437 666h98l-219 -403v-263h-92v263l-219 403h98l167 -318zM409 729h-80l-59 75l-59 -75h-80l92 114h94z" />
    <glyph glyph-name="ycircumflex" unicode="&#x177;" horiz-adv-x="460" 
d="M117 -206l71 201l-176 485h93l126 -393l124 393h93l-243 -686h-88zM388 555h-80l-70 110l-70 -110h-80l107 160h86z" />
    <glyph glyph-name="Ydieresis" unicode="&#x178;" horiz-adv-x="540" 
d="M437 666h98l-219 -403v-263h-92v263l-219 403h98l167 -318zM224 789c0 -15.333 -4.83301 -27.666 -14.5 -36.999s-22.5 -14 -38.5 -14s-28.833 4.66699 -38.5 14s-14.5 21.666 -14.5 36.999s4.83301 27.666 14.5 36.999s22.5 14 38.5 14s28.833 -4.66699 38.5 -14
s14.5 -21.666 14.5 -36.999zM421 789c0 -15.333 -4.83301 -27.666 -14.5 -36.999s-22.5 -14 -38.5 -14s-28.833 4.66699 -38.5 14s-14.5 21.666 -14.5 36.999s4.83301 27.666 14.5 36.999s22.5 14 38.5 14s28.833 -4.66699 38.5 -14s14.5 -21.666 14.5 -36.999z" />
    <glyph glyph-name="Zacute" unicode="&#x179;" horiz-adv-x="540" 
d="M63 666h430v-74l-345 -518h352v-74h-450v74l345 518h-332v74zM214 729l84 114h106l-115 -114h-75z" />
    <glyph glyph-name="zacute" unicode="&#x17a;" horiz-adv-x="452" 
d="M55 0v70l248 340h-239v70h337v-70l-248 -340h259v-70h-357zM181 555l74 160h100l-98 -160h-76z" />
    <glyph glyph-name="Zdotaccent" unicode="&#x17b;" horiz-adv-x="540" 
d="M63 666h430v-74l-345 -518h352v-74h-450v74l345 518h-332v74zM224 795c0 15.333 5.16699 28.666 15.5 39.999s24.166 17 41.499 17s31.166 -5.66699 41.499 -17s15.5 -24.666 15.5 -39.999s-5.16699 -28.666 -15.5 -39.999s-24.166 -17 -41.499 -17
s-31.166 5.66699 -41.499 17s-15.5 24.666 -15.5 39.999z" />
    <glyph glyph-name="zdotaccent" unicode="&#x17c;" horiz-adv-x="452" 
d="M55 0v70l248 340h-239v70h337v-70l-248 -340h259v-70h-357zM182 622c0 15.333 5.16699 28.666 15.5 39.999s24.166 17 41.499 17s31.166 -5.66699 41.499 -17s15.5 -24.666 15.5 -39.999s-5.16699 -28.666 -15.5 -39.999s-24.166 -17 -41.499 -17
s-31.166 5.66699 -41.499 17s-15.5 24.666 -15.5 39.999z" />
    <glyph glyph-name="Zcaron" unicode="&#x17d;" horiz-adv-x="540" 
d="M63 666h430v-74l-345 -518h352v-74h-450v74l345 518h-332v74zM338 729h-94l-92 114h80l59 -75l59 75h80z" />
    <glyph glyph-name="zcaron" unicode="&#x17e;" horiz-adv-x="452" 
d="M55 0v70l248 340h-239v70h337v-70l-248 -340h259v-70h-357zM284 555h-86l-107 160h80l70 -110l70 110h80z" />
    <glyph glyph-name="florin" unicode="&#x192;" 
d="M125 341v71.998h105l3 34c4 42 10.667 77.5 20 106.5s21.666 52.5 36.999 70.5s33.833 31.167 55.5 39.5s46.834 12.5 75.501 12.5c13.333 0 27.666 -1.16699 42.999 -3.5s29.666 -5.83301 42.999 -10.5l-9 -69c-10 3.33301 -20.667 5.83301 -32 7.5
s-23.666 2.5 -36.999 2.5c-17.333 0 -32 -2.5 -44 -7.5s-22.167 -13.667 -30.5 -26s-15 -28.666 -20 -48.999s-8.83301 -45.5 -11.5 -75.5l-3 -32h121v-72h-127l-16 -180c-3.33301 -32.667 -7.66602 -65.834 -12.999 -99.501s-14.833 -64 -28.5 -91
s-32.834 -49.167 -57.501 -66.5s-57.667 -26 -99 -26c-14 0 -29.5 1.33301 -46.5 4s-31.5 6.33398 -43.5 11.001l9 70c11.333 -3.33301 23.333 -6.16602 36 -8.49902s24.667 -3.5 36 -3.5c24 0 43 5.16699 57 15.5s25 24.666 33 42.999s13.833 40.333 17.5 66
s6.83398 53.834 9.50098 84.501l16 181h-99z" />
    <glyph glyph-name="clickdental" unicode="&#x1c0;" horiz-adv-x="264" 
d="M95 -250v1000h74v-1000h-74z" />
    <glyph glyph-name="clicklateral" unicode="&#x1c1;" horiz-adv-x="528" 
d="M95 -250v1000h74v-1000h-74zM359 -250v1000h74v-1000h-74z" />
    <glyph glyph-name="clickretroflex" unicode="&#x1c3;" horiz-adv-x="296" 
d="M175 179h-52l-22 281v206h94v-206zM206 51c0 -16 -5.33301 -29.667 -16 -41s-24.667 -17 -42 -17s-31.333 5.66699 -42 17s-16 25 -16 41s5.33301 29.667 16 41s24.667 17 42 17s31.333 -5.66699 42 -17s16 -25 16 -41z" />
    <glyph glyph-name="DZcaron" unicode="&#x1c4;" horiz-adv-x="1223" 
d="M80 666l185 0.00390625c57.333 0 109.333 -8.33301 156 -25s86.667 -39.834 120 -69.501s59 -64.834 77 -105.501s27 -85 27 -133s-9 -92.333 -27 -133s-43.667 -75.834 -77 -105.501s-73.333 -52.834 -120 -69.501s-98.667 -25 -156 -25h-185v666zM265 74.0039
c40 0 77.5 5.83301 112.5 17.5s65.5 28.5 91.5 50.5s46.5 49 61.5 81s22.5 68.667 22.5 110c0 40.667 -7.5 77.167 -22.5 109.5s-35.5 59.5 -61.5 81.5s-56.5 38.833 -91.5 50.5s-72.5 17.5 -112.5 17.5h-93v-518h93zM746 666.004h430v-74l-345 -518h352v-74h-450v74
l345 518h-332v74zM1001 716.004h-86l-107 160h80l70 -110l70 110h80z" />
    <glyph glyph-name="Dzcaron" unicode="&#x1c5;" horiz-adv-x="1181" 
d="M80 666l185 0.00390625c57.333 0 109.333 -8.33301 156 -25s86.667 -39.834 120 -69.501s59 -64.834 77 -105.501s27 -85 27 -133s-9 -92.333 -27 -133s-43.667 -75.834 -77 -105.501s-73.333 -52.834 -120 -69.501s-98.667 -25 -156 -25h-185v666zM265 74.0039
c40 0 77.5 5.83301 112.5 17.5s65.5 28.5 91.5 50.5s46.5 49 61.5 81s22.5 68.667 22.5 110c0 40.667 -7.5 77.167 -22.5 109.5s-35.5 59.5 -61.5 81.5s-56.5 38.833 -91.5 50.5s-72.5 17.5 -112.5 17.5h-93v-518h93zM738 0.00390625v70l248 340h-239v70h337v-70l-248 -340
h259v-70h-357zM959 530.004h-86l-107 160h80l70 -110l70 110h80z" />
    <glyph glyph-name="dzcaron" unicode="&#x1c6;" horiz-adv-x="1042" 
d="M469 0l-85 -0.000976562v66c-18 -21.333 -39.667 -39.333 -65 -54s-56 -22 -92 -22c-28 0 -53.333 6 -76 18s-42.334 29 -59.001 51s-29.5 48 -38.5 78s-13.5 63 -13.5 99c0 40 6.16699 75.833 18.5 107.5s29.5 58.334 51.5 80.001s47.833 38.167 77.5 49.5
s61.834 17 96.501 17c19.333 0 36.5 -1.16699 51.5 -3.5s29.5 -5.5 43.5 -9.5v229h90v-706zM252 61.999c28.667 0 53.668 7.00098 75.001 21.001s38.666 29 51.999 45v277c-11.333 4.66699 -24.333 8 -39 10s-30 3 -46 3c-50 0 -89.833 -15.667 -119.5 -47
s-44.5 -76.333 -44.5 -135c0 -52.667 9.83301 -94.834 29.5 -126.501s50.5 -47.5 92.5 -47.5zM599.001 0v70l248 340h-239v70h337v-70l-248 -340h259v-70h-357zM820.001 530h-86l-107 160h80l70 -110l70 110h80z" />
    <glyph glyph-name="LJ" unicode="&#x1c7;" horiz-adv-x="722" 
d="M172 666v-591h278v-75h-370v666h92zM647 152c-0.666992 -28.667 -2.5 -55.832 -5.5 -81.499s-9 -51 -18 -76s-21.333 -50 -37 -75s-36.167 -50.833 -61.5 -77.5l-64 51c34.667 39.333 59 78.166 73 116.499s21 80.833 21 127.5v529h92v-514v0z" />
    <glyph glyph-name="Lj" unicode="&#x1c8;" horiz-adv-x="707" 
d="M172 666v-591h278v-75h-370v666h92zM637 118c0 -31.333 -2 -61.332 -6 -89.999s-10.833 -56.834 -20.5 -84.501s-23 -54.667 -40 -81s-38.5 -52.5 -64.5 -78.5l-62 49c37.333 40.667 63.833 82.667 79.5 126s23.5 91 23.5 143v378h90v-362zM535 622.001
c0 15.333 5.16699 28.666 15.5 39.999s24.166 17 41.499 17s31.166 -5.66699 41.499 -17s15.5 -24.666 15.5 -39.999s-5.16699 -28.666 -15.5 -39.999s-24.166 -17 -41.499 -17s-31.166 5.66699 -41.499 17s-15.5 24.666 -15.5 39.999z" />
    <glyph glyph-name="lj" unicode="&#x1c9;" horiz-adv-x="511" 
d="M160 124c0 -19.333 3.83203 -34.167 11.499 -44.5s20.834 -15.5 39.501 -15.5c14.667 0 29.667 2 45 6l4 -67c-22 -7.33301 -46.333 -11 -73 -11c-42 0 -72 12.333 -90 37s-27 55 -27 91v586h90v-582zM440.999 117.999c0 -31.333 -2 -61.332 -6 -89.999
s-10.833 -56.834 -20.5 -84.501s-23 -54.667 -40 -81s-38.5 -52.5 -64.5 -78.5l-62 49c37.333 40.667 63.833 82.667 79.5 126s23.5 91 23.5 143v378h90v-362zM338.999 622c0 15.333 5.16699 28.666 15.5 39.999s24.166 17 41.499 17s31.166 -5.66699 41.499 -17
s15.5 -24.666 15.5 -39.999s-5.16699 -28.666 -15.5 -39.999s-24.166 -17 -41.499 -17s-31.166 5.66699 -41.499 17s-15.5 24.666 -15.5 39.999z" />
    <glyph glyph-name="NJ" unicode="&#x1ca;" horiz-adv-x="959" 
d="M541 0l-373 523v-523h-88v666h88l373 -523v523h88v-666h-88zM884 152c-0.666992 -28.667 -2.5 -55.832 -5.5 -81.499s-9 -51 -18 -76s-21.333 -50 -37 -75s-36.167 -50.833 -61.5 -77.5l-64 51c34.667 39.333 59 78.166 73 116.499s21 80.833 21 127.5v529h92v-514v0z
" />
    <glyph glyph-name="Nj" unicode="&#x1cb;" horiz-adv-x="944" 
d="M541 0l-373 523v-523h-88v666h88l373 -523v523h88v-666h-88zM874 118c0 -31.333 -2 -61.332 -6 -89.999s-10.833 -56.834 -20.5 -84.501s-23 -54.667 -40 -81s-38.5 -52.5 -64.5 -78.5l-62 49c37.333 40.667 63.833 82.667 79.5 126s23.5 91 23.5 143v378h90v-362z
M772 622.001c0 15.333 5.16699 28.666 15.5 39.999s24.166 17 41.499 17s31.166 -5.66699 41.499 -17s15.5 -24.666 15.5 -39.999s-5.16699 -28.666 -15.5 -39.999s-24.166 -17 -41.499 -17s-31.166 5.66699 -41.499 17s-15.5 24.666 -15.5 39.999z" />
    <glyph glyph-name="nj" unicode="&#x1cc;" horiz-adv-x="789" 
d="M75 0l0.000976562 480.002h86v-70c18 25.333 39.667 45 65 59s54.666 21 87.999 21c30 0 55.667 -6.33301 77 -19s39 -29.834 53 -51.501s24.167 -46.834 30.5 -75.501s9.5 -59 9.5 -91v-253h-90v250c0 24.667 -2 47.167 -6 67.5s-10.333 37.833 -19 52.5
s-20 26.167 -34 34.5s-31 12.5 -51 12.5c-26.667 0 -50.167 -7 -70.5 -21s-36.5 -28.667 -48.5 -44v-352h-90zM719.001 118.002c0 -31.333 -2 -61.332 -6 -89.999s-10.833 -56.834 -20.5 -84.501s-23 -54.667 -40 -81s-38.5 -52.5 -64.5 -78.5l-62 49
c37.333 40.667 63.833 82.667 79.5 126s23.5 91 23.5 143v378h90v-362zM617.001 622.003c0 15.333 5.16699 28.666 15.5 39.999s24.166 17 41.499 17s31.166 -5.66699 41.499 -17s15.5 -24.666 15.5 -39.999s-5.16699 -28.666 -15.5 -39.999s-24.166 -17 -41.499 -17
s-31.166 5.66699 -41.499 17s-15.5 24.666 -15.5 39.999z" />
    <glyph glyph-name="Acaron" unicode="&#x1cd;" horiz-adv-x="676" 
d="M648 0h-94l-61 161h-311l-60 -161h-94l265 666h90zM210 235h256l-128 347zM381 716h-86l-107 160h80l70 -110l70 110h80z" />
    <glyph glyph-name="acaron" unicode="&#x1ce;" horiz-adv-x="501" 
d="M345 60c-7.33301 -8.66699 -16.3311 -17.165 -26.998 -25.498s-22.834 -15.833 -36.501 -22.5s-28.667 -12 -45 -16s-33.5 -6 -51.5 -6c-20 0 -38.333 3.16699 -55 9.5s-31 15.166 -43 26.499s-21.5 25.333 -28.5 42s-10.5 35 -10.5 55c0 44 15.5 77.333 46.5 100
s72.5 35.667 124.5 39c21.333 1.33301 42.5 2.33301 63.5 3s41.167 1 60.5 1v21c0 40.667 -8.66699 72.5 -26 95.5s-46 34.5 -86 34.5c-23.333 0 -45.5 -3 -66.5 -9s-41.167 -14.333 -60.5 -25l-21 66c25.333 15.333 51.166 26 77.499 32s55.166 9 86.499 9
c56.667 0 101.834 -17.333 135.501 -52s50.5 -84.334 50.5 -149.001v-289h-88v60zM211.002 56.002c26 0 50.3311 5.83105 72.998 17.498s42.334 26.5 59.001 44.5v89c-20 -1.33301 -38.667 -2.66602 -56 -3.99902s-34.666 -3 -51.999 -5
c-14 -1.33301 -27.167 -3.66602 -39.5 -6.99902s-23 -7.83301 -32 -13.5s-16 -13 -21 -22s-7.5 -19.833 -7.5 -32.5c0 -22.667 6.66699 -39.5 20 -50.5s32 -16.5 56 -16.5zM283 540h-86l-107 160h80l70 -110l70 110h80z" />
    <glyph glyph-name="Icaron" unicode="&#x1cf;" horiz-adv-x="262" 
d="M177 0h-92v666h92v-666zM174 716h-86l-107 160h80l70 -110l70 110h80z" />
    <glyph glyph-name="icaron" unicode="&#x1d0;" horiz-adv-x="240" 
d="M75 0v480h90v-480h-90zM163 530h-86l-107 160h80l70 -110l70 110h80z" />
    <glyph glyph-name="Ocaron" unicode="&#x1d1;" horiz-adv-x="740" 
d="M370 -12c-52 0 -98.333 9.33301 -139 28s-74.667 43.667 -102 75s-48.166 68 -62.499 110s-21.5 86 -21.5 132s7.16699 90 21.5 132s35.166 78.667 62.499 110s61.333 56.333 102 75s87 28 139 28s98.333 -9.33301 139 -28s74.667 -43.667 102 -75
s48.166 -68 62.499 -110s21.5 -86 21.5 -132s-7.16699 -90 -21.5 -132s-35.166 -78.667 -62.499 -110s-61.333 -56.333 -102 -75s-87 -28 -139 -28zM370 62c38 0 71.667 7 101 21s53.666 33.333 72.999 58s34 53.5 44 86.5s15 68.167 15 105.5s-5 72.5 -15 105.5
s-24.667 61.667 -44 86s-43.666 43.666 -72.999 57.999s-63 21.5 -101 21.5s-71.667 -7.16699 -101 -21.5s-53.666 -33.666 -72.999 -57.999s-34 -53 -44 -86s-15 -68.167 -15 -105.5s5 -72.5 15 -105.5s24.667 -61.833 44 -86.5s43.666 -44 72.999 -58s63 -21 101 -21z
M413 728h-86l-107 160h80l70 -110l70 110h80z" />
    <glyph glyph-name="ocaron" unicode="&#x1d2;" horiz-adv-x="546" 
d="M506 240c0 -34 -5.16699 -66 -15.5 -96s-25.5 -56.5 -45.5 -79.5s-44.5 -41.167 -73.5 -54.5s-61.833 -20 -98.5 -20c-37.333 0 -70.333 6.66699 -99 20s-53 31.5 -73 54.5s-35.167 49.5 -45.5 79.5s-15.5 62 -15.5 96s5.16699 66 15.5 96s25.5 56.5 45.5 79.5
s44.333 41.167 73 54.5s61.667 20 99 20c36.667 0 69.5 -6.66699 98.5 -20s53.5 -31.5 73.5 -54.5s35.167 -49.5 45.5 -79.5s15.5 -62 15.5 -96zM416 240c0 24.667 -3 48 -9 70s-14.833 41.167 -26.5 57.5s-26.5 29.166 -44.5 38.499s-39 14 -63 14s-45 -4.66699 -63 -14
s-32.833 -22.166 -44.5 -38.499s-20.5 -35.5 -26.5 -57.5s-9 -45.333 -9 -70c0 -25.333 3 -48.833 9 -70.5s14.833 -40.667 26.5 -57s26.5 -29.166 44.5 -38.499s39 -14 63 -14s45 4.66699 63 14s32.833 22.166 44.5 38.499s20.5 35.333 26.5 57s9 45.167 9 70.5zM316 540
h-86l-107 160h80l70 -110l70 110h80z" />
    <glyph glyph-name="Ucaron" unicode="&#x1d3;" horiz-adv-x="674" 
d="M506 666h92v-430c0 -34.667 -5.66699 -67.167 -17 -97.5s-28 -56.666 -50 -78.999s-49.167 -39.833 -81.5 -52.5s-69.833 -19 -112.5 -19s-80.167 6.33301 -112.5 19s-59.5 30.167 -81.5 52.5s-38.667 48.666 -50 78.999s-17 62.833 -17 97.5v430h92v-434
c0 -50 14.167 -90.667 42.5 -122s70.5 -47 126.5 -47s98.167 15.667 126.5 47s42.5 72 42.5 122v434zM380 716h-86l-107 160h80l70 -110l70 110h80z" />
    <glyph glyph-name="ucaron" unicode="&#x1d4;" horiz-adv-x="545" 
d="M470 480l-0.000976562 -480.002h-86v70c-17.333 -23.333 -38.833 -42.5 -64.5 -57.5s-55.167 -22.5 -88.5 -22.5c-30 0 -55.5 6.33301 -76.5 19s-38.167 29.834 -51.5 51.501s-23 46.834 -29 75.501s-9 59 -9 91v253h90v-250c0 -24.667 1.66699 -47.167 5 -67.5
s9 -37.833 17 -52.5s18.833 -26.167 32.5 -34.5s30.834 -12.5 51.501 -12.5c26.667 0 50 7 70 21s36.333 28.667 49 44v352h90zM309.999 529.998h-86l-107 160h80l70 -110l70 110h80z" />
    <glyph glyph-name="Udieresismacron" unicode="&#x1d5;" horiz-adv-x="674" 
d="M506 666h92v-430c0 -34.667 -5.66699 -67.167 -17 -97.5s-28 -56.666 -50 -78.999s-49.167 -39.833 -81.5 -52.5s-69.833 -19 -112.5 -19s-80.167 6.33301 -112.5 19s-59.5 30.167 -81.5 52.5s-38.667 48.666 -50 78.999s-17 62.833 -17 97.5v430h92v-434
c0 -50 14.167 -90.667 42.5 -122s70.5 -47 126.5 -47s98.167 15.667 126.5 47s42.5 72 42.5 122v434zM301 770c0 -15.333 -5 -28.166 -15 -38.499s-23 -15.5 -39 -15.5s-29 5.16699 -39 15.5s-15 23.166 -15 38.499s5 28.166 15 38.499s23 15.5 39 15.5
s29 -5.16699 39 -15.5s15 -23.166 15 -38.499zM482 770c0 -15.333 -5 -28.166 -15 -38.499s-23 -15.5 -39 -15.5s-29 5.16699 -39 15.5s-15 23.166 -15 38.499s5 28.166 15 38.499s23 15.5 39 15.5s29 -5.16699 39 -15.5s15 -23.166 15 -38.499zM201 943h272v-69h-272v69z
" />
    </font>
</defs>
</svg>
